{
.appVersion = "3151";
.formatVersion = 3;
axes = (
{
name = Weight;
tag = wght;
},
{
name = Width;
tag = wdth;
},
{
name = Slant;
tag = slnt;
}
);
classes = (
{
code = "zero one two three four five six seven eight nine ";
name = Num;
},
{
code = "zero.canadian one.canadian two.canadian three.canadian four.canadian five.canadian six.canadian seven.canadian eight.canadian nine.canadian 
";
name = Num_can;
},
{

glyphs = (
{
glyphname = idotless;
lastChange = "2023-01-13 15:53:22 +0000";
layers = (
{
layerId = "F8006AA5-6E21-4BD1-AC52-9C52C7F343AA";
shapes = (
{
closed = 1;
nodes = (
(167,521,l),
(71,521,l),
(71,0,l),
(167,0,l)
);
}
);
width = 239;
}
);
note = dotlessi;
unicode = 305;
},
{
glyphname = "acuteFinal-canadian";
lastChange = "2023-01-13 15:53:22 +0000";
layers = (
{
layerId = "F8006AA5-6E21-4BD1-AC52-9C52C7F343AA";
shapes = (
{
closed = 1;
nodes = (
(117,345,l),
(277,690,l),
(201,690,l),
(41,345,l)
);
}
);
width = 318;
}
);
metricRight = "=|";
note = uni141F;
unicode = 5151;
},
{
glyphname = "graveFinal-canadian";
kernLeft = mwestleft;
kernRight = mwestright;
lastChange = "2023-01-13 15:53:22 +0000";
layers = (
{
layerId = "F8006AA5-6E21-4BD1-AC52-9C52C7F343AA";
shapes = (
{
closed = 1;
nodes = (
(277,345,l),
(117,690,l),
(41,690,l),
(201,345,l)
);
}
);
width = 318;
}
);
metricLeft = "=|acuteFinal-canadian";
metricRight = "=|acuteFinal-canadian";
note = uni1420;
unicode = 5152;
},
{
glyphname = "ringBottomhalfFinal-canadian";
kernLeft = mwestleft;
kernRight = mwestright;
lastChange = "2023-01-13 15:53:22 +0000";
layers = (
{
layerId = "F8006AA5-6E21-4BD1-AC52-9C52C7F343AA";
shapes = (
{
closed = 1;
nodes = (
(304,339,o),
(360,396,o),
(360,500,cs),
(360,690,l),
(292,690,l),
(292,500,ls),
(292,433,o),
(264,402,o),
(213,402,cs),
(161,402,o),
(132,434,o),
(132,500,cs),
(132,690,l),
(64,690,l),
(64,499,ls),
(64,397,o),
(122,339,o),
(213,339,cs)
);
}
);
width = 424;
}
);
metricLeft = "ai-canadian";
metricRight = "==|ai-canadian";
note = uni1421;
unicode = 5153;
},
{
glyphname = "ringTophalfFinal-canadian";
lastChange = "2023-01-13 15:53:22 +0000";
layers = (
{
layerId = "F8006AA5-6E21-4BD1-AC52-9C52C7F343AA";
shapes = (
{
closed = 1;
nodes = (
(132,345,l),
(132,534,ls),
(132,601,o),
(161,633,o),
(213,633,cs),
(264,633,o),
(292,602,o),
(292,534,cs),
(292,345,l),
(360,345,l),
(360,534,ls),
(360,639,o),
(304,696,o),
(213,696,cs),
(122,696,o),
(64,638,o),
(64,535,cs),
(64,345,l)
);
}
);
width = 424;
}
);
metricLeft = "ai-canadian";
metricRight = "==|ai-canadian";
note = uni1422;
unicode = 5154;
},
{
glyphname = "ringRighthalfFinal-canadian";
kernLeft = mwestleft;
kernRight = mwestright;
lastChange = "2023-01-13 15:53:22 +0000";
layers = (
{
layerId = "F8006AA5-6E21-4BD1-AC52-9C52C7F343AA";
shapes = (
{
closed = 1;
nodes = (
(136,345,ls),
(246,345,o),
(308,411,o),
(308,517,cs),
(308,624,o),
(246,690,o),
(135,690,cs),
(61,690,l),
(61,626,l),
(131,626,ls),
(203,626,o),
(240,587,o),
(240,517,cs),
(240,446,o),
(203,409,o),
(131,409,cs),
(61,409,l),
(61,345,l)
);
}
);
width = 369;
}
);
metricLeft = "=|t-canadian";
metricWidth = "t-canadian";
note = uni1423;
unicode = 5155;
},
{
glyphname = "ringFinal-canadian";
kernLeft = mwestleft;
kernRight = mwestright;
lastChange = "2023-01-13 15:53:22 +0000";
layers = (
{
layerId = "F8006AA5-6E21-4BD1-AC52-9C52C7F343AA";
shapes = (
{
closed = 1;
nodes = (
(333,355,o),
(407,428,o),
(407,526,cs),
(407,623,o),
(332,696,o),
(234,696,cs),
(134,696,o),
(60,623,o),
(60,526,cs),
(60,428,o),
(133,355,o),
(234,355,cs)
);
},
{
closed = 1;
nodes = (
(168,414,o),
(125,462,o),
(125,526,cs),
(125,589,o),
(169,637,o),
(234,637,cs),
(297,637,o),
(343,589,o),
(343,526,cs),
(343,462,o),
(298,414,o),
(234,414,cs)
);
}
);
width = 468;
}
);
note = uni1424;
unicode = 5156;
},
{
glyphname = "doubleacuteFinal-canadian";
lastChange = "2023-01-13 15:53:22 +0000";
layers = (
{
layerId = "F8006AA5-6E21-4BD1-AC52-9C52C7F343AA";
shapes = (
{
closed = 1;
nodes = (
(277,690,l),
(201,690,l),
(41,345,l),
(117,345,l)
);
},
{
closed = 1;
nodes = (
(428,690,l),
(352,690,l),
(191,345,l),
(268,345,l)
);
}
);
width = 469;
}
);
metricLeft = "acuteFinal-canadian";
metricRight = "=|";
note = uni1425;
unicode = 5157;
},
{
glyphname = "doubleshortverticalstrokesFinal-canadian";
kernLeft = mwestleft;
kernRight = mwestright;
lastChange = "2023-01-13 15:53:52 +0000";
layers = (
{
layerId = "F8006AA5-6E21-4BD1-AC52-9C52C7F343AA";
shapes = (
{
closed = 1;
nodes = (
(132,690,l),
(64,690,l),
(64,345,l),
(132,345,l)
);
},
{
closed = 1;
nodes = (
(267,690,l),
(198,690,l),
(198,345,l),
(267,345,l)
);
}
);
width = 331;
}
);
metricLeft = "pWestCree-canadian";
metricRight = "pWestCree-canadian";
note = uni1426;
unicode = 5158;
},
{
glyphname = "middledotFinal-canadian";
lastChange = "2023-01-13 15:53:22 +0000";
layers = (
{
layerId = "F8006AA5-6E21-4BD1-AC52-9C52C7F343AA";
shapes = (
{
closed = 1;
nodes = (
(143,299,o),
(167,324,o),
(167,355,cs),
(167,385,o),
(143,410,o),
(112,410,cs),
(81,410,o),
(57,385,o),
(57,355,cs),
(57,324,o),
(81,299,o),
(112,299,cs)
);
}
);
width = 224;
}
);
note = uni1427;
unicode = 5159;
},
{
glyphname = "shorthorizontalstrokeFinal-canadian";
kernLeft = mwestleft;
kernRight = mwestright;
lastChange = "2023-01-13 15:53:52 +0000";
layers = (
{
layerId = "F8006AA5-6E21-4BD1-AC52-9C52C7F343AA";
shapes = (
{
closed = 1;
nodes = (
(383,489,l),
(383,557,l),
(62,557,l),
(62,489,l)
);
}
);
width = 445;
}
);
metricRight = "=|";
note = uni1428;
unicode = 5160;
},
{
glyphname = "plusFinal-canadian";
kernLeft = mwestleft;
kernRight = mwestright;
lastChange = "2023-01-13 15:53:52 +0000";
layers = (
{
layerId = "F8006AA5-6E21-4BD1-AC52-9C52C7F343AA";
shapes = (
{
closed = 1;
nodes = (
(257,362,l),
(257,496,l),
(384,496,l),
(384,559,l),
(257,559,l),
(257,690,l),
(189,690,l),
(189,559,l),
(62,559,l),
(62,496,l),
(189,496,l),
(189,362,l)
);
}
);
width = 446;
}
);
metricLeft = "shorthorizontalstrokeFinal-canadian";
metricRight = "shorthorizontalstrokeFinal-canadian";
note = uni1429;
unicode = 5161;
},
{
glyphname = "downtackFinal-canadian";
kernLeft = mwestleft;
kernRight = mwestright;
lastChange = "2023-01-13 15:53:52 +0000";
layers = (
{
layerId = "F8006AA5-6E21-4BD1-AC52-9C52C7F343AA";
shapes = (
{
closed = 1;
nodes = (
(257,345,l),
(257,625,l),
(384,625,l),
(384,690,l),
(62,690,l),
(62,625,l),
(189,625,l),
(189,345,l)
);
}
);
width = 446;
}
);
metricLeft = "shorthorizontalstrokeFinal-canadian";
metricRight = "shorthorizontalstrokeFinal-canadian";
note = uni142A;
unicode = 5162;
},
{
glyphname = "thFinalWoodScree-canadian";
lastChange = "2023-01-13 15:53:52 +0000";
layers = (
{
layerId = "F8006AA5-6E21-4BD1-AC52-9C52C7F343AA";
shapes = (
{
closed = 1;
nodes = (
(259,345,l),
(259,420,l),
(384,420,l),
(384,476,l),
(259,476,l),
(259,558,l),
(384,558,l),
(384,614,l),
(259,614,l),
(259,690,l),
(191,690,l),
(191,614,l),
(64,614,l),
(64,558,l),
(191,558,l),
(191,476,l),
(64,476,l),
(64,420,l),
(191,420,l),
(191,345,l)
);
}
);
width = 448;
}
);
metricLeft = "hyphen-canadian";
metricRight = "hyphen-canadian";
note = uni167E;
unicode = 5758;
},
{
glyphname = "ringSmallFinal-canadian";
kernLeft = mwestleft;
kernRight = mwestright;
lastChange = "2023-01-13 15:53:22 +0000";
layers = (
{
layerId = "F8006AA5-6E21-4BD1-AC52-9C52C7F343AA";
shapes = (
{
closed = 1;
nodes = (
(224,499,o),
(272,541,o),
(272,601,cs),
(272,661,o),
(224,702,o),
(168,702,cs),
(111,702,o),
(64,661,o),
(64,601,cs),
(64,541,o),
(111,499,o),
(168,499,cs)
);
},
{
closed = 1;
nodes = (
(133,544,o),
(112,569,o),
(112,601,cs),
(112,633,o),
(135,658,o),
(168,658,cs),
(202,658,o),
(224,633,o),
(224,601,cs),
(224,569,o),
(202,544,o),
(168,544,cs)
);
}
);
width = 337;
}
);
note = g725;
unicode = 6366;
},
{
glyphname = "raiseddotFinal-canadian";
kernLeft = mwestleft;
kernRight = mwestright;
lastChange = "2023-01-13 15:53:22 +0000";
layers = (
{
layerId = "F8006AA5-6E21-4BD1-AC52-9C52C7F343AA";
shapes = (
{
closed = 1;
nodes = (
(144,593,o),
(168,617,o),
(168,648,cs),
(168,678,o),
(144,702,o),
(113,702,cs),
(82,702,o),
(58,678,o),
(58,648,cs),
(58,617,o),
(82,593,o),
(113,593,cs)
);
}
);
width = 226;
}
);
note = g725;
unicode = 6367;
},
{
glyphname = "plusFinal-canadian.base";
lastChange = "2023-01-13 15:53:52 +0000";
layers = (
{
layerId = "F8006AA5-6E21-4BD1-AC52-9C52C7F343AA";
shapes = (
{
closed = 1;
nodes = (
(257,0,l),
(257,133,l),
(384,133,l),
(384,197,l),
(257,197,l),
(257,327,l),
(189,327,l),
(189,197,l),
(62,197,l),
(62,133,l),
(189,133,l),
(189,0,l)
);
}
);
width = 446;
}
);
metricLeft = "shorthorizontalstrokeFinal-canadian";
metricRight = "shorthorizontalstrokeFinal-canadian";
note = uni1429;
},
{
glyphname = "e-canadian";
kernLeft = ecanleft;
kernRight = ecanright;
lastChange = "2023-01-13 15:53:22 +0000";
layers = (
{
anchors = (
{
name = middle_center_can;
pos = (355,454);
},
{
name = top_center_can;
pos = (355,690);
},
{
name = top_left_can;
pos = (129,690);
},
{
name = top_right_can;
pos = (583,690);
}
);
layerId = "F8006AA5-6E21-4BD1-AC52-9C52C7F343AA";
shapes = (
{
closed = 1;
nodes = (
(376,0,l),
(684,664,l),
(684,690,l),
(32,690,l),
(32,664,l),
(340,0,l)
);
},
{
closed = 1;
nodes = (
(375,116,l),
(143,633,l),
(130,611,l),
(585,611,l),
(577,633,l),
(345,116,l)
);
}
);
width = 716;
}
);
metricRight = "=|";
note = uni1401;
unicode = 5121;
},
{
glyphname = "i-canadian";
kernLeft = icanleft;
kernRight = icanright;
lastChange = "2023-01-13 15:53:22 +0000";
layers = (
{
anchors = (
{
name = middle_center_can;
pos = (357,355);
},
{
name = top_center_can;
pos = (358,690);
},
{
name = top_left_can;
pos = (129,690);
},
{
name = top_right_can;
pos = (583,690);
}
);
layerId = "F8006AA5-6E21-4BD1-AC52-9C52C7F343AA";
shapes = (
{
closed = 1;
nodes = (
(684,0,l),
(684,26,l),
(376,690,l),
(340,690,l),
(32,26,l),
(32,0,l)
);
},
{
closed = 1;
nodes = (
(372,574,l),
(342,574,l),
(574,57,l),
(585,79,l),
(130,79,l),
(140,57,l)
);
}
);
width = 716;
}
);
metricLeft = "e-canadian";
metricWidth = "e-canadian";
note = uni1403;
unicode = 5123;
},
{
glyphname = "o-canadian";
kernLeft = ocanleft;
kernRight = ocanright;
lastChange = "2023-01-13 15:53:22 +0000";
layers = (
{
anchors = (
{
name = middle_center_can;
pos = (272,345);
},
{
name = top_center_can;
pos = (358,690);
},
{
name = top_double;
pos = (453,690);
},
{
name = top_left_can;
pos = (117,690);
},
{
name = top_right_can;
pos = (598,690);
}
);
layerId = "F8006AA5-6E21-4BD1-AC52-9C52C7F343AA";
shapes = (
{
closed = 1;
nodes = (
(101,0,l),
(643,327,l),
(643,362,l),
(101,690,l),
(75,690,l),
(75,0,l)
);
},
{
closed = 1;
nodes = (
(158,583,l),
(133,580,l),
(542,331,l),
(542,359,l),
(133,112,l),
(158,107,l)
);
}
);
width = 677;
}
);
metricLeft = "nunavuth-canadian";
note = uni1405;
unicode = 5125;
},
{
glyphname = "eeCarrier-canadian";
lastChange = "2023-01-13 15:53:22 +0000";
layers = (
{
layerId = "F8006AA5-6E21-4BD1-AC52-9C52C7F343AA";
shapes = (
{
closed = 1;
nodes = (
(101,0,l),
(643,327,l),
(643,362,l),
(101,690,l),
(75,690,l),
(75,0,l)
);
},
{
closed = 1;
nodes = (
(156,583,l),
(133,582,l),
(542,333,l),
(542,357,l),
(133,110,l),
(156,107,l)
);
},
{
closed = 1;
nodes = (
(290,427,l),
(252,427,l),
(252,263,l),
(290,263,l)
);
}
);
width = 677;
}
);
metricLeft = "nunavuth-canadian";
metricRight = "o-canadian";
note = uni1408;
unicode = 5128;
},
{
glyphname = "a-canadian";
kernLeft = acanleft;
kernRight = acanright;
lastChange = "2023-01-13 15:53:52 +0000";
layers = (
{
anchors = (
{
name = middle_center_can;
pos = (400,345);
},
{
name = top_center_can;
pos = (313,690);
},
{
name = top_left_can;
pos = (77,690);
},
{
name = top_right_can;
pos = (559,690);
}
);
layerId = "F8006AA5-6E21-4BD1-AC52-9C52C7F343AA";
shapes = (
{
closed = 1;
nodes = (
(601,0,l),
(601,690,l),
(576,690,l),
(34,362,l),
(34,327,l),
(576,0,l)
);
},
{
closed = 1;
nodes = (
(543,111,l),
(135,359,l),
(135,331,l),
(543,580,l),
(519,583,l),
(519,107,l)
);
}
);
width = 676;
}
);
metricRight = "nunavuth-canadian";
note = uni140A;
unicode = 5130;
},
{
glyphname = "ai-canadian";
lastChange = "2023-01-13 15:53:22 +0000";
layers = (
{
layerId = "F8006AA5-6E21-4BD1-AC52-9C52C7F343AA";
shapes = (
{
closed = 1;
nodes = (
(264,339,o),
(304,369,o),
(324,429,c),
(302,429,l),
(322,369,o),
(364,339,o),
(424,339,cs),
(508,339,o),
(562,393,o),
(562,497,cs),
(562,690,l),
(497,690,l),
(497,497,ls),
(497,426,o),
(469,399,o),
(421,399,cs),
(375,399,o),
(345,428,o),
(345,496,cs),
(345,690,l),
(281,690,l),
(281,497,ls),
(281,426,o),
(251,399,o),
(204,399,cs),
(157,399,o),
(128,428,o),
(128,496,cs),
(128,690,l),
(64,690,l),
(64,495,ls),
(64,393,o),
(119,339,o),
(203,339,cs)
);
}
);
width = 626;
}
);
metricRight = "=|";
note = uni141C;
unicode = 5148;
},
{
glyphname = "ycreew-canadian";
lastChange = "2023-01-13 15:53:22 +0000";
layers = (
{
layerId = "F8006AA5-6E21-4BD1-AC52-9C52C7F343AA";
shapes = (
{
closed = 1;
nodes = (
(349,510,o),
(385,549,o),
(385,603,cs),
(385,658,o),
(349,696,o),
(299,696,cs),
(250,696,o),
(213,658,o),
(213,603,cs),
(213,549,o),
(250,510,o),
(299,510,cs)
);
},
{
closed = 1;
nodes = (
(196,339,o),
(233,378,o),
(233,432,cs),
(233,487,o),
(197,525,o),
(148,525,cs),
(98,525,o),
(61,487,o),
(61,432,cs),
(61,378,o),
(98,339,o),
(147,339,cs)
);
},
{
closed = 1;
nodes = (
(119,375,o),
(99,398,o),
(99,432,cs),
(99,466,o),
(119,489,o),
(147,489,cs),
(175,489,o),
(194,466,o),
(194,432,cs),
(194,398,o),
(175,375,o),
(147,375,cs)
);
},
{
closed = 1;
nodes = (
(270,546,o),
(252,569,o),
(252,603,cs),
(252,637,o),
(270,660,o),
(299,660,cs),
(327,660,o),
(347,637,o),
(347,603,cs),
(347,569,o),
(327,546,o),
(299,546,cs)
);
}
);
width = 446;
}
);
metricRight = "=|";
note = uni141D;
unicode = 5149;
},
{
glyphname = "glottalstop-canadian";
lastChange = "2023-01-13 15:53:22 +0000";
layers = (
{
layerId = "F8006AA5-6E21-4BD1-AC52-9C52C7F343AA";
shapes = (
{
closed = 1;
nodes = (
(381,345,l),
(381,359,l),
(227,690,l),
(209,690,l),
(55,359,l),
(55,345,l)
);
},
{
closed = 1;
nodes = (
(234,627,l),
(201,627,l),
(315,374,l),
(329,396,l),
(106,396,l),
(119,374,l)
);
}
);
width = 436;
}
);
metricRight = "=|";
note = uni141E;
unicode = 5150;
},
{
glyphname = "pe-canadian";
kernLeft = ecanleft;
kernRight = ecanright;
lastChange = "2023-01-13 15:53:22 +0000";
layers = (
{
anchors = (
{
name = middle_center_can;
pos = (355,454);
},
{
name = top_center_can;
pos = (355,690);
},
{
name = top_left_can;
pos = (129,690);
},
{
name = top_right_can;
pos = (583,690);
}
);
layerId = "F8006AA5-6E21-4BD1-AC52-9C52C7F343AA";
shapes = (
{
closed = 1;
nodes = (
(376,0,l),
(684,664,l),
(684,690,l),
(596,690,l),
(335,115,l),
(384,115,l),
(126,690,l),
(32,690,l),
(32,664,l),
(340,0,l)
);
}
);
width = 716;
}
);
metricLeft = "e-canadian";
metricRight = "e-canadian";
note = uni142F;
unicode = 5167;
},
{
glyphname = "pi-canadian";
kernLeft = icanleft;
kernRight = icanright;
lastChange = "2023-01-13 15:53:22 +0000";
layers = (
{
anchors = (
{
name = middle_center_can;
pos = (356,355);
},
{
name = top_center_can;
pos = (358,690);
},
{
name = top_left_can;
pos = (131,690);
},
{
name = top_right_can;
pos = (585,690);
}
);
layerId = "F8006AA5-6E21-4BD1-AC52-9C52C7F343AA";
shapes = (
{
closed = 1;
nodes = (
(122,0,l),
(384,575,l),
(333,575,l),
(592,0,l),
(684,0,l),
(684,26,l),
(376,690,l),
(340,690,l),
(32,26,l),
(32,0,l)
);
}
);
width = 716;
}
);
metricLeft = "e-canadian";
metricRight = "e-canadian";
note = uni1431;
unicode = 5169;
},
{
glyphname = "po-canadian";
kernLeft = ocanleft;
kernRight = ocanright;
lastChange = "2023-01-13 15:53:22 +0000";
layers = (
{
anchors = (
{
name = middle_center_can;
pos = (207,345);
},
{
name = top_center_can;
pos = (333,690);
},
{
name = top_double;
pos = (434,690);
},
{
name = top_left_can;
pos = (96,690);
},
{
name = top_right_can;
pos = (571,690);
}
);
layerId = "F8006AA5-6E21-4BD1-AC52-9C52C7F343AA";
shapes = (
{
closed = 1;
nodes = (
(78,0,l),
(615,327,l),
(615,362,l),
(78,690,l),
(53,690,l),
(53,601,l),
(508,324,l),
(508,367,l),
(53,90,l),
(53,0,l)
);
}
);
width = 649;
}
);
metricRight = "o-canadian";
note = uni1433;
unicode = 5171;
},
{
glyphname = "pa-canadian";
kernLeft = acanleft;
kernRight = acanright;
lastChange = "2023-01-13 15:53:22 +0000";
layers = (
{
anchors = (
{
name = middle_center_can;
pos = (325,345);
},
{
name = top_center_can;
pos = (317,690);
},
{
name = top_left_can;
pos = (77,690);
},
{
name = top_right_can;
pos = (554,690);
}
);
layerId = "F8006AA5-6E21-4BD1-AC52-9C52C7F343AA";
shapes = (
{
closed = 1;
nodes = (
(596,0,l),
(596,89,l),
(141,366,l),
(141,323,l),
(596,600,l),
(596,690,l),
(571,690,l),
(34,362,l),
(34,327,l),
(571,0,l)
);
}
);
width = 649;
}
);
metricRight = "=|po-canadian";
note = uni1438;
unicode = 5176;
},
{
glyphname = "p-canadian";
kernLeft = mwestleft;
kernRight = mwestright;
lastChange = "2023-01-13 15:53:22 +0000";
layers = (
{
layerId = "F8006AA5-6E21-4BD1-AC52-9C52C7F343AA";
shapes = (
{
closed = 1;
nodes = (
(344,345,l),
(344,407,l),
(123,542,l),
(123,493,l),
(344,627,l),
(344,690,l),
(329,690,l),
(64,527,l),
(64,508,l),
(329,345,l)
);
}
);
width = 409;
}
);
note = uni1449;
unicode = 5193;
},
{
glyphname = "pWestCree-canadian";
kernLeft = mwestleft;
kernRight = mwestright;
lastChange = "2023-01-13 15:53:22 +0000";
layers = (
{
layerId = "F8006AA5-6E21-4BD1-AC52-9C52C7F343AA";
shapes = (
{
closed = 1;
nodes = (
(132,345,l),
(132,690,l),
(64,690,l),
(64,345,l)
);
}
);
width = 196;
}
);
metricRight = "=|";
note = uni144A;
unicode = 5194;
},
{
color = 6;
glyphname = "hCarrier-canadian";
lastChange = "2023-01-13 15:53:22 +0000";
layers = (
{
layerId = "F8006AA5-6E21-4BD1-AC52-9C52C7F343AA";
shapes = (
{
closed = 1;
nodes = (
(132,183,l),
(132,306,ls),
(132,349,o),
(156,373,o),
(194,373,cs),
(230,373,o),
(248,351,o),
(248,304,cs),
(248,183,l),
(317,183,l),
(317,317,ls),
(317,396,o),
(268,435,o),
(207,435,cs),
(159,435,o),
(121,407,o),
(115,368,c),
(132,357,l),
(132,527,l),
(64,527,l),
(64,183,l)
);
}
);
width = 359;
}
);
metricLeft = "pWestCree-canadian";
note = uni144B;
unicode = 5195;
},
{
glyphname = "te-canadian";
lastChange = "2023-01-13 15:53:22 +0000";
layers = (
{
anchors = (
{
name = middle_center_can;
pos = (356,345);
},
{
name = top_center_can;
pos = (356,690);
},
{
name = top_left_can;
pos = (117,690);
},
{
name = top_right_can;
pos = (597,690);
}
);
layerId = "F8006AA5-6E21-4BD1-AC52-9C52C7F343AA";
shapes = (
{
closed = 1;
nodes = (
(536,-13,o),
(644,102,o),
(644,302,cs),
(644,690,l),
(549,690,l),
(549,300,ls),
(549,152,o),
(479,75,o),
(356,75,cs),
(237,75,o),
(164,154,o),
(164,300,cs),
(164,690,l),
(69,690,l),
(69,299,ls),
(69,101,o),
(178,-13,o),
(356,-13,cs)
);
}
);
width = 713;
}
);
metricRight = "=|";
note = uni144C;
unicode = 5196;
},
{
glyphname = "ti-canadian";
lastChange = "2023-01-13 15:53:22 +0000";
layers = (
{
anchors = (
{
name = middle_center_can;
pos = (356,345);
},
{
name = middle_right_can;
pos = (803,345);
},
{
name = top_center_can;
pos = (356,690);
},
{
name = top_left_can;
pos = (117,690);
},
{
name = top_right_can;
pos = (597,690);
}
);
layerId = "F8006AA5-6E21-4BD1-AC52-9C52C7F343AA";
shapes = (
{
closed = 1;
nodes = (
(164,0,l),
(164,389,ls),
(164,536,o),
(237,614,o),
(358,614,cs),
(477,614,o),
(549,536,o),
(549,389,cs),
(549,0,l),
(644,0,l),
(644,390,ls),
(644,588,o),
(535,702,o),
(359,702,cs),
(180,702,o),
(69,588,o),
(69,387,cs),
(69,0,l)
);
}
);
width = 713;
}
);
metricLeft = "te-canadian";
metricRight = "te-canadian";
note = uni144E;
unicode = 5198;
},
{
glyphname = "to-canadian";
kernLeft = toleft;
lastChange = "2023-01-13 15:53:22 +0000";
layers = (
{
anchors = (
{
name = middle_center_can;
pos = (253,345);
},
{
name = middle_right_can;
pos = (703,345);
},
{
name = top_center_can;
pos = (274,690);
},
{
name = top_double;
pos = (343,690);
},
{
name = top_left_can;
pos = (99,690);
},
{
name = top_right_can;
pos = (502,690);
}
);
layerId = "F8006AA5-6E21-4BD1-AC52-9C52C7F343AA";
shapes = (
{
closed = 1;
nodes = (
(214,0,ls),
(425,0,o),
(545,128,o),
(545,346,cs),
(545,563,o),
(425,690,o),
(212,690,cs),
(56,690,l),
(56,603,l),
(209,603,ls),
(364,603,o),
(448,513,o),
(448,346,cs),
(448,179,o),
(364,87,o),
(211,87,cs),
(56,87,l),
(56,0,l)
);
}
);
width = 607;
}
);
note = uni1450;
unicode = 5200;
},
{
glyphname = "ta-canadian";
kernRight = taright;
lastChange = "2023-01-13 15:53:22 +0000";
layers = (
{
anchors = (
{
name = middle_center_can;
pos = (354,345);
},
{
name = top_center_can;
pos = (332,690);
},
{
name = top_left_can;
pos = (103,690);
},
{
name = top_right_can;
pos = (507,690);
}
);
layerId = "F8006AA5-6E21-4BD1-AC52-9C52C7F343AA";
shapes = (
{
closed = 1;
nodes = (
(550,0,l),
(550,87,l),
(397,87,ls),
(242,87,o),
(157,178,o),
(157,345,cs),
(157,512,o),
(242,603,o),
(396,603,cs),
(550,603,l),
(550,690,l),
(393,690,ls),
(182,690,o),
(62,562,o),
(62,345,cs),
(62,128,o),
(182,0,o),
(392,0,cs)
);
}
);
width = 606;
}
);
metricLeft = "=|to-canadian";
metricRight = "=|to-canadian";
note = uni1455;
unicode = 5205;
},
{
glyphname = "t-canadian";
kernLeft = mwestleft;
kernRight = mwestright;
lastChange = "2023-01-13 15:53:22 +0000";
layers = (
{
layerId = "F8006AA5-6E21-4BD1-AC52-9C52C7F343AA";
shapes = (
{
closed = 1;
nodes = (
(308,345,l),
(308,409,l),
(237,409,ls),
(165,409,o),
(128,446,o),
(128,517,cs),
(128,586,o),
(165,626,o),
(237,626,cs),
(308,626,l),
(308,690,l),
(232,690,ls),
(122,690,o),
(60,623,o),
(60,517,cs),
(60,411,o),
(122,345,o),
(233,345,cs)
);
}
);
width = 369;
}
);
note = uni1466;
unicode = 5222;
},
{
glyphname = "ke-canadian";
lastChange = "2023-01-13 15:53:52 +0000";
layers = (
{
anchors = (
{
name = middle_center_can;
pos = (304,441);
},
{
name = top_center_can;
pos = (289,690);
},
{
name = top_left_can;
pos = (107,690);
},
{
name = top_right_can;
pos = (470,690);
}
);
layerId = "F8006AA5-6E21-4BD1-AC52-9C52C7F343AA";
shapes = (
{
closed = 1;
nodes = (
(518,0,l),
(518,443,ls),
(518,605,o),
(432,702,o),
(291,702,cs),
(151,702,o),
(60,604,o),
(60,447,cs),
(60,296,o),
(148,198,o),
(277,198,cs),
(357,198,o),
(417,242,o),
(431,300,c),
(421,313,l),
(421,0,l)
);
},
{
closed = 1;
nodes = (
(207,280,o),
(155,341,o),
(155,450,cs),
(155,559,o),
(205,620,o),
(289,620,cs),
(373,620,o),
(423,560,o),
(423,450,cs),
(423,342,o),
(371,280,o),
(289,280,cs)
);
}
);
width = 587;
}
);
metricRight = "te-canadian";
note = uni146B;
unicode = 5227;
},
{
glyphname = "ki-canadian";
lastChange = "2023-01-13 15:53:22 +0000";
layers = (
{
anchors = (
{
name = middle_center_can;
pos = (312,441);
},
{
name = top_center_can;
pos = (297,690);
},
{
name = top_left_can;
pos = (116,690);
},
{
name = top_right_can;
pos = (479,690);
}
);
layerId = "F8006AA5-6E21-4BD1-AC52-9C52C7F343AA";
shapes = (
{
closed = 1;
nodes = (
(164,0,l),
(164,313,l),
(155,300,l),
(169,242,o),
(229,198,o),
(309,198,cs),
(439,198,o),
(526,297,o),
(526,450,cs),
(526,606,o),
(436,702,o),
(298,702,cs),
(156,702,o),
(69,604,o),
(69,443,cs),
(69,0,l)
);
},
{
closed = 1;
nodes = (
(214,280,o),
(162,342,o),
(162,450,cs),
(162,560,o),
(213,620,o),
(297,620,cs),
(381,620,o),
(432,559,o),
(432,450,cs),
(432,341,o),
(379,280,o),
(297,280,cs)
);
}
);
width = 586;
}
);
metricLeft = "te-canadian";
metricRight = "=|ke-canadian";
note = uni146D;
unicode = 5229;
},
{
glyphname = "ko-canadian";
lastChange = "2023-01-13 15:53:52 +0000";
layers = (
{
anchors = (
{
name = middle_center_can;
pos = (304,355);
},
{
name = top_center_can;
pos = (289,690);
},
{
name = top_double;
pos = (470,690);
},
{
name = top_left_can;
pos = (107,690);
},
{
name = top_right_can;
pos = (470,690);
}
);
layerId = "F8006AA5-6E21-4BD1-AC52-9C52C7F343AA";
shapes = (
{
closed = 1;
nodes = (
(432,-13,o),
(518,85,o),
(518,246,cs),
(518,690,l),
(421,690,l),
(421,377,l),
(431,389,l),
(417,447,o),
(357,492,o),
(278,492,cs),
(148,492,o),
(60,391,o),
(60,238,cs),
(60,84,o),
(148,-13,o),
(289,-13,cs)
);
},
{
closed = 1;
nodes = (
(205,70,o),
(155,130,o),
(155,240,cs),
(155,349,o),
(207,410,o),
(289,410,cs),
(371,410,o),
(423,348,o),
(423,240,cs),
(423,129,o),
(373,70,o),
(289,70,cs)
);
}
);
width = 587;
}
);
metricLeft = "ke-canadian";
metricRight = "te-canadian";
note = uni146F;
unicode = 5231;
},
{
glyphname = "ka-canadian";
lastChange = "2023-01-13 15:53:22 +0000";
layers = (
{
anchors = (
{
name = middle_center_can;
pos = (312,357);
},
{
name = top_center_can;
pos = (298,690);
},
{
name = top_left_can;
pos = (116,690);
},
{
name = top_right_can;
pos = (479,690);
}
);
layerId = "F8006AA5-6E21-4BD1-AC52-9C52C7F343AA";
shapes = (
{
closed = 1;
nodes = (
(435,-13,o),
(526,84,o),
(526,242,cs),
(526,393,o),
(439,492,o),
(311,492,cs),
(230,492,o),
(170,447,o),
(155,389,c),
(164,377,l),
(164,690,l),
(69,690,l),
(69,246,ls),
(69,85,o),
(154,-13,o),
(296,-13,cs)
);
},
{
closed = 1;
nodes = (
(213,70,o),
(162,129,o),
(162,240,cs),
(162,348,o),
(214,410,o),
(297,410,cs),
(379,410,o),
(432,349,o),
(432,240,cs),
(432,130,o),
(381,70,o),
(297,70,cs)
);
}
);
width = 586;
}
);
metricLeft = "te-canadian";
metricRight = "==|ke-canadian";
note = uni1472;
unicode = 5234;
},
{
glyphname = "k-canadian";
kernLeft = mwestleft;
kernRight = mwestright;
lastChange = "2023-01-13 15:53:22 +0000";
layers = (
{
layerId = "F8006AA5-6E21-4BD1-AC52-9C52C7F343AA";
shapes = (
{
closed = 1;
nodes = (
(264,339,o),
(319,388,o),
(319,472,cs),
(319,552,o),
(269,601,o),
(204,601,cs),
(158,601,o),
(125,573,o),
(117,534,c),
(132,529,l),
(132,690,l),
(64,690,l),
(64,473,ls),
(64,390,o),
(114,339,o),
(193,339,cs)
);
},
{
closed = 1;
nodes = (
(152,390,o),
(127,417,o),
(127,470,cs),
(127,522,o),
(155,550,o),
(191,550,cs),
(230,550,o),
(257,522,o),
(257,470,cs),
(257,419,o),
(231,390,o),
(192,390,cs)
);
}
);
width = 373;
}
);
note = uni1483;
unicode = 5251;
},
{
glyphname = "kw-canadian";
kernLeft = mwestleft;
kernRight = mwestright;
lastChange = "2023-01-13 15:53:22 +0000";
layers = (
{
layerId = "F8006AA5-6E21-4BD1-AC52-9C52C7F343AA";
shapes = (
{
closed = 1;
nodes = (
(258,339,o),
(309,390,o),
(309,473,cs),
(309,690,l),
(241,690,l),
(241,529,l),
(256,534,l),
(248,573,o),
(214,601,o),
(169,601,cs),
(104,601,o),
(54,552,o),
(54,472,cs),
(54,388,o),
(109,339,o),
(180,339,cs)
);
},
{
closed = 1;
nodes = (
(142,390,o),
(116,419,o),
(116,470,cs),
(116,522,o),
(143,550,o),
(181,550,cs),
(218,550,o),
(245,522,o),
(245,470,cs),
(245,417,o),
(221,390,o),
(181,390,cs)
);
}
);
width = 373;
}
);
metricLeft = "=|k-canadian";
metricRight = "=|k-canadian";
note = uni1484;
unicode = 5252;
},
{
glyphname = "ce-canadian";
kernLeft = celeft;
lastChange = "2023-01-13 15:53:22 +0000";
layers = (
{
anchors = (
{
name = middle_center_can;
pos = (301,399);
},
{
name = top_center_can;
pos = (289,690);
},
{
name = top_left_can;
pos = (107,690);
},
{
name = top_right_can;
pos = (465,690);
}
);
layerId = "F8006AA5-6E21-4BD1-AC52-9C52C7F343AA";
shapes = (
{
closed = 1;
nodes = (
(513,0,l),
(513,448,ls),
(513,609,o),
(429,702,o),
(289,702,cs),
(146,702,o),
(59,608,o),
(59,449,cs),
(59,387,l),
(155,387,l),
(155,457,ls),
(155,560,o),
(202,618,o),
(287,618,cs),
(369,618,o),
(416,560,o),
(416,457,cs),
(416,0,l)
);
}
);
width = 582;
}
);
metricRight = "te-canadian";
note = uni1489;
unicode = 5257;
},
{
glyphname = "ci-canadian";
kernRight = ciright;
lastChange = "2023-01-13 15:53:22 +0000";
layers = (
{
anchors = (
{
name = middle_center_can;
pos = (304,399);
},
{
name = top_center_can;
pos = (298,690);
},
{
name = top_left_can;
pos = (117,690);
},
{
name = top_right_can;
pos = (475,690);
}
);
layerId = "F8006AA5-6E21-4BD1-AC52-9C52C7F343AA";
shapes = (
{
closed = 1;
nodes = (
(164,0,l),
(164,457,ls),
(164,560,o),
(213,618,o),
(297,618,cs),
(381,618,o),
(426,560,o),
(426,458,cs),
(426,387,l),
(522,387,l),
(522,449,ls),
(522,608,o),
(439,702,o),
(298,702,cs),
(153,702,o),
(69,607,o),
(69,448,cs),
(69,0,l)
);
}
);
width = 581;
}
);
metricLeft = "te-canadian";
metricRight = "=|ce-canadian";
note = uni148B;
unicode = 5259;
},
{
glyphname = "co-canadian";
kernLeft = coleft;
lastChange = "2023-01-13 15:53:22 +0000";
layers = (
{
anchors = (
{
name = middle_center_can;
pos = (301,399);
},
{
name = top_center_can;
pos = (288,690);
},
{
name = top_double;
pos = (465,690);
},
{
name = top_left_can;
pos = (107,690);
},
{
name = top_right_can;
pos = (465,690);
}
);
layerId = "F8006AA5-6E21-4BD1-AC52-9C52C7F343AA";
shapes = (
{
closed = 1;
nodes = (
(428,-13,o),
(513,79,o),
(513,242,cs),
(513,690,l),
(416,690,l),
(416,233,ls),
(416,128,o),
(369,71,o),
(287,71,cs),
(200,71,o),
(155,129,o),
(155,236,cs),
(155,302,l),
(59,302,l),
(59,240,ls),
(59,82,o),
(142,-13,o),
(289,-13,cs)
);
}
);
width = 582;
}
);
metricLeft = "ce-canadian";
metricRight = "te-canadian";
note = uni148D;
unicode = 5261;
},
{
glyphname = "ca-canadian";
kernRight = caright;
lastChange = "2023-01-13 15:53:22 +0000";
layers = (
{
anchors = (
{
name = middle_center_can;
pos = (304,399);
},
{
name = top_center_can;
pos = (298,690);
},
{
name = top_left_can;
pos = (117,690);
},
{
name = top_right_can;
pos = (475,690);
}
);
layerId = "F8006AA5-6E21-4BD1-AC52-9C52C7F343AA";
shapes = (
{
closed = 1;
nodes = (
(439,-13,o),
(522,81,o),
(522,241,cs),
(522,302,l),
(426,302,l),
(426,235,ls),
(426,128,o),
(381,71,o),
(297,71,cs),
(211,71,o),
(164,129,o),
(164,235,cs),
(164,690,l),
(69,690,l),
(69,242,ls),
(69,80,o),
(151,-13,o),
(296,-13,cs)
);
}
);
width = 581;
}
);
metricLeft = "te-canadian";
metricRight = "=|ce-canadian";
note = uni1490;
unicode = 5264;
},
{
glyphname = "c-canadian";
kernLeft = mwestleft;
kernRight = mwestright;
lastChange = "2023-01-13 15:53:22 +0000";
layers = (
{
layerId = "F8006AA5-6E21-4BD1-AC52-9C52C7F343AA";
shapes = (
{
closed = 1;
nodes = (
(269,339,o),
(320,385,o),
(320,468,cs),
(320,487,l),
(256,487,l),
(256,463,ls),
(256,417,o),
(231,393,o),
(193,393,cs),
(155,393,o),
(132,417,o),
(132,468,cs),
(132,690,l),
(64,690,l),
(64,476,ls),
(64,386,o),
(111,339,o),
(193,339,cs)
);
}
);
width = 363;
}
);
note = uni14A1;
unicode = 5281;
},
{
glyphname = "thSayisi-canadian";
lastChange = "2023-01-13 15:53:22 +0000";
layers = (
{
layerId = "F8006AA5-6E21-4BD1-AC52-9C52C7F343AA";
shapes = (
{
closed = 1;
nodes = (
(251,339,o),
(298,386,o),
(298,476,cs),
(298,690,l),
(231,690,l),
(231,468,ls),
(231,417,o),
(209,393,o),
(170,393,cs),
(131,393,o),
(107,417,o),
(107,463,cs),
(107,487,l),
(43,487,l),
(43,468,ls),
(43,385,o),
(95,339,o),
(170,339,cs)
);
}
);
width = 362;
}
);
metricLeft = "=|c-canadian";
metricRight = "=|c-canadian";
note = uni14A2;
unicode = 5282;
},
{
glyphname = "me-canadian";
kernLeft = meleft;
lastChange = "2023-01-13 15:53:52 +0000";
layers = (
{
anchors = (
{
name = middle_center_can;
pos = (198,345);
},
{
name = top_center_can;
pos = (248,690);
},
{
name = top_left_can;
pos = (88,690);
},
{
name = top_right_can;
pos = (405,690);
}
);
layerId = "F8006AA5-6E21-4BD1-AC52-9C52C7F343AA";
shapes = (
{
closed = 1;
nodes = (
(452,0,l),
(452,690,l),
(40,690,l),
(40,603,l),
(356,603,l),
(356,0,l)
);
}
);
width = 527;
}
);
metricRight = "nunavuth-canadian";
note = uni14A3;
unicode = 5283;
},
{
glyphname = "mi-canadian";
kernRight = miright;
lastChange = "2023-01-13 15:53:52 +0000";
layers = (
{
anchors = (
{
name = middle_center_can;
pos = (330,345);
},
{
name = top_center_can;
pos = (282,690);
},
{
name = top_left_can;
pos = (124,690);
},
{
name = top_right_can;
pos = (440,690);
}
);
layerId = "F8006AA5-6E21-4BD1-AC52-9C52C7F343AA";
shapes = (
{
closed = 1;
nodes = (
(172,0,l),
(172,603,l),
(488,603,l),
(488,690,l),
(75,690,l),
(75,0,l)
);
}
);
width = 528;
}
);
metricLeft = "nunavuth-canadian";
metricRight = "=|me-canadian";
note = uni14A5;
unicode = 5285;
},
{
glyphname = "mo-canadian";
kernLeft = moleft;
lastChange = "2023-01-13 15:53:52 +0000";
layers = (
{
anchors = (
{
name = middle_center_can;
pos = (198,345);
},
{
name = top_center_can;
pos = (248,690);
},
{
name = top_double;
pos = (405,690);
},
{
name = top_left_can;
pos = (88,690);
},
{
name = top_right_can;
pos = (405,690);
}
);
layerId = "F8006AA5-6E21-4BD1-AC52-9C52C7F343AA";
shapes = (
{
closed = 1;
nodes = (
(452,0,l),
(452,690,l),
(356,690,l),
(356,87,l),
(40,87,l),
(40,0,l)
);
}
);
width = 527;
}
);
metricLeft = "me-canadian";
metricRight = "nunavuth-canadian";
note = uni14A7;
unicode = 5287;
},
{
glyphname = "ma-canadian";
kernRight = maright;
lastChange = "2023-01-13 15:53:52 +0000";
layers = (
{
anchors = (
{
name = middle_center_can;
pos = (330,345);
},
{
name = top_center_can;
pos = (282,690);
},
{
name = top_left_can;
pos = (124,690);
},
{
name = top_right_can;
pos = (440,690);
}
);
layerId = "F8006AA5-6E21-4BD1-AC52-9C52C7F343AA";
shapes = (
{
closed = 1;
nodes = (
(488,0,l),
(488,87,l),
(172,87,l),
(172,690,l),
(75,690,l),
(75,0,l)
);
}
);
width = 528;
}
);
metricLeft = "nunavuth-canadian";
metricRight = "=|me-canadian";
note = uni14AA;
unicode = 5290;
},
{
glyphname = "m-canadian";
kernLeft = mwestleft;
kernRight = mwestright;
lastChange = "2023-01-13 15:53:22 +0000";
layers = (
{
layerId = "F8006AA5-6E21-4BD1-AC52-9C52C7F343AA";
shapes = (
{
closed = 1;
nodes = (
(290,409,l),
(132,409,l),
(132,690,l),
(64,690,l),
(64,345,l),
(290,345,l)
);
}
);
width = 337;
}
);
metricLeft = "pWestCree-canadian";
note = uni14BB;
unicode = 5307;
},
{
glyphname = "mh-canadian";
kernLeft = mwestleft;
kernRight = mwestright;
lastChange = "2023-01-13 15:53:22 +0000";
layers = (
{
layerId = "F8006AA5-6E21-4BD1-AC52-9C52C7F343AA";
shapes = (
{
closed = 1;
nodes = (
(273,345,l),
(273,690,l),
(205,690,l),
(205,409,l),
(47,409,l),
(47,345,l)
);
}
);
width = 337;
}
);
metricLeft = "=|m-canadian";
metricRight = "=|m-canadian";
note = uni14BD;
unicode = 5309;
},
{
glyphname = "mAthapascan-canadian";
lastChange = "2023-01-13 15:53:22 +0000";
layers = (
{
layerId = "F8006AA5-6E21-4BD1-AC52-9C52C7F343AA";
shapes = (
{
closed = 1;
nodes = (
(304,345,l),
(304,400,l),
(136,400,l),
(137,371,l),
(242,481,ls),
(276,518,o),
(290,553,o),
(290,592,cs),
(290,654,o),
(246,696,o),
(176,696,cs),
(99,696,o),
(55,647,o),
(54,572,c),
(115,572,l),
(115,620,o),
(135,644,o),
(175,644,cs),
(210,644,o),
(229,625,o),
(229,590,cs),
(229,559,o),
(219,537,o),
(187,502,cs),
(68,379,l),
(68,345,l)
);
}
);
width = 353;
}
);
note = uni14BE;
unicode = 5310;
},
{
glyphname = "ne-canadian";
kernLeft = neleft;
lastChange = "2023-01-13 15:53:22 +0000";
layers = (
{
anchors = (
{
name = middle_center_can;
pos = (510,245);
},
{
name = top_center_can;
pos = (498,497);
},
{
name = top_left_can;
pos = (103,497);
},
{
name = top_right_can;
pos = (698,497);
}
);
layerId = "F8006AA5-6E21-4BD1-AC52-9C52C7F343AA";
shapes = (
{
closed = 1;
nodes = (
(651,-13,o),
(745,82,o),
(745,234,cs),
(745,387,o),
(653,479,o),
(498,479,cs),
(55,479,l),
(55,393,l),
(381,393,l),
(369,415,l),
(307,383,o),
(276,309,o),
(276,229,cs),
(276,79,o),
(367,-13,o),
(510,-13,cs)
);
},
{
closed = 1;
nodes = (
(421,70,o),
(370,132,o),
(370,233,cs),
(370,332,o),
(421,397,o),
(509,397,cs),
(599,397,o),
(650,333,o),
(650,233,cs),
(650,132,o),
(599,70,o),
(510,70,cs)
);
}
);
width = 805;
}
);
metricRight = "=|ke-canadian";
note = uni14C0;
unicode = 5312;
},
{
glyphname = "ni-canadian";
kernRight = niright;
lastChange = "2023-01-13 15:53:22 +0000";
layers = (
{
anchors = (
{
name = middle_center_can;
pos = (296,245);
},
{
name = top_center_can;
pos = (308,497);
},
{
name = top_left_can;
pos = (107,497);
},
{
name = top_right_can;
pos = (701,497);
}
);
layerId = "F8006AA5-6E21-4BD1-AC52-9C52C7F343AA";
shapes = (
{
closed = 1;
nodes = (
(438,-13,o),
(528,79,o),
(528,230,cs),
(528,310,o),
(497,384,o),
(435,416,c),
(424,393,l),
(750,393,l),
(750,479,l),
(308,479,ls),
(151,479,o),
(60,382,o),
(60,232,cs),
(60,81,o),
(154,-13,o),
(295,-13,cs)
);
},
{
closed = 1;
nodes = (
(206,70,o),
(155,132,o),
(155,234,cs),
(155,334,o),
(206,397,o),
(296,397,cs),
(384,397,o),
(435,332,o),
(435,234,cs),
(435,132,o),
(384,70,o),
(295,70,cs)
);
}
);
width = 805;
}
);
metricLeft = "ke-canadian";
metricRight = "=|ne-canadian";
note = uni14C2;
unicode = 5314;
},
{
glyphname = "no-canadian";
kernLeft = noleft;
lastChange = "2023-01-13 15:53:22 +0000";
layers = (
{
anchors = (
{
name = middle_center_can;
pos = (510,245);
},
{
name = top_center_can;
pos = (507,497);
},
{
name = top_double;
pos = (510,497);
},
{
name = top_left_can;
pos = (103,497);
},
{
name = top_right_can;
pos = (698,497);
}
);
layerId = "F8006AA5-6E21-4BD1-AC52-9C52C7F343AA";
shapes = (
{
closed = 1;
nodes = (
(502,0,ls),
(654,0,o),
(745,94,o),
(745,245,cs),
(745,397,o),
(652,492,o),
(510,492,cs),
(368,492,o),
(276,398,o),
(276,249,cs),
(276,170,o),
(307,97,o),
(369,64,c),
(381,86,l),
(55,86,l),
(55,0,l)
);
},
{
closed = 1;
nodes = (
(421,82,o),
(370,147,o),
(370,245,cs),
(370,347,o),
(421,410,o),
(510,410,cs),
(599,410,o),
(650,347,o),
(650,245,cs),
(650,145,o),
(599,82,o),
(509,82,cs)
);
}
);
width = 805;
}
);
metricLeft = "ne-canadian";
metricRight = "=|ke-canadian";
note = uni14C4;
unicode = 5316;
},
{
glyphname = "na-canadian";
kernRight = naright;
lastChange = "2023-01-13 15:53:22 +0000";
layers = (
{
anchors = (
{
name = middle_center_can;
pos = (296,245);
},
{
name = top_center_can;
pos = (298,497);
},
{
name = top_double;
pos = (453,497);
},
{
name = top_left_can;
pos = (107,497);
},
{
name = top_right_can;
pos = (701,497);
}
);
layerId = "F8006AA5-6E21-4BD1-AC52-9C52C7F343AA";
shapes = (
{
closed = 1;
nodes = (
(750,0,l),
(750,86,l),
(424,86,l),
(436,62,l),
(497,96,o),
(528,169,o),
(528,249,cs),
(528,399,o),
(438,492,o),
(295,492,cs),
(154,492,o),
(60,397,o),
(60,244,cs),
(60,96,o),
(150,0,o),
(304,0,cs)
);
},
{
closed = 1;
nodes = (
(206,82,o),
(155,145,o),
(155,245,cs),
(155,347,o),
(206,410,o),
(295,410,cs),
(384,410,o),
(435,347,o),
(435,245,cs),
(435,147,o),
(384,82,o),
(296,82,cs)
);
}
);
width = 805;
}
);
metricLeft = "ke-canadian";
metricRight = "=|ne-canadian";
note = uni14C7;
unicode = 5319;
},
{
glyphname = "n-canadian";
kernLeft = mwestleft;
kernRight = mwestright;
lastChange = "2023-01-13 15:53:22 +0000";
layers = (
{
layerId = "F8006AA5-6E21-4BD1-AC52-9C52C7F343AA";
shapes = (
{
closed = 1;
nodes = (
(431,435,l),
(431,497,l),
(249,497,l),
(252,469,l),
(284,481,o),
(306,522,o),
(306,569,cs),
(306,646,o),
(257,696,o),
(181,696,cs),
(105,696,o),
(54,645,o),
(54,566,cs),
(54,487,o),
(104,435,o),
(186,435,cs)
);
},
{
closed = 1;
nodes = (
(142,485,o),
(115,515,o),
(115,566,cs),
(115,616,o),
(142,645,o),
(181,645,cs),
(219,645,o),
(245,616,o),
(245,565,cs),
(245,515,o),
(219,485,o),
(181,485,cs)
);
}
);
width = 478;
}
);
metricLeft = "=|k-canadian";
note = uni14D0;
unicode = 5328;
},
{
glyphname = "nh-canadian";
kernLeft = mwestleft;
kernRight = mwestright;
lastChange = "2023-01-13 15:53:22 +0000";
layers = (
{
layerId = "F8006AA5-6E21-4BD1-AC52-9C52C7F343AA";
shapes = (
{
closed = 1;
nodes = (
(293,435,ls),
(374,435,o),
(424,487,o),
(424,566,cs),
(424,645,o),
(373,696,o),
(298,696,cs),
(221,696,o),
(172,646,o),
(172,569,cs),
(172,522,o),
(194,481,o),
(226,469,c),
(229,497,l),
(47,497,l),
(47,435,l)
);
},
{
closed = 1;
nodes = (
(259,485,o),
(233,515,o),
(233,565,cs),
(233,616,o),
(260,645,o),
(298,645,cs),
(336,645,o),
(363,616,o),
(363,566,cs),
(363,515,o),
(336,485,o),
(298,485,cs)
);
}
);
width = 478;
}
);
metricLeft = "=|n-canadian";
metricRight = "=|n-canadian";
note = uni14D2;
unicode = 5330;
},
{
glyphname = "le-canadian";
kernLeft = neleft;
lastChange = "2023-01-13 15:53:22 +0000";
layers = (
{
anchors = (
{
name = middle_center_can;
pos = (510,245);
},
{
name = top_center_can;
pos = (499,497);
},
{
name = top_left_can;
pos = (103,497);
},
{
name = top_right_can;
pos = (697,497);
}
);
layerId = "F8006AA5-6E21-4BD1-AC52-9C52C7F343AA";
shapes = (
{
closed = 1;
nodes = (
(495,0,ls),
(648,0,o),
(745,91,o),
(745,240,cs),
(745,388,o),
(655,479,o),
(493,479,cs),
(55,479,l),
(55,392,l),
(492,392,ls),
(593,392,o),
(650,336,o),
(650,239,cs),
(650,141,o),
(591,85,o),
(490,85,cs),
(441,85,l),
(441,0,l)
);
}
);
width = 805;
}
);
metricLeft = "ne-canadian";
metricRight = "=|ke-canadian";
note = uni14D3;
unicode = 5331;
},
{
glyphname = "li-canadian";
kernRight = niright;
lastChange = "2023-01-13 15:53:22 +0000";
layers = (
{
anchors = (
{
name = middle_center_can;
pos = (296,245);
},
{
name = top_center_can;
pos = (308,497);
},
{
name = top_left_can;
pos = (107,497);
},
{
name = top_right_can;
pos = (701,497);
}
);
layerId = "F8006AA5-6E21-4BD1-AC52-9C52C7F343AA";
shapes = (
{
closed = 1;
nodes = (
(363,0,l),
(363,85,l),
(315,85,ls),
(211,85,o),
(156,141,o),
(156,238,cs),
(156,331,o),
(206,392,o),
(314,392,cs),
(750,392,l),
(750,479,l),
(312,479,ls),
(151,479,o),
(60,384,o),
(60,238,cs),
(60,91,o),
(156,0,o),
(310,0,cs)
);
}
);
width = 805;
}
);
metricLeft = "ke-canadian";
metricRight = "=|ne-canadian";
note = uni14D5;
unicode = 5333;
},
{
glyphname = "lo-canadian";
kernLeft = noleft;
lastChange = "2023-01-13 15:53:22 +0000";
layers = (
{
anchors = (
{
name = middle_center_can;
pos = (510,245);
},
{
name = top_center_can;
pos = (507,497);
},
{
name = top_double;
pos = (496,497);
},
{
name = top_left_can;
pos = (103,497);
},
{
name = top_right_can;
pos = (697,497);
}
);
layerId = "F8006AA5-6E21-4BD1-AC52-9C52C7F343AA";
shapes = (
{
closed = 1;
nodes = (
(491,0,ls),
(652,0,o),
(745,91,o),
(745,241,cs),
(745,389,o),
(649,479,o),
(496,479,cs),
(441,479,l),
(441,394,l),
(490,394,ls),
(594,394,o),
(650,338,o),
(650,242,cs),
(650,143,o),
(594,87,o),
(491,87,cs),
(55,87,l),
(55,0,l)
);
}
);
width = 805;
}
);
metricLeft = "ne-canadian";
metricRight = "=|ke-canadian";
note = uni14D7;
unicode = 5335;
},
{
glyphname = "la-canadian";
kernRight = naright;
lastChange = "2023-01-13 15:53:22 +0000";
layers = (
{
anchors = (
{
name = middle_center_can;
pos = (296,245);
},
{
name = top_center_can;
pos = (298,497);
},
{
name = top_left_can;
pos = (107,497);
},
{
name = top_right_can;
pos = (701,497);
}
);
layerId = "F8006AA5-6E21-4BD1-AC52-9C52C7F343AA";
shapes = (
{
closed = 1;
nodes = (
(750,0,l),
(750,87,l),
(316,87,ls),
(211,87,o),
(156,143,o),
(156,241,cs),
(156,338,o),
(210,394,o),
(312,394,cs),
(363,394,l),
(363,479,l),
(311,479,ls),
(153,479,o),
(60,387,o),
(60,240,cs),
(60,89,o),
(155,0,o),
(314,0,cs)
);
}
);
width = 805;
}
);
metricLeft = "ke-canadian";
metricRight = "=|ne-canadian";
note = uni14DA;
unicode = 5338;
},
{
glyphname = "l-canadian";
kernLeft = mwestleft;
kernRight = mwestright;
lastChange = "2023-01-13 15:53:22 +0000";
layers = (
{
layerId = "F8006AA5-6E21-4BD1-AC52-9C52C7F343AA";
shapes = (
{
closed = 1;
nodes = (
(426,345,l),
(426,409,l),
(242,409,ls),
(165,409,o),
(128,446,o),
(128,518,cs),
(128,588,o),
(165,628,o),
(239,628,cs),
(253,628,l),
(253,690,l),
(234,690,ls),
(124,690,o),
(60,624,o),
(60,517,cs),
(60,411,o),
(124,345,o),
(235,345,cs)
);
}
);
width = 473;
}
);
metricLeft = "t-canadian";
metricRight = "m-canadian";
note = uni14EA;
unicode = 5354;
},
{
glyphname = "lWestCree-canadian";
kernLeft = mwestleft;
kernRight = mwestright;
lastChange = "2023-01-13 15:53:22 +0000";
layers = (
{
layerId = "F8006AA5-6E21-4BD1-AC52-9C52C7F343AA";
shapes = (
{
closed = 1;
nodes = (
(304,345,l),
(304,389,l),
(119,464,l),
(119,431,l),
(304,502,l),
(304,532,l),
(119,604,l),
(119,571,l),
(304,644,l),
(304,690,l),
(291,690,l),
(64,600,l),
(64,576,l),
(253,504,l),
(253,529,l),
(64,459,l),
(64,434,l),
(291,345,l)
);
}
);
width = 368;
}
);
metricRight = "=|";
note = uni14EB;
unicode = 5355;
},
{
glyphname = "mediall-canadian";
lastChange = "2023-01-13 15:53:22 +0000";
layers = (
{
layerId = "F8006AA5-6E21-4BD1-AC52-9C52C7F343AA";
shapes = (
{
closed = 1;
nodes = (
(569,-13,l),
(569,58,l),
(165,215,l),
(165,172,l),
(569,324,l),
(569,365,l),
(165,518,l),
(165,474,l),
(569,632,l),
(569,702,l),
(544,702,l),
(70,517,l),
(70,479,l),
(473,327,l),
(473,362,l),
(70,211,l),
(70,173,l),
(544,-13,l)
);
}
);
width = 639;
}
);
metricRight = "=|";
note = uni14EC;
unicode = 5356;
},
{
glyphname = "se-canadian";
kernRight = seright;
lastChange = "2023-01-13 15:53:22 +0000";
layers = (
{
anchors = (
{
name = top_left_can;
pos = (122,690);
},
{
name = top_right_can;
pos = (416,690);
}
);
layerId = "F8006AA5-6E21-4BD1-AC52-9C52C7F343AA";
shapes = (
{
closed = 1;
nodes = (
(464,0,l),
(464,332,l),
(425,332,ls),
(257,332,o),
(170,414,o),
(170,596,cs),
(170,690,l),
(73,690,l),
(73,586,ls),
(73,367,o),
(197,246,o),
(407,246,cs),
(439,246,l),
(368,281,l),
(368,0,l)
);
}
);
width = 539;
}
);
note = uni14ED;
unicode = 5357;
},
{
glyphname = "si-canadian";
kernLeft = sileft;
lastChange = "2023-01-13 15:53:22 +0000";
layers = (
{
anchors = (
{
name = top_left_can;
pos = (124,690);
},
{
name = top_right_can;
pos = (418,690);
}
);
layerId = "F8006AA5-6E21-4BD1-AC52-9C52C7F343AA";
shapes = (
{
closed = 1;
nodes = (
(172,0,l),
(172,281,l),
(100,246,l),
(133,246,ls),
(342,246,o),
(466,367,o),
(466,586,cs),
(466,690,l),
(370,690,l),
(370,596,ls),
(370,414,o),
(283,332,o),
(114,332,cs),
(75,332,l),
(75,0,l)
);
}
);
width = 539;
}
);
metricLeft = "=|se-canadian";
metricRight = "=|se-canadian";
note = uni14EF;
unicode = 5359;
},
{
glyphname = "so-canadian";
kernRight = soright;
lastChange = "2023-01-13 15:53:22 +0000";
layers = (
{
anchors = (
{
name = top_double;
pos = (416,690);
},
{
name = top_left_can;
pos = (122,690);
},
{
name = top_right_can;
pos = (415,690);
}
);
layerId = "F8006AA5-6E21-4BD1-AC52-9C52C7F343AA";
shapes = (
{
closed = 1;
nodes = (
(170,0,l),
(170,94,ls),
(170,275,o),
(257,357,o),
(425,357,cs),
(464,357,l),
(464,690,l),
(368,690,l),
(368,409,l),
(439,443,l),
(407,443,ls),
(197,443,o),
(73,323,o),
(73,103,cs),
(73,0,l)
);
}
);
width = 539;
}
);
metricLeft = "se-canadian";
metricRight = "se-canadian";
note = uni14F1;
unicode = 5361;
},
{
glyphname = "sa-canadian";
kernLeft = saleft;
kernRight = saright;
lastChange = "2023-01-13 15:53:22 +0000";
layers = (
{
anchors = (
{
name = top_left_can;
pos = (125,690);
},
{
name = top_right_can;
pos = (418,690);
}
);
layerId = "F8006AA5-6E21-4BD1-AC52-9C52C7F343AA";
shapes = (
{
closed = 1;
nodes = (
(466,0,l),
(466,103,ls),
(466,323,o),
(342,443,o),
(133,443,cs),
(100,443,l),
(172,409,l),
(172,690,l),
(75,690,l),
(75,357,l),
(114,357,ls),
(283,357,o),
(370,275,o),
(370,94,cs),
(370,0,l)
);
}
);
width = 539;
}
);
metricLeft = "=|se-canadian";
metricRight = "=|se-canadian";
note = uni14F4;
unicode = 5364;
},
{
glyphname = "s-canadian";
kernLeft = mwestleft;
kernRight = mwestright;
lastChange = "2023-01-13 15:53:52 +0000";
layers = (
{
layerId = "F8006AA5-6E21-4BD1-AC52-9C52C7F343AA";
shapes = (
{
closed = 1;
nodes = (
(294,345,l),
(294,400,ls),
(294,509,o),
(233,580,o),
(127,580,cs),
(91,580,l),
(132,549,l),
(132,690,l),
(64,690,l),
(64,525,l),
(101,525,ls),
(186,525,o),
(225,482,o),
(225,396,cs),
(225,345,l)
);
}
);
width = 358;
}
);
metricRight = "=|";
note = uni1505;
unicode = 5381;
},
{
color = 6;
glyphname = "sAthapascan-canadian";
lastChange = "2023-01-13 15:53:22 +0000";
layers = (
{
layerId = "F8006AA5-6E21-4BD1-AC52-9C52C7F343AA";
shapes = (
{
closed = 1;
nodes = (
(269,177,o),
(316,218,o),
(316,274,cs),
(316,317,o),
(294,347,o),
(242,365,cs),
(169,390,ls),
(139,402,o),
(129,414,o),
(129,436,cs),
(129,465,o),
(151,484,o),
(191,484,cs),
(232,484,o),
(255,466,o),
(256,424,c),
(316,424,l),
(315,493,o),
(269,533,o),
(191,533,cs),
(117,533,o),
(70,493,o),
(70,436,cs),
(70,392,o),
(94,360,o),
(141,344,cs),
(215,319,ls),
(244,307,o),
(256,296,o),
(256,272,cs),
(256,243,o),
(233,226,o),
(192,226,cs),
(149,226,o),
(126,244,o),
(124,288,c),
(64,288,l),
(66,216,o),
(111,177,o),
(191,177,cs)
);
}
);
width = 380;
}
);
metricRight = "=|";
note = uni1506;
unicode = 5382;
},
{
glyphname = "sw-canadian";
kernLeft = mwestleft;
kernRight = mwestright;
lastChange = "2023-01-13 15:53:52 +0000";
layers = (
{
layerId = "F8006AA5-6E21-4BD1-AC52-9C52C7F343AA";
shapes = (
{
closed = 1;
nodes = (
(132,345,l),
(132,396,ls),
(132,482,o),
(171,525,o),
(256,525,cs),
(294,525,l),
(294,690,l),
(225,690,l),
(225,549,l),
(267,580,l),
(231,580,ls),
(125,580,o),
(64,509,o),
(64,400,cs),
(64,345,l)
);
}
);
width = 358;
}
);
metricLeft = "=|s-canadian";
metricRight = "=|s-canadian";
note = uni1507;
unicode = 5383;
},
{
glyphname = "sBlackfoot-canadian";
lastChange = "2023-01-13 15:53:52 +0000";
layers = (
{
layerId = "F8006AA5-6E21-4BD1-AC52-9C52C7F343AA";
shapes = (
{
closed = 1;
nodes = (
(299,345,l),
(299,409,l),
(213,409,ls),
(158,409,o),
(132,435,o),
(132,493,cs),
(132,690,l),
(64,690,l),
(64,485,ls),
(64,394,o),
(113,345,o),
(204,345,c)
);
}
);
width = 346;
}
);
metricLeft = "ai-canadian";
metricRight = "m-canadian";
note = uni1508;
unicode = 5384;
},
{
glyphname = "moosecreesk-canadian";
kernLeft = mwestleft;
kernRight = mwestright;
lastChange = "2023-01-13 15:53:22 +0000";
layers = (
{
layerId = "F8006AA5-6E21-4BD1-AC52-9C52C7F343AA";
shapes = (
{
closed = 1;
nodes = (
(264,217,o),
(319,270,o),
(319,367,cs),
(319,503,o),
(257,580,o),
(133,580,cs),
(101,580,l),
(134,549,l),
(134,690,l),
(66,690,l),
(66,525,l),
(116,525,ls),
(213,525,o),
(243,484,o),
(251,417,c),
(271,411,l),
(263,448,o),
(230,477,o),
(185,477,cs),
(115,477,o),
(65,427,o),
(65,350,cs),
(65,267,o),
(120,217,o),
(189,217,cs)
);
},
{
closed = 1;
nodes = (
(152,268,o),
(125,298,o),
(125,349,cs),
(125,400,o),
(153,429,o),
(191,429,cs),
(229,429,o),
(256,399,o),
(256,349,cs),
(256,298,o),
(231,268,o),
(190,268,cs)
);
}
);
width = 384;
}
);
metricRight = "=|";
note = uni1509;
unicode = 5385;
},
{
glyphname = "skwNaskapi-canadian";
kernLeft = mwestleft;
kernRight = mwestright;
lastChange = "2023-01-13 15:53:22 +0000";
layers = (
{
layerId = "F8006AA5-6E21-4BD1-AC52-9C52C7F343AA";
shapes = (
{
closed = 1;
nodes = (
(264,217,o),
(319,267,o),
(319,350,cs),
(319,427,o),
(269,477,o),
(198,477,cs),
(154,477,o),
(121,448,o),
(112,411,c),
(132,417,l),
(140,484,o),
(170,525,o),
(268,525,cs),
(318,525,l),
(318,690,l),
(249,690,l),
(249,549,l),
(282,580,l),
(250,580,ls),
(127,580,o),
(65,503,o),
(65,367,cs),
(65,270,o),
(120,217,o),
(193,217,cs)
);
},
{
closed = 1;
nodes = (
(153,268,o),
(128,298,o),
(128,349,cs),
(128,399,o),
(156,429,o),
(192,429,cs),
(231,429,o),
(258,400,o),
(258,349,cs),
(258,298,o),
(231,268,o),
(193,268,cs)
);
}
);
width = 384;
}
);
metricLeft = "=|moosecreesk-canadian";
metricRight = "=|moosecreesk-canadian";
note = uni150A;
unicode = 5386;
},
{
glyphname = "swNaskapi-canadian";
lastChange = "2023-01-13 15:53:22 +0000";
layers = (
{
layerId = "F8006AA5-6E21-4BD1-AC52-9C52C7F343AA";
shapes = (
{
closed = 1;
nodes = (
(311,183,l),
(311,232,ls),
(311,336,o),
(250,406,o),
(144,406,cs),
(114,406,l),
(145,376,l),
(145,508,l),
(76,508,l),
(76,351,l),
(119,351,ls),
(204,351,o),
(242,311,o),
(242,229,cs),
(242,183,l)
);
},
{
closed = 1;
nodes = (
(306,41,o),
(330,65,o),
(330,95,cs),
(330,125,o),
(306,148,o),
(277,148,cs),
(247,148,o),
(224,125,o),
(224,95,cs),
(224,65,o),
(247,41,o),
(277,41,cs)
);
},
{
closed = 1;
nodes = (
(140,542,o),
(164,566,o),
(164,596,cs),
(164,626,o),
(140,649,o),
(111,649,cs),
(81,649,o),
(58,626,o),
(58,596,cs),
(58,566,o),
(81,542,o),
(111,542,cs)
);
}
);
width = 388;
}
);
metricRight = "=|";
note = uni150B;
unicode = 5387;
},
{
glyphname = "spwaNaskapi-canadian";
lastChange = "2023-01-13 15:53:22 +0000";
layers = (
{
layerId = "F8006AA5-6E21-4BD1-AC52-9C52C7F343AA";
shapes = (
{
closed = 1;
nodes = (
(596,0,l),
(596,89,l),
(141,366,l),
(141,323,l),
(596,600,l),
(596,690,l),
(571,690,l),
(34,362,l),
(34,327,l),
(571,0,l)
);
},
{
closed = 1;
nodes = (
(156,492,o),
(180,515,o),
(180,545,cs),
(180,575,o),
(156,598,o),
(127,598,cs),
(98,598,o),
(73,575,o),
(73,545,cs),
(73,515,o),
(98,492,o),
(127,492,cs)
);
},
{
closed = 1;
nodes = (
(347,603,l),
(347,644,ls),
(347,725,o),
(303,776,o),
(223,776,cs),
(198,776,l),
(239,751,l),
(239,850,l),
(172,850,l),
(172,725,l),
(200,725,ls),
(254,725,o),
(280,696,o),
(280,640,cs),
(280,603,l)
);
},
{
closed = 1;
nodes = (
(508,704,o),
(532,728,o),
(532,758,cs),
(532,788,o),
(508,811,o),
(479,811,cs),
(450,811,o),
(426,788,o),
(426,758,cs),
(426,728,o),
(450,704,o),
(479,704,cs)
);
}
);
width = 649;
}
);
metricRight = "pa-canadian";
metricWidth = "pa-canadian";
note = uni150C;
unicode = 5388;
},
{
glyphname = "she-canadian";
kernRight = caright;
lastChange = "2023-01-13 15:53:22 +0000";
layers = (
{
anchors = (
{
name = top_left_can;
pos = (282,690);
},
{
name = top_right_can;
pos = (699,690);
}
);
layerId = "F8006AA5-6E21-4BD1-AC52-9C52C7F343AA";
shapes = (
{
closed = 1;
nodes = (
(764,-13,o),
(845,79,o),
(845,242,cs),
(845,302,l),
(750,302,l),
(750,237,ls),
(750,127,o),
(706,71,o),
(630,71,cs),
(550,71,o),
(512,128,o),
(505,238,cs),
(494,451,ls),
(484,611,o),
(415,702,o),
(281,702,cs),
(144,702,o),
(60,610,o),
(60,448,cs),
(60,387,l),
(155,387,l),
(155,456,ls),
(155,561,o),
(200,618,o),
(277,618,cs),
(355,618,o),
(393,562,o),
(399,455,cs),
(411,239,ls),
(420,77,o),
(488,-13,o),
(627,-13,cs)
);
}
);
width = 905;
}
);
metricRight = "=|";
note = uni1510;
unicode = 5392;
},
{
glyphname = "shi-canadian";
kernLeft = coleft;
lastChange = "2023-01-13 15:53:22 +0000";
layers = (
{
anchors = (
{
name = top_left_can;
pos = (208,690);
},
{
name = top_right_can;
pos = (625,690);
}
);
layerId = "F8006AA5-6E21-4BD1-AC52-9C52C7F343AA";
shapes = (
{
closed = 1;
nodes = (
(417,-13,o),
(485,77,o),
(494,239,cs),
(505,455,ls),
(512,562,o),
(551,618,o),
(627,618,cs),
(705,618,o),
(750,561,o),
(750,456,cs),
(750,387,l),
(845,387,l),
(845,448,ls),
(845,610,o),
(761,702,o),
(623,702,cs),
(489,702,o),
(420,611,o),
(411,451,cs),
(399,238,ls),
(392,128,o),
(355,71,o),
(275,71,cs),
(198,71,o),
(155,127,o),
(155,237,cs),
(155,302,l),
(60,302,l),
(60,242,ls),
(60,79,o),
(141,-13,o),
(277,-13,cs)
);
}
);
width = 905;
}
);
metricLeft = "she-canadian";
metricRight = "she-canadian";
note = uni1511;
unicode = 5393;
},
{
glyphname = "sho-canadian";
lastChange = "2023-01-13 15:53:22 +0000";
layers = (
{
anchors = (
{
name = top_center_can;
pos = (464,497);
},
{
name = top_left_can;
pos = (278,497);
},
{
name = top_right_can;
pos = (649,497);
}
);
layerId = "F8006AA5-6E21-4BD1-AC52-9C52C7F343AA";
shapes = (
{
closed = 1;
nodes = (
(345,69,l),
(219,69,o),
(155,107,o),
(155,182,cs),
(155,238,o),
(187,274,o),
(258,274,cs),
(384,274,o),
(517,121,o),
(678,121,cs),
(796,121,o),
(867,189,o),
(867,294,cs),
(867,420,o),
(763,493,o),
(586,492,c),
(583,411,l),
(708,411,o),
(774,372,o),
(774,298,cs),
(774,241,o),
(740,205,o),
(669,205,cs),
(545,205,o),
(411,358,o),
(250,358,cs),
(132,358,o),
(60,289,o),
(60,185,cs),
(60,59,o),
(165,-14,o),
(341,-13,c)
);
}
);
width = 927;
}
);
metricLeft = "ke-canadian";
metricRight = "=|ke-canadian";
note = uni1513;
unicode = 5395;
},
{
glyphname = "sha-canadian";
lastChange = "2023-01-13 15:53:22 +0000";
layers = (
{
anchors = (
{
name = top_center_can;
pos = (464,497);
},
{
name = top_left_can;
pos = (278,497);
},
{
name = top_right_can;
pos = (649,497);
}
);
layerId = "F8006AA5-6E21-4BD1-AC52-9C52C7F343AA";
shapes = (
{
closed = 1;
nodes = (
(763,-14,o),
(867,59,o),
(867,185,cs),
(867,289,o),
(798,358,o),
(678,358,cs),
(517,358,o),
(384,205,o),
(258,205,cs),
(187,205,o),
(155,241,o),
(155,298,cs),
(155,372,o),
(219,412,o),
(345,411,c),
(341,492,l),
(165,494,o),
(60,420,o),
(60,295,cs),
(60,189,o),
(130,121,o),
(250,121,cs),
(411,121,o),
(545,274,o),
(669,274,cs),
(740,274,o),
(774,238,o),
(774,182,cs),
(774,107,o),
(708,67,o),
(583,69,c),
(586,-13,l)
);
}
);
width = 927;
}
);
metricLeft = "ke-canadian";
metricRight = "=|ke-canadian";
note = uni1515;
unicode = 5397;
},
{
glyphname = "sh-canadian";
kernLeft = mwestleft;
kernRight = mwestright;
lastChange = "2023-01-13 15:53:22 +0000";
layers = (
{
layerId = "F8006AA5-6E21-4BD1-AC52-9C52C7F343AA";
shapes = (
{
closed = 1;
nodes = (
(576,289,o),
(659,345,o),
(659,443,cs),
(659,522,o),
(604,579,o),
(513,579,cs),
(392,579,o),
(306,472,o),
(212,472,cs),
(158,472,o),
(130,500,o),
(130,545,cs),
(130,604,o),
(182,637,o),
(274,637,c),
(271,697,l),
(143,697,o),
(60,641,o),
(60,543,cs),
(60,465,o),
(116,408,o),
(206,408,cs),
(327,408,o),
(413,514,o),
(508,514,cs),
(561,514,o),
(589,486,o),
(589,441,cs),
(589,383,o),
(538,350,o),
(445,350,c),
(447,289,l)
);
}
);
width = 719;
}
);
metricLeft = "t-canadian";
metricRight = "=|";
note = uni1525;
unicode = 5413;
},
{
glyphname = "ye-canadian";
kernLeft = yeleft;
lastChange = "2023-01-13 15:53:22 +0000";
layers = (
{
anchors = (
{
name = middle_right_can;
pos = (639,345);
},
{
name = top_left_can;
pos = (89,690);
},
{
name = top_right_can;
pos = (447,690);
}
);
layerId = "F8006AA5-6E21-4BD1-AC52-9C52C7F343AA";
shapes = (
{
closed = 1;
nodes = (
(495,0,l),
(495,326,l),
(159,326,l),
(161,276,l),
(510,643,l),
(445,701,l),
(42,270,l),
(42,241,l),
(399,241,l),
(399,0,l)
);
}
);
width = 570;
}
);
note = uni1526;
unicode = 5414;
},
{
glyphname = "yi-canadian";
kernRight = yiright;
lastChange = "2023-01-13 15:53:22 +0000";
layers = (
{
anchors = (
{
name = top_left_can;
pos = (124,690);
},
{
name = top_right_can;
pos = (481,690);
}
);
layerId = "F8006AA5-6E21-4BD1-AC52-9C52C7F343AA";
shapes = (
{
closed = 1;
nodes = (
(172,0,l),
(172,241,l),
(528,241,l),
(528,270,l),
(126,701,l),
(62,644,l),
(411,277,l),
(412,326,l),
(76,326,l),
(76,0,l)
);
}
);
width = 570;
}
);
metricRight = "=|ye-canadian";
metricWidth = "ye-canadian";
note = uni1528;
unicode = 5416;
},
{
glyphname = "yo-canadian";
kernLeft = yoleft;
lastChange = "2023-01-13 15:53:22 +0000";
layers = (
{
anchors = (
{
name = middle_right_can;
pos = (639,345);
},
{
name = top_double;
pos = (447,690);
},
{
name = top_left_can;
pos = (89,690);
},
{
name = top_right_can;
pos = (447,690);
}
);
layerId = "F8006AA5-6E21-4BD1-AC52-9C52C7F343AA";
shapes = (
{
closed = 1;
nodes = (
(509,45,l),
(160,412,l),
(158,364,l),
(495,364,l),
(495,690,l),
(399,690,l),
(399,449,l),
(42,449,l),
(42,419,l),
(445,-12,l)
);
}
);
width = 570;
}
);
metricLeft = "ye-canadian";
metricWidth = "ye-canadian";
note = uni152A;
unicode = 5418;
},
{
glyphname = "ya-canadian";
kernRight = yaright;
lastChange = "2023-01-13 15:53:22 +0000";
layers = (
{
anchors = (
{
name = top_left_can;
pos = (125,690);
},
{
name = top_right_can;
pos = (481,690);
}
);
layerId = "F8006AA5-6E21-4BD1-AC52-9C52C7F343AA";
shapes = (
{
closed = 1;
nodes = (
(528,419,l),
(528,449,l),
(172,449,l),
(172,690,l),
(76,690,l),
(76,364,l),
(412,364,l),
(410,413,l),
(61,46,l),
(126,-12,l)
);
}
);
width = 570;
}
);
metricRight = "=|ye-canadian";
metricWidth = "ye-canadian";
note = uni152D;
unicode = 5421;
},
{
glyphname = "y-canadian";
kernLeft = mwestleft;
kernRight = mwestright;
lastChange = "2023-01-13 15:53:22 +0000";
layers = (
{
layerId = "F8006AA5-6E21-4BD1-AC52-9C52C7F343AA";
shapes = (
{
closed = 1;
nodes = (
(305,550,l),
(305,569,l),
(133,569,l),
(133,690,l),
(66,690,l),
(66,514,l),
(235,514,l),
(234,556,l),
(64,374,l),
(110,336,l)
);
}
);
width = 342;
}
);
note = uni153E;
unicode = 5438;
},
{
glyphname = "biblecreey-canadian";
lastChange = "2023-01-13 15:53:22 +0000";
layers = (
{
layerId = "F8006AA5-6E21-4BD1-AC52-9C52C7F343AA";
shapes = (
{
closed = 1;
nodes = (
(184,618,l),
(146,618,l),
(241,345,l),
(281,345,l),
(376,618,l),
(338,618,l),
(406,345,l),
(466,345,l),
(466,361,l),
(386,690,l),
(341,690,l),
(243,410,l),
(278,410,l),
(181,690,l),
(136,690,l),
(56,361,l),
(56,345,l),
(116,345,l)
);
}
);
width = 522;
}
);
metricRight = "=|";
note = uni153F;
unicode = 5439;
},
{
glyphname = "yWestCree-canadian";
lastChange = "2023-01-13 15:53:52 +0000";
layers = (
{
layerId = "F8006AA5-6E21-4BD1-AC52-9C52C7F343AA";
shapes = (
{
closed = 1;
nodes = (
(257,188,l),
(257,322,l),
(384,322,l),
(384,386,l),
(257,386,l),
(257,516,l),
(189,516,l),
(189,386,l),
(62,386,l),
(62,322,l),
(189,322,l),
(189,188,l)
);
}
);
width = 446;
}
);
metricLeft = "shorthorizontalstrokeFinal-canadian";
metricRight = "shorthorizontalstrokeFinal-canadian";
note = uni1540;
unicode = 5440;
},
{
glyphname = "re-canadian";
kernRight = niright;
lastChange = "2023-01-13 15:53:22 +0000";
layers = (
{
anchors = (
{
name = top_center_can;
pos = (301,497);
},
{
name = top_left_can;
pos = (120,497);
},
{
name = top_right_can;
pos = (748,497);
}
);
layerId = "F8006AA5-6E21-4BD1-AC52-9C52C7F343AA";
shapes = (
{
closed = 1;
nodes = (
(444,-13,o),
(528,82,o),
(528,235,cs),
(528,393,l),
(795,393,l),
(795,479,l),
(435,479,l),
(435,236,ls),
(435,129,o),
(387,71,o),
(301,71,cs),
(214,71,o),
(168,129,o),
(168,236,cs),
(168,479,l),
(71,479,l),
(71,235,ls),
(71,81,o),
(157,-13,o),
(301,-13,cs)
);
}
);
width = 850;
}
);
metricRight = "=|ne-canadian";
note = uni1542;
unicode = 5442;
},
{
glyphname = "reRCree-canadian";
kernLeft = neleft;
lastChange = "2023-01-13 15:53:22 +0000";
layers = (
{
anchors = (
{
name = top_center_can;
pos = (549,497);
},
{
name = top_left_can;
pos = (102,497);
},
{
name = top_right_can;
pos = (730,497);
}
);
layerId = "F8006AA5-6E21-4BD1-AC52-9C52C7F343AA";
shapes = (
{
closed = 1;
nodes = (
(694,-13,o),
(779,81,o),
(779,235,cs),
(779,479,l),
(683,479,l),
(683,236,ls),
(683,129,o),
(637,71,o),
(550,71,cs),
(464,71,o),
(415,128,o),
(415,233,cs),
(415,479,l),
(55,479,l),
(55,393,l),
(322,393,l),
(322,233,ls),
(322,81,o),
(407,-13,o),
(550,-13,cs)
);
}
);
width = 850;
}
);
metricLeft = "ne-canadian";
metricRight = "=|re-canadian";
note = uni1543;
unicode = 5443;
},
{
glyphname = "leWestCree-canadian";
kernLeft = noleft;
lastChange = "2023-01-13 15:53:22 +0000";
layers = (
{
anchors = (
{
name = top_center_can;
pos = (549,497);
},
{
name = top_left_can;
pos = (102,497);
},
{
name = top_right_can;
pos = (730,497);
}
);
layerId = "F8006AA5-6E21-4BD1-AC52-9C52C7F343AA";
shapes = (
{
closed = 1;
nodes = (
(415,0,l),
(415,241,ls),
(415,350,o),
(463,409,o),
(550,409,cs),
(637,409,o),
(683,349,o),
(683,243,cs),
(683,0,l),
(779,0,l),
(779,244,ls),
(779,398,o),
(696,492,o),
(551,492,cs),
(408,492,o),
(322,396,o),
(322,242,cs),
(322,86,l),
(55,86,l),
(55,0,l)
);
}
);
width = 850;
}
);
metricLeft = "ne-canadian";
metricRight = "=|re-canadian";
note = uni1544;
unicode = 5444;
},
{
glyphname = "ri-canadian";
kernRight = naright;
lastChange = "2023-01-13 15:53:22 +0000";
layers = (
{
anchors = (
{
name = top_center_can;
pos = (301,497);
},
{
name = top_left_can;
pos = (120,497);
},
{
name = top_right_can;
pos = (748,497);
}
);
layerId = "F8006AA5-6E21-4BD1-AC52-9C52C7F343AA";
shapes = (
{
closed = 1;
nodes = (
(168,0,l),
(168,243,ls),
(168,349,o),
(213,409,o),
(300,409,cs),
(387,409,o),
(435,352,o),
(435,246,cs),
(435,0,l),
(795,0,l),
(795,86,l),
(528,86,l),
(528,247,ls),
(528,399,o),
(446,492,o),
(301,492,cs),
(158,492,o),
(71,398,o),
(71,242,cs),
(71,0,l)
);
}
);
width = 850;
}
);
metricLeft = "re-canadian";
metricRight = "=|ne-canadian";
note = uni1546;
unicode = 5446;
},
{
glyphname = "ro-canadian";
lastChange = "2023-01-13 15:53:22 +0000";
layers = (
{
anchors = (
{
name = top_center_can;
pos = (237,690);
}
);
layerId = "F8006AA5-6E21-4BD1-AC52-9C52C7F343AA";
shapes = (
{
closed = 1;
nodes = (
(172,0,l),
(172,269,l),
(145,241,l),
(244,241,ls),
(392,241,o),
(485,330,o),
(485,464,cs),
(485,603,o),
(396,690,o),
(231,690,cs),
(75,690,l),
(75,604,l),
(233,604,ls),
(334,604,o),
(389,551,o),
(389,465,cs),
(389,380,o),
(333,326,o),
(234,326,cs),
(75,326,l),
(75,0,l)
);
}
);
width = 543;
}
);
metricLeft = "nunavuth-canadian";
note = uni1548;
unicode = 5448;
},
{
glyphname = "loWestCree-canadian";
lastChange = "2023-01-13 15:53:22 +0000";
layers = (
{
anchors = (
{
name = top_center_can;
pos = (255,690);
},
{
name = top_left_can;
pos = (124,690);
}
);
layerId = "F8006AA5-6E21-4BD1-AC52-9C52C7F343AA";
shapes = (
{
closed = 1;
nodes = (
(231,0,ls),
(396,0,o),
(485,87,o),
(485,226,cs),
(485,360,o),
(392,449,o),
(244,449,cs),
(145,449,l),
(172,422,l),
(172,690,l),
(75,690,l),
(75,364,l),
(234,364,ls),
(333,364,o),
(389,310,o),
(389,225,cs),
(389,139,o),
(334,86,o),
(233,86,cs),
(75,86,l),
(75,0,l)
);
}
);
width = 543;
}
);
metricLeft = "nunavuth-canadian";
metricRight = "ro-canadian";
note = uni154A;
unicode = 5450;
},
{
glyphname = "ra-canadian";
lastChange = "2023-01-13 15:53:52 +0000";
layers = (
{
anchors = (
{
name = top_center_can;
pos = (306,690);
},
{
name = top_right_can;
pos = (419,690);
}
);
layerId = "F8006AA5-6E21-4BD1-AC52-9C52C7F343AA";
shapes = (
{
closed = 1;
nodes = (
(467,0,l),
(467,326,l),
(309,326,ls),
(210,326,o),
(154,380,o),
(154,465,cs),
(154,551,o),
(209,604,o),
(310,604,cs),
(467,604,l),
(467,690,l),
(312,690,ls),
(147,690,o),
(58,603,o),
(58,464,cs),
(58,330,o),
(151,241,o),
(298,241,cs),
(398,241,l),
(371,269,l),
(371,0,l)
);
}
);
width = 542;
}
);
metricLeft = "=|ro-canadian";
metricRight = "nunavuth-canadian";
note = uni154B;
unicode = 5451;
},
{
glyphname = "laWestCree-canadian";
lastChange = "2023-01-13 15:53:52 +0000";
layers = (
{
anchors = (
{
name = top_center_can;
pos = (419,690);
}
);
layerId = "F8006AA5-6E21-4BD1-AC52-9C52C7F343AA";
shapes = (
{
closed = 1;
nodes = (
(467,0,l),
(467,86,l),
(310,86,ls),
(209,86,o),
(154,139,o),
(154,225,cs),
(154,310,o),
(210,364,o),
(309,364,cs),
(467,364,l),
(467,690,l),
(371,690,l),
(371,422,l),
(398,449,l),
(298,449,ls),
(151,449,o),
(58,360,o),
(58,226,cs),
(58,87,o),
(147,0,o),
(312,0,cs)
);
}
);
width = 542;
}
);
metricLeft = "=|ro-canadian";
metricRight = "nunavuth-canadian";
note = uni154D;
unicode = 5453;
},
{
glyphname = "r-canadian";
kernLeft = mwestleft;
kernRight = mwestright;
lastChange = "2023-01-13 15:53:22 +0000";
layers = (
{
layerId = "F8006AA5-6E21-4BD1-AC52-9C52C7F343AA";
shapes = (
{
closed = 1;
nodes = (
(266,345,l),
(266,517,l),
(186,517,ls),
(140,517,o),
(118,538,o),
(118,576,cs),
(118,613,o),
(140,636,o),
(187,636,cs),
(266,636,l),
(266,690,l),
(187,690,ls),
(101,690,o),
(54,647,o),
(54,576,cs),
(54,507,o),
(102,463,o),
(180,463,cs),
(233,463,l),
(197,487,l),
(197,345,l)
);
}
);
width = 329;
}
);
metricLeft = "=|k-canadian";
note = uni1550;
unicode = 5456;
},
{
glyphname = "rWestCree-canadian";
kernLeft = mwestleft;
kernRight = mwestright;
lastChange = "2023-01-13 15:53:22 +0000";
layers = (
{
layerId = "F8006AA5-6E21-4BD1-AC52-9C52C7F343AA";
shapes = (
{
closed = 1;
nodes = (
(77,345,l),
(304,434,l),
(304,459,l),
(116,529,l),
(116,504,l),
(304,576,l),
(304,600,l),
(77,690,l),
(64,690,l),
(64,644,l),
(249,571,l),
(249,604,l),
(64,532,l),
(64,502,l),
(249,431,l),
(249,464,l),
(64,389,l),
(64,345,l)
);
}
);
width = 368;
}
);
metricLeft = "=|lWestCree-canadian";
metricRight = "=|lWestCree-canadian";
note = uni1551;
unicode = 5457;
},
{
glyphname = "rMedial-canadian";
lastChange = "2023-01-13 15:53:52 +0000";
layers = (
{
layerId = "F8006AA5-6E21-4BD1-AC52-9C52C7F343AA";
shapes = (
{
closed = 1;
nodes = (
(95,-13,l),
(574,173,l),
(574,210,l),
(168,360,l),
(168,328,l),
(574,480,l),
(574,517,l),
(95,702,l),
(70,702,l),
(70,633,l),
(478,475,l),
(478,519,l),
(70,366,l),
(70,323,l),
(478,171,l),
(478,215,l),
(70,58,l),
(70,-13,l)
);
}
);
width = 644;
}
);
metricLeft = "mediall-canadian";
metricRight = "mediall-canadian";
note = uni1552;
unicode = 5458;
},
{
glyphname = "fe-canadian";
kernLeft = ecanleft;
kernRight = ecanright;
lastChange = "2023-01-13 15:53:22 +0000";
layers = (
{
layerId = "F8006AA5-6E21-4BD1-AC52-9C52C7F343AA";
shapes = (
{
closed = 1;
nodes = (
(386,0,l),
(729,664,l),
(729,690,l),
(647,690,l),
(352,106,l),
(376,106,l),
(234,356,l),
(174,351,l),
(200,326,o),
(228,314,o),
(263,314,cs),
(352,314,o),
(423,394,o),
(423,509,cs),
(423,624,o),
(358,702,o),
(255,702,cs),
(152,702,o),
(87,624,o),
(87,514,cs),
(87,464,o),
(100,413,o),
(136,355,cs),
(351,0,l)
);
},
{
closed = 1;
nodes = (
(200,384,o),
(166,433,o),
(166,511,cs),
(166,587,o),
(199,631,o),
(255,631,cs),
(311,631,o),
(344,588,o),
(344,509,cs),
(344,429,o),
(311,384,o),
(255,384,cs)
);
}
);
width = 761;
}
);
metricRight = "e-canadian";
note = uni1553;
unicode = 5459;
},
{
glyphname = "fi-canadian";
kernLeft = icanleft;
kernRight = icanright;
lastChange = "2023-01-13 15:53:22 +0000";
layers = (
{
anchors = (
{
name = top_center_can;
pos = (370,690);
},
{
name = top_left_can;
pos = (135,690);
},
{
name = top_right_can;
pos = (628,690);
}
);
layerId = "F8006AA5-6E21-4BD1-AC52-9C52C7F343AA";
shapes = (
{
closed = 1;
nodes = (
(358,-13,o),
(423,66,o),
(423,181,cs),
(423,296,o),
(352,376,o),
(263,376,cs),
(228,376,o),
(200,364,o),
(174,339,c),
(234,333,l),
(376,583,l),
(352,583,l),
(647,0,l),
(729,0,l),
(729,26,l),
(386,690,l),
(351,690,l),
(135,334,ls),
(100,275,o),
(87,226,o),
(87,176,cs),
(87,66,o),
(152,-13,o),
(255,-13,cs)
);
},
{
closed = 1;
nodes = (
(199,59,o),
(166,102,o),
(166,179,cs),
(166,257,o),
(200,305,o),
(255,305,cs),
(311,305,o),
(344,261,o),
(344,181,cs),
(344,101,o),
(311,59,o),
(255,59,cs)
);
}
);
width = 761;
}
);
metricLeft = "fe-canadian";
metricRight = "e-canadian";
note = uni1555;
unicode = 5461;
},
{
glyphname = "fo-canadian";
kernLeft = ocanleft;
kernRight = ocanright;
lastChange = "2023-01-13 15:53:22 +0000";
layers = (
{
anchors = (
{
name = top_center_can;
pos = (224,690);
}
);
layerId = "F8006AA5-6E21-4BD1-AC52-9C52C7F343AA";
shapes = (
{
closed = 1;
nodes = (
(117,0,l),
(651,327,l),
(651,361,l),
(344,653,ls),
(309,687,o),
(267,702,o),
(223,702,cs),
(128,702,o),
(56,630,o),
(56,507,cs),
(56,392,o),
(121,314,o),
(221,314,cs),
(321,314,o),
(384,392,o),
(384,507,cs),
(384,547,o),
(372,588,o),
(356,616,c),
(329,557,l),
(557,343,l),
(556,364,l),
(91,80,l),
(91,0,l)
);
},
{
closed = 1;
nodes = (
(167,385,o),
(134,429,o),
(134,508,cs),
(134,588,o),
(167,631,o),
(223,631,cs),
(279,631,o),
(311,590,o),
(311,509,cs),
(311,429,o),
(279,385,o),
(223,385,cs)
);
}
);
width = 685;
}
);
metricRight = "o-canadian";
note = uni1557;
unicode = 5463;
},
{
glyphname = "fa-canadian";
kernLeft = acanleft;
kernRight = acanright;
lastChange = "2023-01-13 15:53:22 +0000";
layers = (
{
anchors = (
{
name = top_center_can;
pos = (461,690);
}
);
layerId = "F8006AA5-6E21-4BD1-AC52-9C52C7F343AA";
shapes = (
{
closed = 1;
nodes = (
(594,0,l),
(594,79,l),
(127,365,l),
(128,345,l),
(355,560,l),
(328,616,l),
(312,588,o),
(301,547,o),
(301,507,cs),
(301,392,o),
(364,314,o),
(464,314,cs),
(564,314,o),
(629,392,o),
(629,507,cs),
(629,630,o),
(557,702,o),
(462,702,cs),
(418,702,o),
(376,687,o),
(341,653,cs),
(34,361,l),
(34,327,l),
(568,0,l)
);
},
{
closed = 1;
nodes = (
(406,384,o),
(373,429,o),
(373,509,cs),
(373,589,o),
(406,631,o),
(461,631,cs),
(517,631,o),
(550,588,o),
(550,508,cs),
(550,428,o),
(517,384,o),
(462,384,cs)
);
}
);
width = 685;
}
);
metricRight = "=|fo-canadian";
note = uni1559;
unicode = 5465;
},
{
glyphname = "f-canadian";
kernLeft = mwestleft;
kernRight = mwestright;
lastChange = "2023-01-13 15:53:22 +0000";
layers = (
{
layerId = "F8006AA5-6E21-4BD1-AC52-9C52C7F343AA";
shapes = (
{
closed = 1;
nodes = (
(338,345,l),
(338,387,l),
(110,527,l),
(110,516,l),
(216,617,l),
(207,652,l),
(198,639,o),
(192,617,o),
(192,596,cs),
(192,538,o),
(226,501,o),
(273,501,cs),
(323,501,o),
(355,538,o),
(355,598,cs),
(355,663,o),
(318,696,o),
(272,696,cs),
(251,696,o),
(228,687,o),
(207,667,cs),
(58,526,l),
(58,507,l),
(323,345,l)
);
},
{
closed = 1;
nodes = (
(247,540,o),
(233,560,o),
(233,598,cs),
(233,637,o),
(247,656,o),
(272,656,cs),
(298,656,o),
(313,638,o),
(313,598,cs),
(313,559,o),
(298,540,o),
(273,540,cs)
);
}
);
width = 412;
}
);
note = uni155D;
unicode = 5469;
},
{
glyphname = "the-canadian";
lastChange = "2023-01-13 15:53:22 +0000";
layers = (
{
anchors = (
{
name = middle_right_can;
pos = (812,345);
},
{
name = top_center_can;
pos = (360,690);
},
{
name = top_left_can;
pos = (115,690);
},
{
name = top_right_can;
pos = (606,690);
}
);
layerId = "F8006AA5-6E21-4BD1-AC52-9C52C7F343AA";
shapes = (
{
closed = 1;
nodes = (
(544,-13,o),
(653,102,o),
(653,302,cs),
(653,690,l),
(557,690,l),
(557,298,ls),
(557,151,o),
(487,73,o),
(360,73,cs),
(238,73,o),
(163,147,o),
(163,290,cs),
(163,419,l),
(128,391,l),
(143,339,o),
(189,307,o),
(243,307,cs),
(340,307,o),
(403,384,o),
(403,505,cs),
(403,624,o),
(341,702,o),
(238,702,cs),
(131,702,o),
(69,623,o),
(69,486,cs),
(69,314,ls),
(69,102,o),
(179,-13,o),
(361,-13,cs)
);
},
{
closed = 1;
nodes = (
(180,379,o),
(147,422,o),
(147,505,cs),
(147,587,o),
(180,631,o),
(236,631,cs),
(292,631,o),
(324,587,o),
(324,505,cs),
(324,423,o),
(292,379,o),
(236,379,cs)
);
}
);
width = 722;
}
);
metricLeft = "te-canadian";
metricRight = "te-canadian";
note = uni155E;
unicode = 5470;
},
{
glyphname = "theNCree-canadian";
lastChange = "2023-01-13 15:53:22 +0000";
layers = (
{
layerId = "F8006AA5-6E21-4BD1-AC52-9C52C7F343AA";
shapes = (
{
closed = 1;
nodes = (
(546,-13,o),
(653,102,o),
(653,314,cs),
(653,486,ls),
(653,623,o),
(590,702,o),
(484,702,cs),
(381,702,o),
(319,624,o),
(319,505,cs),
(319,385,o),
(382,307,o),
(478,307,cs),
(532,307,o),
(579,339,o),
(593,391,c),
(558,419,l),
(558,290,ls),
(558,146,o),
(486,72,o),
(361,72,cs),
(237,72,o),
(164,152,o),
(164,298,cs),
(164,690,l),
(69,690,l),
(69,299,ls),
(69,101,o),
(178,-13,o),
(360,-13,cs)
);
},
{
closed = 1;
nodes = (
(430,379,o),
(398,424,o),
(398,505,cs),
(398,587,o),
(430,631,o),
(486,631,cs),
(542,631,o),
(575,587,o),
(575,505,cs),
(575,422,o),
(542,379,o),
(486,379,cs)
);
}
);
width = 722;
}
);
metricLeft = "te-canadian";
metricRight = "te-canadian";
note = uni155F;
unicode = 5471;
},
{
glyphname = "thi-canadian";
lastChange = "2023-01-13 15:53:22 +0000";
layers = (
{
anchors = (
{
name = top_center_can;
pos = (358,690);
}
);
layerId = "F8006AA5-6E21-4BD1-AC52-9C52C7F343AA";
shapes = (
{
closed = 1;
nodes = (
(341,-13,o),
(403,66,o),
(403,185,cs),
(403,304,o),
(340,383,o),
(243,383,cs),
(189,383,o),
(143,351,o),
(128,298,c),
(163,270,l),
(163,400,ls),
(163,544,o),
(236,617,o),
(360,617,cs),
(485,617,o),
(557,538,o),
(557,392,cs),
(557,0,l),
(653,0,l),
(653,390,ls),
(653,588,o),
(544,702,o),
(361,702,cs),
(176,702,o),
(69,587,o),
(69,376,cs),
(69,204,ls),
(69,67,o),
(131,-13,o),
(238,-13,cs)
);
},
{
closed = 1;
nodes = (
(180,59,o),
(147,102,o),
(147,185,cs),
(147,268,o),
(180,311,o),
(236,311,cs),
(292,311,o),
(324,266,o),
(324,185,cs),
(324,102,o),
(292,59,o),
(236,59,cs)
);
}
);
width = 722;
}
);
metricLeft = "te-canadian";
metricRight = "te-canadian";
note = uni1560;
unicode = 5472;
},
{
glyphname = "thiNCree-canadian";
lastChange = "2023-01-13 15:53:22 +0000";
layers = (
{
anchors = (
{
name = top_center_can;
pos = (358,690);
}
);
layerId = "F8006AA5-6E21-4BD1-AC52-9C52C7F343AA";
shapes = (
{
closed = 1;
nodes = (
(590,-13,o),
(653,67,o),
(653,204,cs),
(653,376,ls),
(653,587,o),
(546,702,o),
(360,702,cs),
(178,702,o),
(69,588,o),
(69,390,cs),
(69,0,l),
(164,0,l),
(164,392,ls),
(164,538,o),
(237,617,o),
(361,617,cs),
(486,617,o),
(558,544,o),
(558,400,cs),
(558,270,l),
(593,298,l),
(579,351,o),
(532,383,o),
(478,383,cs),
(382,383,o),
(319,304,o),
(319,185,cs),
(319,66,o),
(381,-13,o),
(484,-13,cs)
);
},
{
closed = 1;
nodes = (
(430,59,o),
(398,102,o),
(398,185,cs),
(398,266,o),
(430,311,o),
(486,311,cs),
(542,311,o),
(575,268,o),
(575,185,cs),
(575,102,o),
(542,59,o),
(486,59,cs)
);
}
);
width = 722;
}
);
metricLeft = "te-canadian";
metricRight = "te-canadian";
note = uni1561;
unicode = 5473;
},
{
glyphname = "tho-canadian";
lastChange = "2023-01-13 15:53:52 +0000";
layers = (
{
anchors = (
{
name = top_center_can;
pos = (304,690);
}
);
layerId = "F8006AA5-6E21-4BD1-AC52-9C52C7F343AA";
shapes = (
{
closed = 1;
nodes = (
(275,0,ls),
(492,0,o),
(610,125,o),
(610,351,cs),
(610,563,o),
(495,702,o),
(305,702,cs),
(159,702,o),
(67,616,o),
(67,480,cs),
(67,360,o),
(132,285,o),
(235,285,cs),
(335,285,o),
(396,357,o),
(396,472,cs),
(396,564,o),
(350,647,o),
(249,653,c),
(218,616,l),
(238,626,o),
(267,632,o),
(293,632,cs),
(440,632,o),
(515,524,o),
(515,355,cs),
(515,176,o),
(433,87,o),
(270,87,cs),
(99,87,l),
(99,0,l)
);
},
{
closed = 1;
nodes = (
(178,356,o),
(146,399,o),
(146,484,cs),
(146,568,o),
(185,611,o),
(234,611,cs),
(285,611,o),
(323,568,o),
(323,483,cs),
(323,399,o),
(291,356,o),
(234,356,cs)
);
}
);
width = 672;
}
);
metricRight = "to-canadian";
note = uni1564;
unicode = 5476;
},
{
glyphname = "tha-canadian";
lastChange = "2023-01-13 15:53:52 +0000";
layers = (
{
anchors = (
{
name = top_center_can;
pos = (369,690);
}
);
layerId = "F8006AA5-6E21-4BD1-AC52-9C52C7F343AA";
shapes = (
{
closed = 1;
nodes = (
(572,0,l),
(572,87,l),
(402,87,ls),
(239,87,o),
(156,176,o),
(156,355,cs),
(156,524,o),
(231,632,o),
(379,632,cs),
(405,632,o),
(434,626,o),
(452,616,c),
(422,653,l),
(322,647,o),
(275,564,o),
(275,472,cs),
(275,357,o),
(337,285,o),
(437,285,cs),
(539,285,o),
(605,361,o),
(605,480,cs),
(605,617,o),
(511,702,o),
(367,702,cs),
(178,702,o),
(62,563,o),
(62,351,cs),
(62,126,o),
(179,0,o),
(396,0,cs)
);
},
{
closed = 1;
nodes = (
(381,356,o),
(349,399,o),
(349,483,cs),
(349,568,o),
(386,611,o),
(438,611,cs),
(487,611,o),
(526,568,o),
(526,484,cs),
(526,399,o),
(494,356,o),
(438,356,cs)
);
}
);
width = 672;
}
);
metricLeft = "=|theCarrier-canadian";
metricRight = "=|tho-canadian";
note = uni1566;
unicode = 5478;
},
{
glyphname = "th-canadian";
kernLeft = mwestleft;
kernRight = mwestright;
lastChange = "2023-01-13 15:53:22 +0000";
layers = (
{
layerId = "F8006AA5-6E21-4BD1-AC52-9C52C7F343AA";
shapes = (
{
closed = 1;
nodes = (
(315,345,l),
(315,401,l),
(238,401,ls),
(156,401,o),
(119,441,o),
(119,522,cs),
(119,601,o),
(156,654,o),
(227,654,cs),
(241,654,o),
(254,651,o),
(263,647,c),
(240,669,l),
(191,667,o),
(169,629,o),
(169,583,cs),
(169,524,o),
(202,487,o),
(250,487,cs),
(298,487,o),
(331,524,o),
(331,583,cs),
(331,655,o),
(285,696,o),
(214,696,cs),
(120,696,o),
(60,626,o),
(60,517,cs),
(60,411,o),
(120,345,o),
(234,345,cs)
);
},
{
closed = 1;
nodes = (
(224,526,o),
(210,546,o),
(210,583,cs),
(210,622,o),
(224,641,o),
(249,641,cs),
(274,641,o),
(289,623,o),
(289,583,cs),
(289,545,o),
(274,526,o),
(249,526,cs)
);
}
);
width = 388;
}
);
metricLeft = "t-canadian";
note = uni156A;
unicode = 5482;
},
{
glyphname = "tthe-canadian";
lastChange = "2023-01-13 15:53:22 +0000";
layers = (
{
anchors = (
{
name = middle_right_can;
pos = (803,345);
},
{
name = top_center_can;
pos = (356,690);
},
{
name = top_left_can;
pos = (117,690);
},
{
name = top_right_can;
pos = (597,690);
}
);
layerId = "F8006AA5-6E21-4BD1-AC52-9C52C7F343AA";
shapes = (
{
closed = 1;
nodes = (
(536,-13,o),
(644,102,o),
(644,302,cs),
(644,690,l),
(551,690,l),
(551,300,ls),
(551,152,o),
(479,75,o),
(356,75,cs),
(237,75,o),
(162,154,o),
(162,299,cs),
(162,690,l),
(69,690,l),
(69,299,ls),
(69,101,o),
(178,-13,o),
(356,-13,cs)
);
},
{
closed = 1;
nodes = (
(396,387,l),
(396,690,l),
(317,690,l),
(317,387,l)
);
}
);
width = 713;
}
);
metricLeft = "te-canadian";
metricRight = "te-canadian";
note = uni156B;
unicode = 5483;
},
{
glyphname = "tthi-canadian";
lastChange = "2023-01-13 15:53:22 +0000";
layers = (
{
layerId = "F8006AA5-6E21-4BD1-AC52-9C52C7F343AA";
shapes = (
{
closed = 1;
nodes = (
(162,0,l),
(162,389,ls),
(162,536,o),
(237,614,o),
(358,614,cs),
(477,614,o),
(551,536,o),
(551,390,cs),
(551,0,l),
(644,0,l),
(644,390,ls),
(644,588,o),
(535,702,o),
(359,702,cs),
(179,702,o),
(69,588,o),
(69,387,cs),
(69,0,l)
);
},
{
closed = 1;
nodes = (
(396,0,l),
(396,302,l),
(317,302,l),
(317,0,l)
);
}
);
width = 713;
}
);
metricLeft = "te-canadian";
metricRight = "te-canadian";
note = uni156C;
unicode = 5484;
},
{
glyphname = "ttho-canadian";
lastChange = "2023-01-13 15:53:22 +0000";
layers = (
{
anchors = (
{
name = top_center_can;
pos = (317,690);
},
{
name = top_left_can;
pos = (120,690);
},
{
name = top_right_can;
pos = (513,690);
}
);
layerId = "F8006AA5-6E21-4BD1-AC52-9C52C7F343AA";
shapes = (
{
closed = 1;
nodes = (
(231,0,ls),
(440,0,o),
(560,128,o),
(560,346,cs),
(560,563,o),
(440,690,o),
(228,690,cs),
(72,690,l),
(72,603,l),
(225,603,ls),
(380,603,o),
(465,513,o),
(465,346,cs),
(465,179,o),
(380,87,o),
(226,87,cs),
(72,87,l),
(72,0,l)
);
},
{
closed = 1;
nodes = (
(308,306,l),
(308,385,l),
(72,385,l),
(72,306,l)
);
}
);
width = 622;
}
);
metricRight = "to-canadian";
note = uni156D;
unicode = 5485;
},
{
glyphname = "ttha-canadian";
lastChange = "2023-01-13 15:53:22 +0000";
layers = (
{
anchors = (
{
name = top_center_can;
pos = (319,690);
},
{
name = top_left_can;
pos = (109,690);
},
{
name = top_right_can;
pos = (502,690);
}
);
layerId = "F8006AA5-6E21-4BD1-AC52-9C52C7F343AA";
shapes = (
{
closed = 1;
nodes = (
(550,0,l),
(550,87,l),
(397,87,ls),
(242,87,o),
(157,178,o),
(157,345,cs),
(157,512,o),
(242,603,o),
(396,603,cs),
(550,603,l),
(550,690,l),
(393,690,ls),
(182,690,o),
(62,562,o),
(62,345,cs),
(62,128,o),
(182,0,o),
(392,0,cs)
);
},
{
closed = 1;
nodes = (
(550,306,l),
(550,385,l),
(314,385,l),
(314,306,l)
);
}
);
width = 622;
}
);
metricLeft = "=|to-canadian";
metricRight = "=|ttho-canadian";
note = uni156E;
unicode = 5486;
},
{
glyphname = "tth-canadian";
lastChange = "2023-01-13 15:53:22 +0000";
layers = (
{
layerId = "F8006AA5-6E21-4BD1-AC52-9C52C7F343AA";
shapes = (
{
closed = 1;
nodes = (
(637,477,l),
(611,477,l),
(704,347,l),
(752,382,l),
(658,512,l),
(650,487,l),
(797,538,l),
(779,593,l),
(632,541,l),
(654,527,l),
(654,690,l),
(595,690,l),
(595,527,l),
(616,541,l),
(470,593,l),
(451,538,l),
(598,487,l),
(591,512,l),
(497,382,l),
(544,347,l)
);
},
{
closed = 1;
nodes = (
(232,477,l),
(207,477,l),
(300,347,l),
(348,382,l),
(253,512,l),
(245,487,l),
(392,538,l),
(373,593,l),
(227,541,l),
(248,527,l),
(248,690,l),
(190,690,l),
(190,527,l),
(212,541,l),
(65,593,l),
(46,538,l),
(193,487,l),
(185,512,l),
(91,382,l),
(138,347,l)
);
}
);
width = 843;
}
);
metricRight = "=|";
note = uni156F;
unicode = 5487;
},
{
glyphname = "tye-canadian";
lastChange = "2023-01-13 15:53:22 +0000";
layers = (
{
layerId = "F8006AA5-6E21-4BD1-AC52-9C52C7F343AA";
shapes = (
{
closed = 1;
nodes = (
(536,-13,o),
(644,102,o),
(644,302,cs),
(644,690,l),
(551,690,l),
(551,302,ls),
(551,152,o),
(479,75,o),
(356,75,cs),
(237,75,o),
(161,154,o),
(161,301,cs),
(161,690,l),
(69,690,l),
(69,299,ls),
(69,101,o),
(178,-13,o),
(356,-13,cs)
);
},
{
closed = 1;
nodes = (
(428,412,o),
(469,457,o),
(469,539,cs),
(469,690,l),
(420,690,l),
(420,541,ls),
(420,489,o),
(399,462,o),
(356,462,cs),
(314,462,o),
(293,489,o),
(293,541,cs),
(293,690,l),
(242,690,l),
(242,539,ls),
(242,456,o),
(286,412,o),
(356,412,cs)
);
}
);
width = 713;
}
);
metricLeft = "te-canadian";
metricRight = "te-canadian";
note = uni1570;
unicode = 5488;
},
{
glyphname = "tyi-canadian";
lastChange = "2023-01-13 15:53:22 +0000";
layers = (
{
layerId = "F8006AA5-6E21-4BD1-AC52-9C52C7F343AA";
shapes = (
{
closed = 1;
nodes = (
(162,0,l),
(162,387,ls),
(162,536,o),
(237,614,o),
(358,614,cs),
(477,614,o),
(551,536,o),
(551,388,cs),
(551,0,l),
(644,0,l),
(644,390,ls),
(644,588,o),
(535,702,o),
(359,702,cs),
(179,702,o),
(69,588,o),
(69,387,cs),
(69,0,l)
);
},
{
closed = 1;
nodes = (
(293,0,l),
(293,148,ls),
(293,201,o),
(314,228,o),
(356,228,cs),
(398,228,o),
(420,201,o),
(420,148,cs),
(420,0,l),
(469,0,l),
(469,151,ls),
(469,234,o),
(426,278,o),
(355,278,cs),
(285,278,o),
(242,233,o),
(242,151,cs),
(242,0,l)
);
}
);
width = 713;
}
);
metricLeft = "te-canadian";
metricRight = "te-canadian";
note = uni1571;
unicode = 5489;
},
{
glyphname = "tyo-canadian";
lastChange = "2023-01-13 15:53:52 +0000";
layers = (
{
layerId = "F8006AA5-6E21-4BD1-AC52-9C52C7F343AA";
shapes = (
{
closed = 1;
nodes = (
(234,0,ls),
(442,0,o),
(564,128,o),
(564,346,cs),
(564,563,o),
(442,690,o),
(231,690,cs),
(75,690,l),
(75,604,l),
(226,604,ls),
(384,604,o),
(468,513,o),
(468,346,cs),
(468,179,o),
(384,86,o),
(227,86,cs),
(75,86,l),
(75,0,l)
);
},
{
closed = 1;
nodes = (
(166,213,ls),
(254,213,o),
(301,263,o),
(301,345,cs),
(301,428,o),
(253,476,o),
(166,476,cs),
(75,476,l),
(75,426,l),
(159,426,ls),
(219,426,o),
(245,397,o),
(245,345,cs),
(245,293,o),
(219,264,o),
(159,264,cs),
(75,264,l),
(75,213,l)
);
}
);
width = 626;
}
);
metricLeft = "nunavuth-canadian";
metricRight = "theCarrier-canadian";
note = uni1572;
unicode = 5490;
},
{
glyphname = "tya-canadian";
lastChange = "2023-01-13 15:53:52 +0000";
layers = (
{
layerId = "F8006AA5-6E21-4BD1-AC52-9C52C7F343AA";
shapes = (
{
closed = 1;
nodes = (
(550,0,l),
(550,86,l),
(400,86,ls),
(242,86,o),
(157,177,o),
(157,345,cs),
(157,512,o),
(242,604,o),
(399,604,cs),
(550,604,l),
(550,690,l),
(393,690,ls),
(183,690,o),
(62,562,o),
(62,345,cs),
(62,128,o),
(183,0,o),
(392,0,cs)
);
},
{
closed = 1;
nodes = (
(550,213,l),
(550,264,l),
(467,264,ls),
(407,264,o),
(381,293,o),
(381,345,cs),
(381,397,o),
(407,426,o),
(466,426,cs),
(550,426,l),
(550,476,l),
(459,476,ls),
(372,476,o),
(324,427,o),
(324,345,cs),
(324,262,o),
(372,213,o),
(459,213,cs)
);
}
);
width = 625;
}
);
metricLeft = "=|theCarrier-canadian";
metricRight = "nunavuth-canadian";
note = uni1573;
unicode = 5491;
},
{
glyphname = "heNunavik-canadian";
lastChange = "2023-01-13 15:53:22 +0000";
layers = (
{
layerId = "F8006AA5-6E21-4BD1-AC52-9C52C7F343AA";
shapes = (
{
closed = 1;
nodes = (
(507,0,l),
(745,195,l),
(693,261,l),
(457,68,l),
(518,64,l),
(518,443,ls),
(518,605,o),
(432,702,o),
(291,702,cs),
(151,702,o),
(60,604,o),
(60,447,cs),
(60,296,o),
(148,198,o),
(277,198,cs),
(357,198,o),
(417,242,o),
(431,300,c),
(422,313,l),
(422,0,l)
);
},
{
closed = 1;
nodes = (
(207,280,o),
(155,341,o),
(155,450,cs),
(155,559,o),
(205,620,o),
(289,620,cs),
(373,620,o),
(423,560,o),
(423,450,cs),
(423,342,o),
(371,280,o),
(289,280,cs)
);
}
);
width = 770;
}
);
metricLeft = "ke-canadian";
note = uni1574;
unicode = 5492;
},
{
glyphname = "hiNunavik-canadian";
lastChange = "2023-01-13 15:53:22 +0000";
layers = (
{
anchors = (
{
name = top_center_can;
pos = (481,690);
}
);
layerId = "F8006AA5-6E21-4BD1-AC52-9C52C7F343AA";
shapes = (
{
closed = 1;
nodes = (
(347,0,l),
(347,313,l),
(339,300,l),
(353,242,o),
(412,198,o),
(493,198,cs),
(622,198,o),
(710,297,o),
(710,449,cs),
(710,606,o),
(620,702,o),
(481,702,cs),
(340,702,o),
(252,605,o),
(252,443,cs),
(252,71,l),
(313,68,l),
(77,261,l),
(25,195,l),
(262,0,l)
);
},
{
closed = 1;
nodes = (
(399,280,o),
(346,342,o),
(346,450,cs),
(346,560,o),
(397,620,o),
(481,620,cs),
(564,620,o),
(615,559,o),
(615,450,cs),
(615,341,o),
(562,280,o),
(481,280,cs)
);
}
);
width = 770;
}
);
metricLeft = "=|heNunavik-canadian";
metricRight = "=|ke-canadian";
note = uni1575;
unicode = 5493;
},
{
glyphname = "hoNunavik-canadian";
lastChange = "2023-01-13 15:53:22 +0000";
layers = (
{
anchors = (
{
name = top_center_can;
pos = (289,690);
},
{
name = top_right_can;
pos = (470,690);
}
);
layerId = "F8006AA5-6E21-4BD1-AC52-9C52C7F343AA";
shapes = (
{
closed = 1;
nodes = (
(432,-13,o),
(518,85,o),
(518,246,cs),
(518,626,l),
(457,622,l),
(693,429,l),
(745,495,l),
(507,690,l),
(422,690,l),
(422,377,l),
(431,389,l),
(417,447,o),
(357,492,o),
(278,492,cs),
(148,492,o),
(60,391,o),
(60,240,cs),
(60,84,o),
(149,-13,o),
(289,-13,cs)
);
},
{
closed = 1;
nodes = (
(205,70,o),
(155,130,o),
(155,240,cs),
(155,349,o),
(207,410,o),
(289,410,cs),
(371,410,o),
(423,348,o),
(423,240,cs),
(423,129,o),
(373,70,o),
(289,70,cs)
);
}
);
width = 770;
}
);
metricLeft = "ke-canadian";
metricRight = "heNunavik-canadian";
note = uni1577;
unicode = 5495;
},
{
glyphname = "haNunavik-canadian";
lastChange = "2023-01-13 15:53:22 +0000";
layers = (
{
anchors = (
{
name = top_center_can;
pos = (481,690);
},
{
name = top_left_can;
pos = (299,690);
}
);
layerId = "F8006AA5-6E21-4BD1-AC52-9C52C7F343AA";
shapes = (
{
closed = 1;
nodes = (
(618,-13,o),
(710,84,o),
(710,242,cs),
(710,393,o),
(622,492,o),
(495,492,cs),
(414,492,o),
(354,447,o),
(339,389,c),
(347,377,l),
(347,690,l),
(262,690,l),
(25,495,l),
(77,429,l),
(313,622,l),
(252,619,l),
(252,246,ls),
(252,85,o),
(337,-13,o),
(479,-13,cs)
);
},
{
closed = 1;
nodes = (
(397,70,o),
(346,129,o),
(346,240,cs),
(346,348,o),
(399,410,o),
(481,410,cs),
(562,410,o),
(615,349,o),
(615,240,cs),
(615,130,o),
(564,70,o),
(481,70,cs)
);
}
);
width = 770;
}
);
metricLeft = "=|heNunavik-canadian";
metricRight = "=|ke-canadian";
note = uni1579;
unicode = 5497;
},
{
glyphname = "hNunavik-canadian";
kernLeft = mwestleft;
kernRight = mwestright;
lastChange = "2023-01-13 15:53:22 +0000";
layers = (
{
layerId = "F8006AA5-6E21-4BD1-AC52-9C52C7F343AA";
shapes = (
{
closed = 1;
nodes = (
(355,339,o),
(411,388,o),
(411,472,cs),
(411,552,o),
(360,601,o),
(296,601,cs),
(250,601,o),
(216,573,o),
(209,534,c),
(224,534,l),
(224,690,l),
(161,690,l),
(43,592,l),
(74,554,l),
(193,651,l),
(156,653,l),
(156,473,ls),
(156,390,o),
(207,339,o),
(285,339,cs)
);
},
{
closed = 1;
nodes = (
(243,390,o),
(219,417,o),
(219,470,cs),
(219,522,o),
(246,550,o),
(284,550,cs),
(322,550,o),
(350,522,o),
(350,470,cs),
(350,419,o),
(323,390,o),
(284,390,cs)
);
}
);
width = 465;
}
);
metricRight = "k-canadian";
note = uni157B;
unicode = 5499;
},
{
color = 4;
glyphname = "nunavuth-canadian";
lastChange = "2023-01-13 15:53:52 +0000";
layers = (
{
layerId = "F8006AA5-6E21-4BD1-AC52-9C52C7F343AA";
shapes = (
{
closed = 1;
nodes = (
(172,315,l),
(515,315,l),
(515,0,l),
(611,0,l),
(611,690,l),
(515,690,l),
(515,400,l),
(172,400,l),
(172,690,l),
(75,690,l),
(75,0,l),
(172,0,l)
);
}
);
width = 686;
}
);
metricRight = "=|";
note = uni157C;
unicode = 5500;
},
{
glyphname = "tlhe-canadian";
lastChange = "2023-01-13 15:53:22 +0000";
layers = (
{
anchors = (
{
name = top_center_can;
pos = (298,690);
}
);
layerId = "F8006AA5-6E21-4BD1-AC52-9C52C7F343AA";
shapes = (
{
closed = 1;
nodes = (
(193,0,l),
(330,270,l),
(254,235,l),
(264,233,o),
(274,232,o),
(284,232,cs),
(363,232,o),
(422,271,o),
(438,320,c),
(432,352,l),
(432,0,l),
(527,0,l),
(527,458,ls),
(527,610,o),
(441,702,o),
(298,702,cs),
(151,702,o),
(66,604,o),
(66,466,cs),
(66,351,o),
(125,270,o),
(217,247,c),
(91,0,l)
);
},
{
closed = 1;
nodes = (
(212,315,o),
(159,371,o),
(159,467,cs),
(159,563,o),
(212,620,o),
(297,620,cs),
(382,620,o),
(433,564,o),
(433,468,cs),
(433,371,o),
(381,315,o),
(297,315,cs)
);
}
);
width = 596;
}
);
metricRight = "te-canadian";
note = uni1586;
unicode = 5510;
},
{
glyphname = "tlhi-canadian";
lastChange = "2023-01-13 15:53:22 +0000";
layers = (
{
layerId = "F8006AA5-6E21-4BD1-AC52-9C52C7F343AA";
shapes = (
{
closed = 1;
nodes = (
(163,0,l),
(163,352,l),
(156,324,l),
(167,274,o),
(228,232,o),
(311,232,c),
(265,270,l),
(403,0,l),
(504,0,l),
(379,247,l),
(470,270,o),
(530,351,o),
(530,466,cs),
(530,604,o),
(444,702,o),
(298,702,cs),
(155,702,o),
(69,610,o),
(69,458,cs),
(69,0,l)
);
},
{
closed = 1;
nodes = (
(214,315,o),
(162,371,o),
(162,468,cs),
(162,564,o),
(213,620,o),
(299,620,cs),
(384,620,o),
(436,563,o),
(436,467,cs),
(436,371,o),
(384,315,o),
(299,315,cs)
);
}
);
width = 596;
}
);
metricLeft = "te-canadian";
metricRight = "=|tlhe-canadian";
note = uni1587;
unicode = 5511;
},
{
glyphname = "tlho-canadian";
lastChange = "2023-01-13 15:53:22 +0000";
layers = (
{
anchors = (
{
name = top_center_can;
pos = (314,690);
}
);
layerId = "F8006AA5-6E21-4BD1-AC52-9C52C7F343AA";
shapes = (
{
closed = 1;
nodes = (
(441,-13,o),
(527,80,o),
(527,232,cs),
(527,690,l),
(432,690,l),
(432,338,l),
(440,366,l),
(428,415,o),
(367,458,o),
(284,458,c),
(330,420,l),
(193,690,l),
(91,690,l),
(217,442,l),
(125,419,o),
(66,339,o),
(66,224,cs),
(66,86,o),
(151,-13,o),
(298,-13,cs)
);
},
{
closed = 1;
nodes = (
(212,70,o),
(159,127,o),
(159,223,cs),
(159,319,o),
(212,375,o),
(297,375,cs),
(381,375,o),
(433,319,o),
(433,222,cs),
(433,126,o),
(382,70,o),
(297,70,cs)
);
}
);
width = 596;
}
);
metricLeft = "tlhe-canadian";
metricRight = "te-canadian";
note = uni1588;
unicode = 5512;
},
{
glyphname = "tlha-canadian";
lastChange = "2023-01-13 15:53:22 +0000";
layers = (
{
layerId = "F8006AA5-6E21-4BD1-AC52-9C52C7F343AA";
shapes = (
{
closed = 1;
nodes = (
(444,-13,o),
(530,86,o),
(530,224,cs),
(530,339,o),
(470,419,o),
(379,442,c),
(504,690,l),
(403,690,l),
(265,420,l),
(342,455,l),
(331,457,o),
(322,458,o),
(311,458,cs),
(228,458,o),
(167,415,o),
(156,366,c),
(163,338,l),
(163,690,l),
(69,690,l),
(69,232,ls),
(69,80,o),
(155,-13,o),
(298,-13,cs)
);
},
{
closed = 1;
nodes = (
(213,70,o),
(162,126,o),
(162,222,cs),
(162,319,o),
(214,375,o),
(299,375,cs),
(384,375,o),
(436,319,o),
(436,223,cs),
(436,127,o),
(384,70,o),
(299,70,cs)
);
}
);
width = 596;
}
);
metricLeft = "te-canadian";
note = uni1589;
unicode = 5513;
},
{
glyphname = "reWestCree-canadian";
lastChange = "2023-01-13 15:53:22 +0000";
layers = (
{
layerId = "F8006AA5-6E21-4BD1-AC52-9C52C7F343AA";
shapes = (
{
closed = 1;
nodes = (
(502,0,l),
(739,195,l),
(687,261,l),
(451,68,l),
(512,64,l),
(512,448,ls),
(512,609,o),
(429,702,o),
(289,702,cs),
(146,702,o),
(59,608,o),
(59,449,cs),
(59,387,l),
(155,387,l),
(155,457,ls),
(155,560,o),
(202,618,o),
(287,618,cs),
(369,618,o),
(416,560,o),
(416,457,cs),
(416,0,l)
);
}
);
width = 764;
}
);
metricLeft = "ce-canadian";
metricRight = "heNunavik-canadian";
note = uni158A;
unicode = 5514;
},
{
glyphname = "riWestCree-canadian";
lastChange = "2023-01-13 15:53:22 +0000";
layers = (
{
layerId = "F8006AA5-6E21-4BD1-AC52-9C52C7F343AA";
shapes = (
{
closed = 1;
nodes = (
(347,0,l),
(347,457,ls),
(347,560,o),
(396,618,o),
(479,618,cs),
(564,618,o),
(610,560,o),
(610,457,cs),
(610,387,l),
(704,387,l),
(704,449,ls),
(704,608,o),
(621,702,o),
(480,702,cs),
(336,702,o),
(252,607,o),
(252,448,cs),
(252,64,l),
(313,68,l),
(77,261,l),
(25,195,l),
(262,0,l)
);
}
);
width = 763;
}
);
metricLeft = "=|heNunavik-canadian";
metricRight = "=|ce-canadian";
note = uni158B;
unicode = 5515;
},
{
glyphname = "roWestCree-canadian";
lastChange = "2023-01-13 15:53:22 +0000";
layers = (
{
layerId = "F8006AA5-6E21-4BD1-AC52-9C52C7F343AA";
shapes = (
{
closed = 1;
nodes = (
(428,-13,o),
(512,79,o),
(512,242,cs),
(512,626,l),
(451,622,l),
(687,429,l),
(739,495,l),
(502,690,l),
(416,690,l),
(416,233,ls),
(416,128,o),
(369,71,o),
(287,71,cs),
(200,71,o),
(155,129,o),
(155,236,cs),
(155,302,l),
(59,302,l),
(59,240,ls),
(59,82,o),
(142,-13,o),
(289,-13,cs)
);
}
);
width = 764;
}
);
metricLeft = "ce-canadian";
metricRight = "heNunavik-canadian";
note = uni158C;
unicode = 5516;
},
{
glyphname = "raWestCree-canadian";
lastChange = "2023-01-13 15:53:22 +0000";
layers = (
{
layerId = "F8006AA5-6E21-4BD1-AC52-9C52C7F343AA";
shapes = (
{
closed = 1;
nodes = (
(621,-13,o),
(704,81,o),
(704,241,cs),
(704,302,l),
(610,302,l),
(610,235,ls),
(610,128,o),
(563,71,o),
(479,71,cs),
(393,71,o),
(347,128,o),
(347,232,cs),
(347,690,l),
(262,690,l),
(25,495,l),
(77,429,l),
(313,622,l),
(252,626,l),
(252,242,ls),
(252,80,o),
(334,-13,o),
(479,-13,cs)
);
}
);
width = 763;
}
);
metricLeft = "=|heNunavik-canadian";
metricRight = "=|ce-canadian";
note = uni158D;
unicode = 5517;
},
{
glyphname = "ng-canadian";
kernLeft = mwestleft;
kernRight = mwestright;
lastChange = "2023-01-13 15:53:22 +0000";
layers = (
{
layerId = "F8006AA5-6E21-4BD1-AC52-9C52C7F343AA";
shapes = (
{
closed = 1;
nodes = (
(545,217,o),
(596,263,o),
(596,344,cs),
(596,365,l),
(531,365,l),
(531,340,ls),
(531,295,o),
(507,271,o),
(469,271,cs),
(430,271,o),
(408,296,o),
(408,345,cs),
(408,497,l),
(250,497,l),
(254,469,l),
(286,482,o),
(306,523,o),
(306,569,cs),
(306,646,o),
(257,696,o),
(181,696,cs),
(105,696,o),
(54,645,o),
(54,566,cs),
(54,487,o),
(104,435,o),
(186,435,cs),
(355,435,l),
(339,453,l),
(339,354,ls),
(339,264,o),
(387,217,o),
(469,217,cs)
);
},
{
closed = 1;
nodes = (
(142,485,o),
(115,515,o),
(115,566,cs),
(115,616,o),
(142,645,o),
(181,645,cs),
(219,645,o),
(245,616,o),
(245,565,cs),
(245,515,o),
(219,485,o),
(181,485,cs)
);
}
);
width = 639;
}
);
metricLeft = "n-canadian";
metricRight = "c-canadian";
note = uni1595;
unicode = 5525;
},
{
glyphname = "nng-canadian";
kernLeft = mwestleft;
kernRight = mwestright;
lastChange = "2023-01-13 15:53:22 +0000";
layers = (
{
layerId = "F8006AA5-6E21-4BD1-AC52-9C52C7F343AA";
shapes = (
{
closed = 1;
nodes = (
(833,217,o),
(884,263,o),
(884,344,cs),
(884,365,l),
(820,365,l),
(820,340,ls),
(820,295,o),
(795,271,o),
(757,271,cs),
(718,271,o),
(696,296,o),
(696,345,cs),
(696,497,l),
(544,497,l),
(548,469,l),
(579,482,o),
(600,523,o),
(600,569,cs),
(600,647,o),
(550,696,o),
(473,696,cs),
(398,696,o),
(348,646,o),
(348,568,cs),
(348,523,o),
(369,482,o),
(399,469,c),
(404,497,l),
(251,497,l),
(254,469,l),
(286,482,o),
(306,523,o),
(306,569,cs),
(306,646,o),
(257,696,o),
(181,696,cs),
(105,696,o),
(54,645,o),
(54,566,cs),
(54,487,o),
(104,435,o),
(186,435,cs),
(628,435,l),
(628,354,ls),
(628,264,o),
(675,217,o),
(757,217,cs)
);
},
{
closed = 1;
nodes = (
(142,485,o),
(115,515,o),
(115,566,cs),
(115,616,o),
(142,645,o),
(181,645,cs),
(219,645,o),
(245,616,o),
(245,565,cs),
(245,515,o),
(219,485,o),
(181,485,cs)
);
},
{
closed = 1;
nodes = (
(435,485,o),
(409,515,o),
(409,566,cs),
(409,616,o),
(435,645,o),
(474,645,cs),
(512,645,o),
(539,616,o),
(539,565,cs),
(539,515,o),
(513,485,o),
(473,485,cs)
);
}
);
width = 927;
}
);
metricLeft = "n-canadian";
metricRight = "c-canadian";
note = uni1596;
unicode = 5526;
},
{
glyphname = "sheSayisi-canadian";
lastChange = "2023-01-13 15:53:52 +0000";
layers = (
{
anchors = (
{
name = middle_right_can;
pos = (681,345);
},
{
name = top_center_can;
pos = (296,690);
}
);
layerId = "F8006AA5-6E21-4BD1-AC52-9C52C7F343AA";
shapes = (
{
closed = 1;
nodes = (
(524,0,l),
(524,444,ls),
(524,606,o),
(440,702,o),
(296,702,cs),
(150,702,o),
(60,602,o),
(60,436,cs),
(60,279,o),
(129,199,o),
(227,199,cs),
(320,199,o),
(374,271,o),
(369,412,c),
(313,412,l),
(315,310,o),
(283,279,o),
(241,279,cs),
(186,279,o),
(153,326,o),
(153,438,cs),
(153,559,o),
(206,620,o),
(293,620,cs),
(380,620,o),
(428,560,o),
(428,445,cs),
(428,0,l)
);
}
);
width = 593;
}
);
metricLeft = "ke-canadian";
metricRight = "te-canadian";
note = uni1597;
unicode = 5527;
},
{
glyphname = "shiSayisi-canadian";
lastChange = "2023-01-13 15:53:22 +0000";
layers = (
{
layerId = "F8006AA5-6E21-4BD1-AC52-9C52C7F343AA";
shapes = (
{
closed = 1;
nodes = (
(164,0,l),
(164,445,ls),
(164,560,o),
(213,620,o),
(300,620,cs),
(387,620,o),
(440,561,o),
(440,440,cs),
(440,327,o),
(406,279,o),
(352,279,cs),
(308,279,o),
(276,310,o),
(278,412,c),
(223,412,l),
(217,271,o),
(271,199,o),
(364,199,cs),
(462,199,o),
(532,281,o),
(532,438,cs),
(532,604,o),
(445,702,o),
(301,702,cs),
(155,702,o),
(69,606,o),
(69,444,cs),
(69,0,l)
);
}
);
width = 592;
}
);
metricLeft = "te-canadian";
metricRight = "=|ke-canadian";
note = uni1598;
unicode = 5528;
},
{
glyphname = "shoSayisi-canadian";
lastChange = "2023-01-13 15:53:52 +0000";
layers = (
{
anchors = (
{
name = top_center_can;
pos = (291,690);
},
{
name = top_left_can;
pos = (106,690);
},
{
name = top_right_can;
pos = (476,690);
}
);
layerId = "F8006AA5-6E21-4BD1-AC52-9C52C7F343AA";
shapes = (
{
closed = 1;
nodes = (
(438,-13,o),
(524,84,o),
(524,245,cs),
(524,690,l),
(428,690,l),
(428,244,ls),
(428,129,o),
(378,70,o),
(291,70,cs),
(204,70,o),
(153,128,o),
(153,250,cs),
(153,362,o),
(186,411,o),
(241,411,cs),
(283,411,o),
(315,380,o),
(313,278,c),
(369,278,l),
(374,418,o),
(321,491,o),
(227,491,cs),
(129,491,o),
(60,409,o),
(60,249,cs),
(60,85,o),
(146,-13,o),
(290,-13,cs)
);
}
);
width = 593;
}
);
metricLeft = "ke-canadian";
metricRight = "te-canadian";
note = uni1599;
unicode = 5529;
},
{
glyphname = "shaSayisi-canadian";
lastChange = "2023-01-13 15:53:22 +0000";
layers = (
{
layerId = "F8006AA5-6E21-4BD1-AC52-9C52C7F343AA";
shapes = (
{
closed = 1;
nodes = (
(441,-13,o),
(532,88,o),
(532,254,cs),
(532,411,o),
(464,491,o),
(366,491,cs),
(273,491,o),
(217,418,o),
(223,278,c),
(278,278,l),
(276,380,o),
(308,411,o),
(352,411,cs),
(406,411,o),
(440,364,o),
(440,252,cs),
(440,130,o),
(385,70,o),
(299,70,cs),
(212,70,o),
(164,129,o),
(164,244,cs),
(164,690,l),
(69,690,l),
(69,245,ls),
(69,84,o),
(152,-13,o),
(296,-13,cs)
);
}
);
width = 592;
}
);
metricLeft = "te-canadian";
metricRight = "=|ke-canadian";
note = uni159A;
unicode = 5530;
},
{
glyphname = "theWoodScree-canadian";
lastChange = "2023-01-13 15:53:22 +0000";
layers = (
{
layerId = "F8006AA5-6E21-4BD1-AC52-9C52C7F343AA";
shapes = (
{
closed = 1;
nodes = (
(661,-13,o),
(754,82,o),
(754,234,cs),
(754,387,o),
(663,479,o),
(508,479,cs),
(66,479,l),
(66,400,l),
(391,400,l),
(379,415,l),
(317,383,o),
(286,309,o),
(286,229,cs),
(286,79,o),
(378,-13,o),
(520,-13,cs)
);
},
{
closed = 1;
nodes = (
(431,70,o),
(381,132,o),
(381,234,cs),
(381,332,o),
(431,397,o),
(519,397,cs),
(609,397,o),
(661,334,o),
(661,234,cs),
(661,132,o),
(610,70,o),
(520,70,cs)
);
},
{
closed = 1;
nodes = (
(743,611,l),
(743,690,l),
(66,690,l),
(66,611,l)
);
}
);
width = 820;
}
);
note = uni159B;
unicode = 5531;
},
{
glyphname = "thiWoodScree-canadian";
kernRight = niright;
lastChange = "2023-01-13 15:53:22 +0000";
layers = (
{
layerId = "F8006AA5-6E21-4BD1-AC52-9C52C7F343AA";
shapes = (
{
closed = 1;
nodes = (
(442,-13,o),
(534,79,o),
(534,230,cs),
(534,310,o),
(502,384,o),
(440,416,c),
(429,400,l),
(754,400,l),
(754,479,l),
(313,479,ls),
(156,479,o),
(66,382,o),
(66,232,cs),
(66,82,o),
(158,-13,o),
(300,-13,cs)
);
},
{
closed = 1;
nodes = (
(211,70,o),
(159,132,o),
(159,234,cs),
(159,334,o),
(212,397,o),
(301,397,cs),
(389,397,o),
(440,332,o),
(440,234,cs),
(440,132,o),
(389,70,o),
(300,70,cs)
);
},
{
closed = 1;
nodes = (
(754,611,l),
(754,690,l),
(77,690,l),
(77,611,l)
);
}
);
width = 820;
}
);
metricLeft = "theWoodScree-canadian";
metricRight = "theWoodScree-canadian";
note = uni159C;
unicode = 5532;
},
{
glyphname = "thoWoodScree-canadian";
lastChange = "2023-01-13 15:53:22 +0000";
layers = (
{
layerId = "F8006AA5-6E21-4BD1-AC52-9C52C7F343AA";
shapes = (
{
closed = 1;
nodes = (
(512,0,ls),
(664,0,o),
(754,94,o),
(754,245,cs),
(754,397,o),
(662,492,o),
(520,492,cs),
(378,492,o),
(286,398,o),
(286,249,cs),
(286,170,o),
(317,97,o),
(379,64,c),
(391,79,l),
(66,79,l),
(66,0,l)
);
},
{
closed = 1;
nodes = (
(431,82,o),
(381,147,o),
(381,245,cs),
(381,347,o),
(431,410,o),
(520,410,cs),
(610,410,o),
(661,347,o),
(661,245,cs),
(661,145,o),
(609,82,o),
(519,82,cs)
);
},
{
closed = 1;
nodes = (
(743,611,l),
(743,690,l),
(66,690,l),
(66,611,l)
);
}
);
width = 820;
}
);
metricLeft = "theWoodScree-canadian";
metricRight = "theWoodScree-canadian";
note = uni159D;
unicode = 5533;
},
{
glyphname = "thaWoodScree-canadian";
lastChange = "2023-01-13 15:53:22 +0000";
layers = (
{
layerId = "F8006AA5-6E21-4BD1-AC52-9C52C7F343AA";
shapes = (
{
closed = 1;
nodes = (
(754,0,l),
(754,79,l),
(429,79,l),
(440,62,l),
(502,96,o),
(534,169,o),
(534,249,cs),
(534,399,o),
(442,492,o),
(300,492,cs),
(158,492,o),
(66,397,o),
(66,244,cs),
(66,96,o),
(156,0,o),
(309,0,cs)
);
},
{
closed = 1;
nodes = (
(212,82,o),
(159,145,o),
(159,245,cs),
(159,347,o),
(211,410,o),
(300,410,cs),
(389,410,o),
(440,347,o),
(440,245,cs),
(440,147,o),
(389,82,o),
(301,82,cs)
);
},
{
closed = 1;
nodes = (
(754,611,l),
(754,690,l),
(77,690,l),
(77,611,l)
);
}
);
width = 820;
}
);
metricLeft = "theWoodScree-canadian";
metricRight = "theWoodScree-canadian";
note = uni159E;
unicode = 5534;
},
{
glyphname = "thWoodScree-canadian";
lastChange = "2023-01-13 15:53:22 +0000";
layers = (
{
layerId = "F8006AA5-6E21-4BD1-AC52-9C52C7F343AA";
shapes = (
{
closed = 1;
nodes = (
(440,345,l),
(440,404,l),
(259,404,l),
(262,379,l),
(294,390,o),
(316,432,o),
(316,479,cs),
(316,556,o),
(267,607,o),
(190,607,cs),
(115,607,o),
(64,555,o),
(64,476,cs),
(64,397,o),
(114,345,o),
(196,345,cs)
);
},
{
closed = 1;
nodes = (
(152,395,o),
(125,425,o),
(125,476,cs),
(125,526,o),
(152,555,o),
(190,555,cs),
(229,555,o),
(255,526,o),
(255,475,cs),
(255,425,o),
(229,395,o),
(190,395,cs)
);
},
{
closed = 1;
nodes = (
(439,663,l),
(439,722,l),
(69,722,l),
(69,663,l)
);
}
);
width = 504;
}
);
metricRight = "=|";
note = uni159F;
unicode = 5535;
},
{
glyphname = "lhi-canadian";
kernRight = niright;
lastChange = "2023-01-13 15:53:22 +0000";
layers = (
{
anchors = (
{
name = top_center_can;
pos = (458,690);
},
{
name = top_right_can;
pos = (554,690);
}
);
layerId = "F8006AA5-6E21-4BD1-AC52-9C52C7F343AA";
shapes = (
{
closed = 1;
nodes = (
(363,0,l),
(363,85,l),
(315,85,ls),
(211,85,o),
(156,141,o),
(156,238,cs),
(156,331,o),
(206,392,o),
(314,392,cs),
(750,392,l),
(750,469,l),
(571,728,l),
(500,680,l),
(679,421,l),
(675,479,l),
(312,479,ls),
(151,479,o),
(60,384,o),
(60,238,cs),
(60,91,o),
(156,0,o),
(310,0,cs)
);
}
);
width = 805;
}
);
metricLeft = "ke-canadian";
metricRight = "=|ne-canadian";
note = uni15A0;
unicode = 5536;
},
{
glyphname = "lho-canadian";
kernLeft = noleft;
lastChange = "2023-01-13 15:53:22 +0000";
layers = (
{
anchors = (
{
name = top_center_can;
pos = (394,497);
},
{
name = top_right_can;
pos = (505,497);
}
);
layerId = "F8006AA5-6E21-4BD1-AC52-9C52C7F343AA";
shapes = (
{
closed = 1;
nodes = (
(304,-201,l),
(126,58,l),
(129,0,l),
(491,0,ls),
(652,0,o),
(745,91,o),
(745,241,cs),
(745,389,o),
(649,479,o),
(496,479,cs),
(441,479,l),
(441,394,l),
(490,394,ls),
(594,394,o),
(650,338,o),
(650,242,cs),
(650,144,o),
(594,86,o),
(491,86,cs),
(55,86,l),
(55,10,l),
(234,-249,l)
);
}
);
width = 805;
}
);
metricLeft = "ne-canadian";
metricRight = "=|ke-canadian";
note = uni15A2;
unicode = 5538;
},
{
glyphname = "lha-canadian";
kernRight = naright;
lastChange = "2023-01-13 15:53:22 +0000";
layers = (
{
anchors = (
{
name = top_center_can;
pos = (412,497);
},
{
name = top_left_can;
pos = (301,497);
}
);
layerId = "F8006AA5-6E21-4BD1-AC52-9C52C7F343AA";
shapes = (
{
closed = 1;
nodes = (
(750,10,l),
(750,87,l),
(316,87,ls),
(211,87,o),
(156,143,o),
(156,242,cs),
(156,338,o),
(210,394,o),
(312,394,cs),
(363,394,l),
(363,479,l),
(311,479,ls),
(153,479,o),
(60,387,o),
(60,240,cs),
(60,89,o),
(155,0,o),
(314,0,cs),
(675,0,l),
(679,58,l),
(500,-201,l),
(571,-249,l)
);
}
);
width = 805;
}
);
metricLeft = "ke-canadian";
metricRight = "=|ne-canadian";
note = uni15A4;
unicode = 5540;
},
{
glyphname = "lh-canadian";
kernLeft = mwestleft;
kernRight = mwestright;
lastChange = "2023-01-13 15:53:22 +0000";
layers = (
{
layerId = "F8006AA5-6E21-4BD1-AC52-9C52C7F343AA";
shapes = (
{
closed = 1;
nodes = (
(440,352,l),
(440,409,l),
(240,409,ls),
(164,409,o),
(128,447,o),
(128,518,cs),
(128,588,o),
(164,628,o),
(237,628,cs),
(252,628,l),
(252,690,l),
(233,690,ls),
(122,690,o),
(60,622,o),
(60,518,cs),
(60,412,o),
(122,345,o),
(236,345,cs),
(398,345,l),
(393,384,l),
(295,241,l),
(342,208,l)
);
}
);
width = 500;
}
);
metricLeft = "t-canadian";
metricRight = "=|";
note = uni15A6;
unicode = 5542;
},
{
glyphname = "theThCree-canadian";
lastChange = "2023-01-13 15:53:22 +0000";
layers = (
{
anchors = (
{
name = top_left_can;
pos = (89,690);
},
{
name = top_right_can;
pos = (447,690);
}
);
layerId = "F8006AA5-6E21-4BD1-AC52-9C52C7F343AA";
shapes = (
{
closed = 1;
nodes = (
(495,0,l),
(495,102,l),
(574,102,l),
(574,158,l),
(495,158,l),
(495,326,l),
(164,326,l),
(161,276,l),
(510,643,l),
(445,701,l),
(42,270,l),
(42,241,l),
(399,241,l),
(399,158,l),
(161,158,l),
(161,102,l),
(399,102,l),
(399,0,l)
);
}
);
width = 607;
}
);
metricLeft = "ye-canadian";
note = uni15A7;
unicode = 5543;
},
{
glyphname = "thiThCree-canadian";
kernRight = yiright;
lastChange = "2023-01-13 15:53:22 +0000";
layers = (
{
anchors = (
{
name = top_left_can;
pos = (160,690);
},
{
name = top_right_can;
pos = (518,690);
}
);
layerId = "F8006AA5-6E21-4BD1-AC52-9C52C7F343AA";
shapes = (
{
closed = 1;
nodes = (
(209,0,l),
(209,102,l),
(445,102,l),
(445,158,l),
(209,158,l),
(209,241,l),
(565,241,l),
(565,270,l),
(161,701,l),
(99,644,l),
(448,274,l),
(444,326,l),
(112,326,l),
(112,158,l),
(33,158,l),
(33,102,l),
(112,102,l),
(112,0,l)
);
}
);
width = 607;
}
);
metricLeft = "=|theThCree-canadian";
metricRight = "=|ye-canadian";
note = uni15A8;
unicode = 5544;
},
{
glyphname = "thoThCree-canadian";
kernLeft = yoleft;
lastChange = "2023-01-13 15:53:22 +0000";
layers = (
{
anchors = (
{
name = top_left_can;
pos = (89,690);
},
{
name = top_right_can;
pos = (447,690);
}
);
layerId = "F8006AA5-6E21-4BD1-AC52-9C52C7F343AA";
shapes = (
{
closed = 1;
nodes = (
(509,45,l),
(160,412,l),
(163,364,l),
(495,364,l),
(495,531,l),
(574,531,l),
(574,587,l),
(495,587,l),
(495,690,l),
(399,690,l),
(399,587,l),
(161,587,l),
(161,531,l),
(399,531,l),
(399,449,l),
(42,449,l),
(42,419,l),
(445,-12,l)
);
}
);
width = 607;
}
);
metricLeft = "ye-canadian";
metricRight = "theThCree-canadian";
note = uni15AA;
unicode = 5546;
},
{
glyphname = "thaThCree-canadian";
kernRight = yaright;
lastChange = "2023-01-13 15:53:22 +0000";
layers = (
{
anchors = (
{
name = top_left_can;
pos = (160,690);
},
{
name = top_right_can;
pos = (518,690);
}
);
layerId = "F8006AA5-6E21-4BD1-AC52-9C52C7F343AA";
shapes = (
{
closed = 1;
nodes = (
(565,419,l),
(565,449,l),
(209,449,l),
(209,531,l),
(445,531,l),
(445,587,l),
(209,587,l),
(209,690,l),
(112,690,l),
(112,587,l),
(33,587,l),
(33,531,l),
(112,531,l),
(112,364,l),
(444,364,l),
(446,412,l),
(99,45,l),
(161,-12,l)
);
}
);
width = 607;
}
);
metricLeft = "=|theThCree-canadian";
metricRight = "=|ye-canadian";
note = uni15AC;
unicode = 5548;
},
{
glyphname = "thThCree-canadian";
kernLeft = mwestleft;
kernRight = mwestright;
lastChange = "2023-01-13 15:53:22 +0000";
layers = (
{
layerId = "F8006AA5-6E21-4BD1-AC52-9C52C7F343AA";
shapes = (
{
closed = 1;
nodes = (
(332,550,l),
(332,569,l),
(160,569,l),
(160,613,l),
(272,613,l),
(272,645,l),
(160,645,l),
(160,690,l),
(92,690,l),
(92,645,l),
(52,645,l),
(52,613,l),
(92,613,l),
(92,514,l),
(267,514,l),
(258,554,l),
(91,374,l),
(137,336,l)
);
}
);
width = 369;
}
);
metricRight = "y-canadian";
note = uni15AE;
unicode = 5550;
},
{
glyphname = "bAivilik-canadian";
lastChange = "2023-01-13 15:53:22 +0000";
layers = (
{
layerId = "F8006AA5-6E21-4BD1-AC52-9C52C7F343AA";
shapes = (
{
closed = 1;
nodes = (
(447,-13,o),
(535,87,o),
(535,241,cs),
(535,390,o),
(449,492,o),
(321,492,cs),
(239,492,o),
(179,447,o),
(164,389,c),
(172,371,l),
(172,690,l),
(75,690,l),
(75,0,l),
(168,0,l),
(168,107,l),
(162,92,l),
(179,33,o),
(239,-13,o),
(322,-13,cs)
);
},
{
closed = 1;
nodes = (
(222,70,o),
(171,130,o),
(171,240,cs),
(171,348,o),
(223,410,o),
(306,410,cs),
(387,410,o),
(440,349,o),
(440,240,cs),
(440,130,o),
(388,70,o),
(306,70,cs)
);
}
);
width = 595;
}
);
metricLeft = "nunavuth-canadian";
metricRight = "=|ke-canadian";
note = uni15AF;
unicode = 5551;
},
{
glyphname = "eBlackfoot-canadian";
lastChange = "2023-01-13 15:53:22 +0000";
layers = (
{
layerId = "F8006AA5-6E21-4BD1-AC52-9C52C7F343AA";
shapes = (
{
closed = 1;
nodes = (
(172,0,l),
(172,405,l),
(201,370,o),
(245,349,o),
(297,349,cs),
(395,349,o),
(464,424,o),
(464,526,cs),
(464,628,o),
(395,702,o),
(297,702,cs),
(242,702,o),
(197,680,o),
(168,642,c),
(168,690,l),
(75,690,l),
(75,0,l)
);
}
);
width = 506;
}
);
metricLeft = "nunavuth-canadian";
note = uni15B0;
unicode = 5552;
},
{
glyphname = "iBlackfoot-canadian";
lastChange = "2023-01-13 15:53:52 +0000";
layers = (
{
layerId = "F8006AA5-6E21-4BD1-AC52-9C52C7F343AA";
shapes = (
{
closed = 1;
nodes = (
(262,-13,o),
(308,10,o),
(336,47,c),
(336,0,l),
(429,0,l),
(429,690,l),
(332,690,l),
(332,285,l),
(303,320,o),
(260,341,o),
(208,341,cs),
(109,341,o),
(42,266,o),
(42,163,cs),
(42,62,o),
(109,-13,o),
(208,-13,cs)
);
}
);
width = 504;
}
);
metricLeft = "=|eBlackfoot-canadian";
metricRight = "nunavuth-canadian";
note = uni15B1;
unicode = 5553;
},
{
glyphname = "oBlackfoot-canadian";
lastChange = "2023-01-13 15:53:22 +0000";
layers = (
{
layerId = "F8006AA5-6E21-4BD1-AC52-9C52C7F343AA";
shapes = (
{
closed = 1;
nodes = (
(395,-13,o),
(464,62,o),
(464,163,cs),
(464,266,o),
(395,341,o),
(297,341,cs),
(245,341,o),
(201,320,o),
(172,285,c),
(172,690,l),
(75,690,l),
(75,0,l),
(168,0,l),
(168,47,l),
(197,10,o),
(242,-13,o),
(297,-13,cs)
);
}
);
width = 506;
}
);
metricLeft = "nunavuth-canadian";
metricRight = "eBlackfoot-canadian";
note = uni15B2;
unicode = 5554;
},
{
glyphname = "aBlackfoot-canadian";
lastChange = "2023-01-13 15:53:52 +0000";
layers = (
{
layerId = "F8006AA5-6E21-4BD1-AC52-9C52C7F343AA";
shapes = (
{
closed = 1;
nodes = (
(429,0,l),
(429,690,l),
(336,690,l),
(336,642,l),
(308,680,o),
(262,702,o),
(208,702,cs),
(109,702,o),
(42,628,o),
(42,526,cs),
(42,424,o),
(109,349,o),
(208,349,cs),
(260,349,o),
(303,370,o),
(332,405,c),
(332,0,l)
);
}
);
width = 504;
}
);
metricLeft = "=|eBlackfoot-canadian";
metricRight = "nunavuth-canadian";
note = uni15B3;
unicode = 5555;
},
{
glyphname = "weBlackfoot-canadian";
lastChange = "2023-01-13 15:53:22 +0000";
layers = (
{
layerId = "F8006AA5-6E21-4BD1-AC52-9C52C7F343AA";
shapes = (
{
closed = 1;
nodes = (
(172,303,l),
(519,303,l),
(519,384,l),
(172,384,l),
(172,609,l),
(519,609,l),
(519,690,l),
(75,690,l),
(75,0,l),
(172,0,l)
);
}
);
width = 577;
}
);
metricLeft = "nunavuth-canadian";
note = uni15B4;
unicode = 5556;
},
{
glyphname = "wiBlackfoot-canadian";
lastChange = "2023-01-13 15:53:52 +0000";
layers = (
{
layerId = "F8006AA5-6E21-4BD1-AC52-9C52C7F343AA";
shapes = (
{
closed = 1;
nodes = (
(500,0,l),
(500,690,l),
(405,690,l),
(405,386,l),
(58,386,l),
(58,305,l),
(405,305,l),
(405,81,l),
(58,81,l),
(58,0,l)
);
}
);
width = 575;
}
);
metricLeft = "=|weBlackfoot-canadian";
metricRight = "nunavuth-canadian";
note = uni15B5;
unicode = 5557;
},
{
glyphname = "woBlackfoot-canadian";
lastChange = "2023-01-13 15:53:22 +0000";
layers = (
{
layerId = "F8006AA5-6E21-4BD1-AC52-9C52C7F343AA";
shapes = (
{
closed = 1;
nodes = (
(519,0,l),
(519,81,l),
(172,81,l),
(172,305,l),
(519,305,l),
(519,386,l),
(172,386,l),
(172,690,l),
(75,690,l),
(75,0,l)
);
}
);
width = 577;
}
);
metricLeft = "nunavuth-canadian";
metricRight = "weBlackfoot-canadian";
note = uni15B6;
unicode = 5558;
},
{
glyphname = "waBlackfoot-canadian";
lastChange = "2023-01-13 15:53:52 +0000";
layers = (
{
layerId = "F8006AA5-6E21-4BD1-AC52-9C52C7F343AA";
shapes = (
{
closed = 1;
nodes = (
(500,0,l),
(500,690,l),
(58,690,l),
(58,609,l),
(405,609,l),
(405,384,l),
(58,384,l),
(58,303,l),
(405,303,l),
(405,0,l)
);
}
);
width = 575;
}
);
metricLeft = "=|weBlackfoot-canadian";
metricRight = "nunavuth-canadian";
note = uni15B7;
unicode = 5559;
},
{
glyphname = "neBlackfoot-canadian";
lastChange = "2023-01-13 15:53:22 +0000";
layers = (
{
layerId = "F8006AA5-6E21-4BD1-AC52-9C52C7F343AA";
shapes = (
{
closed = 1;
nodes = (
(172,0,l),
(172,617,l),
(219,617,l),
(190,677,l),
(190,655,ls),
(190,497,o),
(275,399,o),
(418,399,cs),
(557,399,o),
(648,496,o),
(648,650,cs),
(648,690,l),
(554,690,l),
(554,645,ls),
(554,543,o),
(503,482,o),
(419,482,cs),
(334,482,o),
(285,542,o),
(285,645,cs),
(285,690,l),
(75,690,l),
(75,0,l)
);
}
);
width = 687;
}
);
metricLeft = "nunavuth-canadian";
note = uni15B8;
unicode = 5560;
},
{
glyphname = "niBlackfoot-canadian";
lastChange = "2023-01-13 15:53:52 +0000";
layers = (
{
layerId = "F8006AA5-6E21-4BD1-AC52-9C52C7F343AA";
shapes = (
{
closed = 1;
nodes = (
(133,0,l),
(133,44,ls),
(133,147,o),
(184,208,o),
(268,208,cs),
(353,208,o),
(403,148,o),
(403,44,cs),
(403,0,l),
(611,0,l),
(611,690,l),
(515,690,l),
(515,72,l),
(468,72,l),
(497,13,l),
(497,35,ls),
(497,193,o),
(412,291,o),
(270,291,cs),
(130,291,o),
(39,194,o),
(39,40,cs),
(39,0,l)
);
}
);
width = 686;
}
);
metricLeft = "=|neBlackfoot-canadian";
metricRight = "nunavuth-canadian";
note = uni15B9;
unicode = 5561;
},
{
glyphname = "noBlackfoot-canadian";
lastChange = "2023-01-13 15:53:22 +0000";
layers = (
{
layerId = "F8006AA5-6E21-4BD1-AC52-9C52C7F343AA";
shapes = (
{
closed = 1;
nodes = (
(285,0,l),
(285,44,ls),
(285,148,o),
(334,208,o),
(419,208,cs),
(503,208,o),
(554,147,o),
(554,44,cs),
(554,0,l),
(648,0,l),
(648,40,ls),
(648,194,o),
(557,291,o),
(418,291,cs),
(275,291,o),
(190,193,o),
(190,35,cs),
(190,13,l),
(219,72,l),
(172,72,l),
(172,690,l),
(75,690,l),
(75,0,l)
);
}
);
width = 687;
}
);
metricLeft = "nunavuth-canadian";
metricRight = "neBlackfoot-canadian";
note = uni15BA;
unicode = 5562;
},
{
glyphname = "naBlackfoot-canadian";
lastChange = "2023-01-13 15:53:52 +0000";
layers = (
{
layerId = "F8006AA5-6E21-4BD1-AC52-9C52C7F343AA";
shapes = (
{
closed = 1;
nodes = (
(611,0,l),
(611,690,l),
(403,690,l),
(403,645,ls),
(403,542,o),
(353,482,o),
(268,482,cs),
(184,482,o),
(133,543,o),
(133,645,cs),
(133,690,l),
(39,690,l),
(39,650,ls),
(39,496,o),
(130,399,o),
(270,399,cs),
(412,399,o),
(497,497,o),
(497,655,cs),
(497,677,l),
(468,617,l),
(515,617,l),
(515,0,l)
);
}
);
width = 686;
}
);
metricLeft = "=|neBlackfoot-canadian";
metricRight = "nunavuth-canadian";
note = uni15BB;
unicode = 5563;
},
{
glyphname = "keBlackfoot-canadian";
lastChange = "2023-01-13 15:53:22 +0000";
layers = (
{
layerId = "F8006AA5-6E21-4BD1-AC52-9C52C7F343AA";
shapes = (
{
closed = 1;
nodes = (
(172,0,l),
(172,582,l),
(134,582,l),
(313,255,l),
(355,255,l),
(591,690,l),
(492,690,l),
(307,350,l),
(349,350,l),
(165,690,l),
(75,690,l),
(75,0,l)
);
}
);
width = 613;
}
);
metricLeft = "nunavuth-canadian";
note = uni15BC;
unicode = 5564;
},
{
glyphname = "kiBlackfoot-canadian";
lastChange = "2023-01-13 15:53:22 +0000";
layers = (
{
layerId = "F8006AA5-6E21-4BD1-AC52-9C52C7F343AA";
shapes = (
{
closed = 1;
nodes = (
(123,0,l),
(306,340,l),
(265,340,l),
(449,0,l),
(538,0,l),
(538,690,l),
(441,690,l),
(441,107,l),
(479,107,l),
(301,435,l),
(260,435,l),
(22,0,l)
);
}
);
width = 613;
}
);
metricLeft = "=|keBlackfoot-canadian";
metricRight = "nunavuth-canadian";
note = uni15BD;
unicode = 5565;
},
{
glyphname = "koBlackfoot-canadian";
lastChange = "2023-01-13 15:53:22 +0000";
layers = (
{
layerId = "F8006AA5-6E21-4BD1-AC52-9C52C7F343AA";
shapes = (
{
closed = 1;
nodes = (
(165,0,l),
(349,340,l),
(307,340,l),
(492,0,l),
(591,0,l),
(355,435,l),
(313,435,l),
(134,107,l),
(172,107,l),
(172,690,l),
(75,690,l),
(75,0,l)
);
}
);
width = 613;
}
);
metricLeft = "nunavuth-canadian";
metricRight = "keBlackfoot-canadian";
note = uni15BE;
unicode = 5566;
},
{
glyphname = "kaBlackfoot-canadian";
lastChange = "2023-01-13 15:53:22 +0000";
layers = (
{
layerId = "F8006AA5-6E21-4BD1-AC52-9C52C7F343AA";
shapes = (
{
closed = 1;
nodes = (
(538,0,l),
(538,690,l),
(449,690,l),
(265,350,l),
(306,350,l),
(123,690,l),
(22,690,l),
(260,255,l),
(301,255,l),
(479,582,l),
(441,582,l),
(441,0,l)
);
}
);
width = 613;
}
);
metricLeft = "=|keBlackfoot-canadian";
metricRight = "nunavuth-canadian";
note = uni15BF;
unicode = 5567;
},
{
color = 9;
glyphname = "heSayisi-canadian";
lastChange = "2023-01-13 15:53:22 +0000";
layers = (
{
anchors = (
{
name = top_right_can;
pos = (548,690);
}
);
layerId = "F8006AA5-6E21-4BD1-AC52-9C52C7F343AA";
shapes = (
{
closed = 1;
nodes = (
(595,0,l),
(595,690,l),
(499,690,l),
(499,286,l),
(517,286,l),
(508,530,o),
(416,702,o),
(258,702,cs),
(128,702,o),
(55,611,o),
(55,449,cs),
(55,415,o),
(59,376,o),
(68,336,c),
(159,336,l),
(152,374,o),
(149,412,o),
(149,441,cs),
(149,562,o),
(195,618,o),
(277,618,cs),
(412,618,o),
(497,440,o),
(499,0,c)
);
}
);
width = 670;
}
);
metricRight = "nunavuth-canadian";
note = uni15C0;
unicode = 5568;
},
{
color = 9;
glyphname = "hiSayisi-canadian";
lastChange = "2023-01-13 15:53:22 +0000";
layers = (
{
layerId = "F8006AA5-6E21-4BD1-AC52-9C52C7F343AA";
shapes = (
{
closed = 1;
nodes = (
(172,0,l),
(174,440,o),
(259,618,o),
(394,618,cs),
(475,618,o),
(523,562,o),
(523,441,cs),
(523,412,o),
(519,374,o),
(512,336,c),
(604,336,l),
(612,376,o),
(615,415,o),
(615,449,cs),
(615,611,o),
(543,702,o),
(412,702,cs),
(255,702,o),
(162,530,o),
(154,286,c),
(171,286,l),
(171,690,l),
(75,690,l),
(75,0,l)
);
}
);
width = 670;
}
);
metricLeft = "nunavuth-canadian";
metricRight = "=|heSayisi-canadian";
note = uni15C1;
unicode = 5569;
},
{
color = 9;
glyphname = "hoSayisi-canadian";
lastChange = "2023-01-13 15:53:22 +0000";
layers = (
{
anchors = (
{
name = top_center_can;
pos = (330,690);
},
{
name = top_left_can;
pos = (113,690);
},
{
name = top_right_can;
pos = (548,690);
}
);
layerId = "F8006AA5-6E21-4BD1-AC52-9C52C7F343AA";
shapes = (
{
closed = 1;
nodes = (
(416,-13,o),
(508,159,o),
(517,404,c),
(499,404,l),
(499,0,l),
(595,0,l),
(595,690,l),
(499,690,l),
(497,249,o),
(412,71,o),
(277,71,cs),
(195,71,o),
(149,128,o),
(149,248,cs),
(149,278,o),
(152,316,o),
(159,354,c),
(68,354,l),
(59,314,o),
(55,274,o),
(55,241,cs),
(55,78,o),
(128,-13,o),
(258,-13,cs)
);
}
);
width = 670;
}
);
metricLeft = "heSayisi-canadian";
metricRight = "nunavuth-canadian";
note = uni15C2;
unicode = 5570;
},
{
color = 9;
glyphname = "haSayisi-canadian";
lastChange = "2023-01-13 15:53:22 +0000";
layers = (
{
layerId = "F8006AA5-6E21-4BD1-AC52-9C52C7F343AA";
shapes = (
{
closed = 1;
nodes = (
(543,-13,o),
(615,78,o),
(615,241,cs),
(615,274,o),
(612,314,o),
(604,354,c),
(512,354,l),
(519,316,o),
(523,278,o),
(523,248,cs),
(523,128,o),
(475,71,o),
(394,71,cs),
(259,71,o),
(174,249,o),
(172,690,c),
(75,690,l),
(75,0,l),
(171,0,l),
(171,404,l),
(154,404,l),
(162,159,o),
(255,-13,o),
(412,-13,cs)
);
}
);
width = 670;
}
);
metricLeft = "nunavuth-canadian";
metricRight = "=|heSayisi-canadian";
note = uni15C3;
unicode = 5571;
},
{
color = 9;
glyphname = "ghuCarrier-canadian";
lastChange = "2023-01-13 15:53:22 +0000";
layers = (
{
layerId = "F8006AA5-6E21-4BD1-AC52-9C52C7F343AA";
shapes = (
{
closed = 1;
nodes = (
(376,0,l),
(684,664,l),
(684,690,l),
(604,690,l),
(503,469,l),
(554,485,l),
(165,485,l),
(217,468,l),
(117,690,l),
(32,690,l),
(32,664,l),
(340,0,l)
);
},
{
closed = 1;
nodes = (
(525,412,l),
(488,426,l),
(341,102,l),
(379,102,l),
(233,427,l),
(197,412,l)
);
}
);
width = 716;
}
);
metricLeft = "e-canadian";
metricRight = "e-canadian";
note = uni15C4;
unicode = 5572;
},
{
color = 9;
glyphname = "ghoCarrier-canadian";
lastChange = "2023-01-13 15:53:22 +0000";
layers = (
{
layerId = "F8006AA5-6E21-4BD1-AC52-9C52C7F343AA";
shapes = (
{
closed = 1;
nodes = (
(117,0,l),
(217,222,l),
(165,205,l),
(554,205,l),
(503,220,l),
(604,0,l),
(684,0,l),
(684,26,l),
(376,690,l),
(340,690,l),
(32,26,l),
(32,0,l)
);
},
{
closed = 1;
nodes = (
(379,587,l),
(341,587,l),
(488,264,l),
(525,278,l),
(197,278,l),
(233,263,l)
);
}
);
width = 716;
}
);
metricLeft = "e-canadian";
metricRight = "e-canadian";
note = uni15C5;
unicode = 5573;
},
{
color = 9;
glyphname = "gheCarrier-canadian";
lastChange = "2023-01-13 15:53:22 +0000";
layers = (
{
anchors = (
{
name = middle_center_can;
pos = (76,345);
}
);
layerId = "F8006AA5-6E21-4BD1-AC52-9C52C7F343AA";
shapes = (
{
closed = 1;
nodes = (
(78,0,l),
(615,327,l),
(615,362,l),
(78,690,l),
(53,690,l),
(53,611,l),
(210,515,l),
(202,548,l),
(202,131,l),
(210,176,l),
(53,79,l),
(53,0,l)
);
},
{
closed = 1;
nodes = (
(274,527,l),
(258,495,l),
(534,324,l),
(535,367,l),
(258,197,l),
(274,164,l)
);
}
);
width = 649;
}
);
metricLeft = "po-canadian";
metricRight = "o-canadian";
note = uni15C6;
unicode = 5574;
},
{
color = 9;
glyphname = "ghaCarrier-canadian";
lastChange = "2023-01-13 15:53:22 +0000";
layers = (
{
layerId = "F8006AA5-6E21-4BD1-AC52-9C52C7F343AA";
shapes = (
{
closed = 1;
nodes = (
(596,0,l),
(596,78,l),
(446,172,l),
(454,133,l),
(454,556,l),
(446,518,l),
(596,611,l),
(596,690,l),
(571,690,l),
(34,362,l),
(34,327,l),
(571,0,l)
);
},
{
closed = 1;
nodes = (
(398,193,l),
(116,367,l),
(116,323,l),
(398,497,l),
(382,525,l),
(382,167,l)
);
}
);
width = 649;
}
);
metricLeft = "=|o-canadian";
metricRight = "=|po-canadian";
note = uni15C9;
unicode = 5577;
},
{
color = 9;
glyphname = "ruCarrier-canadian";
lastChange = "2023-01-13 15:53:22 +0000";
layers = (
{
layerId = "F8006AA5-6E21-4BD1-AC52-9C52C7F343AA";
shapes = (
{
closed = 1;
nodes = (
(376,0,l),
(684,664,l),
(684,690,l),
(604,690,l),
(564,603,l),
(584,614,l),
(132,614,l),
(156,602,l),
(117,690,l),
(32,690,l),
(32,664,l),
(340,0,l)
);
},
{
closed = 1;
nodes = (
(562,539,l),
(548,560,l),
(341,104,l),
(380,104,l),
(175,558,l),
(155,539,l)
);
}
);
width = 716;
}
);
metricLeft = "e-canadian";
metricRight = "e-canadian";
note = uni15CA;
unicode = 5578;
},
{
color = 9;
glyphname = "roCarrier-canadian";
lastChange = "2023-01-13 15:53:22 +0000";
layers = (
{
layerId = "F8006AA5-6E21-4BD1-AC52-9C52C7F343AA";
shapes = (
{
closed = 1;
nodes = (
(116,0,l),
(156,87,l),
(133,75,l),
(584,75,l),
(562,88,l),
(603,0,l),
(684,0,l),
(684,26,l),
(376,690,l),
(340,690,l),
(32,26,l),
(32,0,l)
);
},
{
closed = 1;
nodes = (
(377,588,l),
(339,588,l),
(545,131,l),
(562,151,l),
(156,151,l),
(171,129,l)
);
}
);
width = 716;
}
);
metricLeft = "e-canadian";
metricRight = "e-canadian";
note = uni15CB;
unicode = 5579;
},
{
color = 9;
glyphname = "reCarrier-canadian";
lastChange = "2023-01-13 15:53:22 +0000";
layers = (
{
layerId = "F8006AA5-6E21-4BD1-AC52-9C52C7F343AA";
shapes = (
{
closed = 1;
nodes = (
(79,0,l),
(615,327,l),
(615,362,l),
(79,690,l),
(53,690,l),
(53,611,l),
(129,564,l),
(116,589,l),
(116,100,l),
(129,127,l),
(53,79,l),
(53,0,l)
);
},
{
closed = 1;
nodes = (
(191,568,l),
(179,540,l),
(531,323,l),
(531,367,l),
(179,151,l),
(191,121,l)
);
}
);
width = 649;
}
);
metricLeft = "po-canadian";
metricRight = "o-canadian";
note = uni15CC;
unicode = 5580;
},
{
color = 9;
glyphname = "reeCarrier-canadian";
lastChange = "2023-01-13 15:53:22 +0000";
layers = (
{
layerId = "F8006AA5-6E21-4BD1-AC52-9C52C7F343AA";
shapes = (
{
closed = 1;
nodes = (
(79,0,l),
(615,327,l),
(615,362,l),
(79,690,l),
(53,690,l),
(53,621,l),
(129,573,l),
(116,595,l),
(116,91,l),
(129,116,l),
(53,69,l),
(53,0,l)
);
},
{
closed = 1;
nodes = (
(183,575,l),
(171,554,l),
(551,324,l),
(551,367,l),
(170,134,l),
(183,121,l)
);
},
{
closed = 1;
nodes = (
(281,263,l),
(281,429,l),
(239,429,l),
(239,263,l)
);
}
);
width = 649;
}
);
metricLeft = "po-canadian";
metricRight = "o-canadian";
note = uni15CD;
unicode = 5581;
},
{
color = 9;
glyphname = "riCarrier-canadian";
lastChange = "2023-01-13 15:53:22 +0000";
layers = (
{
layerId = "F8006AA5-6E21-4BD1-AC52-9C52C7F343AA";
shapes = (
{
closed = 1;
nodes = (
(79,0,l),
(615,327,l),
(615,362,l),
(79,690,l),
(53,690,l),
(53,621,l),
(129,573,l),
(116,595,l),
(116,92,l),
(129,116,l),
(53,69,l),
(53,0,l)
);
},
{
closed = 1;
nodes = (
(301,303,o),
(321,321,o),
(321,345,cs),
(321,369,o),
(301,386,o),
(278,386,cs),
(256,386,o),
(237,369,o),
(237,345,cs),
(237,321,o),
(256,303,o),
(278,303,cs)
);
},
{
closed = 1;
nodes = (
(183,574,l),
(171,554,l),
(551,324,l),
(551,367,l),
(170,135,l),
(183,122,l)
);
}
);
width = 649;
}
);
metricLeft = "po-canadian";
metricRight = "o-canadian";
note = uni15CE;
unicode = 5582;
},
{
color = 9;
glyphname = "raCarrier-canadian";
lastChange = "2023-01-13 15:53:22 +0000";
layers = (
{
layerId = "F8006AA5-6E21-4BD1-AC52-9C52C7F343AA";
shapes = (
{
closed = 1;
nodes = (
(596,0,l),
(596,79,l),
(524,125,l),
(533,95,l),
(533,596,l),
(524,565,l),
(596,611,l),
(596,690,l),
(571,690,l),
(34,362,l),
(34,327,l),
(571,0,l)
);
},
{
closed = 1;
nodes = (
(475,542,l),
(458,569,l),
(458,122,l),
(475,149,l),
(119,367,l),
(119,324,l)
);
}
);
width = 649;
}
);
metricLeft = "=|o-canadian";
metricRight = "=|po-canadian";
note = uni15CF;
unicode = 5583;
},
{
color = 9;
glyphname = "wuCarrier-canadian";
lastChange = "2023-01-13 15:53:22 +0000";
layers = (
{
layerId = "F8006AA5-6E21-4BD1-AC52-9C52C7F343AA";
shapes = (
{
closed = 1;
nodes = (
(381,0,l),
(693,664,l),
(693,690,l),
(617,690,l),
(381,161,l),
(404,161,l),
(404,690,l),
(327,690,l),
(327,161,l),
(351,161,l),
(113,690,l),
(32,690,l),
(32,664,l),
(345,0,l)
);
}
);
width = 725;
}
);
metricLeft = "e-canadian";
metricRight = "e-canadian";
note = uni15D0;
unicode = 5584;
},
{
color = 9;
glyphname = "woCarrier-canadian";
lastChange = "2023-01-13 15:53:22 +0000";
layers = (
{
layerId = "F8006AA5-6E21-4BD1-AC52-9C52C7F343AA";
shapes = (
{
closed = 1;
nodes = (
(111,0,l),
(348,528,l),
(325,528,l),
(325,0,l),
(401,0,l),
(401,528,l),
(378,528,l),
(615,0,l),
(693,0,l),
(693,26,l),
(381,690,l),
(345,690,l),
(32,26,l),
(32,0,l)
);
}
);
width = 725;
}
);
metricLeft = "e-canadian";
metricRight = "e-canadian";
note = uni15D1;
unicode = 5585;
},
{
color = 9;
glyphname = "weCarrier-canadian";
lastChange = "2023-01-13 15:53:52 +0000";
layers = (
{
layerId = "F8006AA5-6E21-4BD1-AC52-9C52C7F343AA";
shapes = (
{
closed = 1;
nodes = (
(99,0,l),
(636,327,l),
(636,362,l),
(99,690,l),
(73,690,l),
(73,611,l),
(487,362,l),
(487,383,l),
(75,383,l),
(75,308,l),
(486,308,l),
(486,327,l),
(73,78,l),
(73,0,l)
);
}
);
width = 670;
}
);
metricRight = "o-canadian";
note = uni15D2;
unicode = 5586;
},
{
color = 9;
glyphname = "weeCarrier-canadian";
lastChange = "2023-01-13 15:53:52 +0000";
layers = (
{
layerId = "F8006AA5-6E21-4BD1-AC52-9C52C7F343AA";
shapes = (
{
closed = 1;
nodes = (
(99,0,l),
(636,327,l),
(636,362,l),
(99,690,l),
(73,690,l),
(73,619,l),
(515,354,l),
(522,375,l),
(205,375,l),
(205,454,l),
(151,454,l),
(151,375,l),
(73,375,l),
(73,316,l),
(151,316,l),
(151,237,l),
(205,237,l),
(205,316,l),
(523,316,l),
(516,336,l),
(73,71,l),
(73,0,l)
);
}
);
width = 670;
}
);
metricLeft = "weCarrier-canadian";
metricRight = "o-canadian";
note = uni15D3;
unicode = 5587;
},
{
color = 9;
glyphname = "wiCarrier-canadian";
lastChange = "2023-01-13 15:53:52 +0000";
layers = (
{
layerId = "F8006AA5-6E21-4BD1-AC52-9C52C7F343AA";
shapes = (
{
closed = 1;
nodes = (
(99,0,l),
(636,327,l),
(636,362,l),
(99,690,l),
(73,690,l),
(73,620,l),
(516,354,l),
(522,375,l),
(274,375,l),
(264,400,o),
(239,417,o),
(210,417,cs),
(180,417,o),
(155,400,o),
(145,375,c),
(73,375,l),
(73,316,l),
(145,316,l),
(156,291,o),
(181,272,o),
(210,272,cs),
(239,272,o),
(263,291,o),
(273,316,c),
(523,316,l),
(517,336,l),
(73,70,l),
(73,0,l)
);
}
);
width = 670;
}
);
metricLeft = "weCarrier-canadian";
metricRight = "o-canadian";
note = uni15D4;
unicode = 5588;
},
{
color = 9;
glyphname = "waCarrier-canadian";
lastChange = "2023-01-13 15:53:22 +0000";
layers = (
{
layerId = "F8006AA5-6E21-4BD1-AC52-9C52C7F343AA";
shapes = (
{
closed = 1;
nodes = (
(596,0,l),
(596,77,l),
(183,327,l),
(183,307,l),
(595,307,l),
(595,382,l),
(184,382,l),
(184,362,l),
(596,611,l),
(596,690,l),
(571,690,l),
(34,362,l),
(34,327,l),
(571,0,l)
);
}
);
width = 669;
}
);
metricLeft = "=|o-canadian";
metricRight = "=|weCarrier-canadian";
note = uni15D5;
unicode = 5589;
},
{
color = 9;
glyphname = "hwuCarrier-canadian";
lastChange = "2023-01-13 15:53:22 +0000";
layers = (
{
layerId = "F8006AA5-6E21-4BD1-AC52-9C52C7F343AA";
shapes = (
{
closed = 1;
nodes = (
(381,0,l),
(693,664,l),
(693,690,l),
(621,690,l),
(526,481,l),
(560,497,l),
(395,497,l),
(395,690,l),
(332,690,l),
(332,497,l),
(166,497,l),
(202,482,l),
(106,690,l),
(32,690,l),
(32,664,l),
(345,0,l)
);
},
{
closed = 1;
nodes = (
(338,441,l),
(338,126,l),
(355,130,l),
(210,457,l),
(189,441,l)
);
},
{
closed = 1;
nodes = (
(390,441,l),
(538,441,l),
(520,457,l),
(372,128,l),
(390,125,l)
);
}
);
width = 725;
}
);
metricLeft = "e-canadian";
metricRight = "e-canadian";
note = uni15D6;
unicode = 5590;
},
{
color = 9;
glyphname = "hwoCarrier-canadian";
lastChange = "2023-01-13 15:53:22 +0000";
layers = (
{
layerId = "F8006AA5-6E21-4BD1-AC52-9C52C7F343AA";
shapes = (
{
closed = 1;
nodes = (
(106,0,l),
(202,209,l),
(168,192,l),
(332,192,l),
(332,0,l),
(395,0,l),
(395,192,l),
(562,192,l),
(526,209,l),
(621,0,l),
(693,0,l),
(693,26,l),
(381,690,l),
(345,690,l),
(32,26,l),
(32,0,l)
);
},
{
closed = 1;
nodes = (
(347,543,l),
(337,546,l),
(337,249,l),
(195,249,l),
(209,233,l)
);
},
{
closed = 1;
nodes = (
(536,249,l),
(389,249,l),
(389,548,l),
(380,545,l),
(520,233,l)
);
}
);
width = 725;
}
);
metricLeft = "e-canadian";
metricRight = "e-canadian";
note = uni15D7;
unicode = 5591;
},
{
color = 9;
glyphname = "hweCarrier-canadian";
lastChange = "2023-01-13 15:53:52 +0000";
layers = (
{
layerId = "F8006AA5-6E21-4BD1-AC52-9C52C7F343AA";
shapes = (
{
closed = 1;
nodes = (
(99,0,l),
(636,327,l),
(636,362,l),
(99,690,l),
(73,690,l),
(73,619,l),
(220,531,l),
(220,377,l),
(73,377,l),
(73,314,l),
(220,314,l),
(220,158,l),
(73,70,l),
(73,0,l)
);
},
{
closed = 1;
nodes = (
(270,319,l),
(499,319,l),
(270,182,l)
);
},
{
closed = 1;
nodes = (
(270,507,l),
(497,372,l),
(270,372,l)
);
}
);
width = 670;
}
);
metricLeft = "weCarrier-canadian";
metricRight = "o-canadian";
note = uni15D8;
unicode = 5592;
},
{
color = 9;
glyphname = "hweeCarrier-canadian";
lastChange = "2023-01-13 15:53:52 +0000";
layers = (
{
layerId = "F8006AA5-6E21-4BD1-AC52-9C52C7F343AA";
shapes = (
{
closed = 1;
nodes = (
(99,0,l),
(636,327,l),
(636,362,l),
(99,690,l),
(73,690,l),
(73,621,l),
(242,522,l),
(242,373,l),
(185,373,l),
(185,450,l),
(139,450,l),
(139,373,l),
(73,373,l),
(73,318,l),
(139,318,l),
(139,241,l),
(185,241,l),
(185,318,l),
(242,318,l),
(242,167,l),
(73,69,l),
(73,0,l)
);
},
{
closed = 1;
nodes = (
(286,322,l),
(504,322,l),
(286,190,l)
);
},
{
closed = 1;
nodes = (
(286,499,l),
(502,369,l),
(286,369,l)
);
}
);
width = 670;
}
);
metricLeft = "weCarrier-canadian";
metricRight = "o-canadian";
note = uni15D9;
unicode = 5593;
},
{
color = 9;
glyphname = "hwiCarrier-canadian";
lastChange = "2023-01-13 15:53:52 +0000";
layers = (
{
layerId = "F8006AA5-6E21-4BD1-AC52-9C52C7F343AA";
shapes = (
{
closed = 1;
nodes = (
(99,0,l),
(636,327,l),
(636,362,l),
(99,690,l),
(73,690,l),
(73,621,l),
(242,522,l),
(242,369,l),
(215,369,l),
(208,391,o),
(186,407,o),
(160,407,cs),
(136,407,o),
(115,391,o),
(106,369,c),
(73,369,l),
(73,322,l),
(107,322,l),
(115,299,o),
(136,284,o),
(161,284,cs),
(185,284,o),
(207,299,o),
(214,322,c),
(242,322,l),
(242,167,l),
(73,69,l),
(73,0,l)
);
},
{
closed = 1;
nodes = (
(286,322,l),
(504,322,l),
(286,190,l)
);
},
{
closed = 1;
nodes = (
(286,499,l),
(502,369,l),
(286,369,l)
);
}
);
width = 670;
}
);
metricLeft = "weCarrier-canadian";
metricRight = "o-canadian";
note = uni15DA;
unicode = 5594;
},
{
color = 9;
glyphname = "hwaCarrier-canadian";
lastChange = "2023-01-13 15:53:22 +0000";
layers = (
{
layerId = "F8006AA5-6E21-4BD1-AC52-9C52C7F343AA";
shapes = (
{
closed = 1;
nodes = (
(596,0,l),
(596,70,l),
(449,158,l),
(449,313,l),
(596,313,l),
(596,376,l),
(449,376,l),
(449,531,l),
(596,619,l),
(596,690,l),
(571,690,l),
(34,362,l),
(34,327,l),
(571,0,l)
);
},
{
closed = 1;
nodes = (
(172,318,l),
(400,318,l),
(400,182,l)
);
},
{
closed = 1;
nodes = (
(400,508,l),
(400,371,l),
(171,371,l)
);
}
);
width = 669;
}
);
metricLeft = "=|o-canadian";
metricRight = "=|weCarrier-canadian";
note = uni15DB;
unicode = 5595;
},
{
color = 9;
glyphname = "thuCarrier-canadian";
lastChange = "2023-01-13 15:53:22 +0000";
layers = (
{
layerId = "F8006AA5-6E21-4BD1-AC52-9C52C7F343AA";
shapes = (
{
closed = 1;
nodes = (
(536,-13,o),
(644,102,o),
(644,302,cs),
(644,690,l),
(69,690,l),
(69,299,ls),
(69,101,o),
(178,-13,o),
(356,-13,cs)
);
},
{
closed = 1;
nodes = (
(164,605,l),
(549,605,l),
(549,300,ls),
(549,152,o),
(479,75,o),
(356,75,cs),
(237,75,o),
(164,154,o),
(164,300,cs)
);
}
);
width = 713;
}
);
metricLeft = "te-canadian";
metricRight = "te-canadian";
note = uni15DC;
unicode = 5596;
},
{
color = 9;
glyphname = "thoCarrier-canadian";
lastChange = "2023-01-13 15:53:22 +0000";
layers = (
{
layerId = "F8006AA5-6E21-4BD1-AC52-9C52C7F343AA";
shapes = (
{
closed = 1;
nodes = (
(644,0,l),
(644,390,ls),
(644,588,o),
(535,702,o),
(359,702,cs),
(179,702,o),
(69,588,o),
(69,387,cs),
(69,0,l)
);
},
{
closed = 1;
nodes = (
(164,389,ls),
(164,536,o),
(237,614,o),
(358,614,cs),
(477,614,o),
(549,536,o),
(549,389,cs),
(549,85,l),
(164,85,l)
);
}
);
width = 713;
}
);
metricLeft = "te-canadian";
metricRight = "te-canadian";
note = uni15DD;
unicode = 5597;
},
{
color = 9;
glyphname = "theCarrier-canadian";
lastChange = "2023-01-13 15:53:52 +0000";
layers = (
{
anchors = (
{
name = middle_center_can;
pos = (348,345);
}
);
layerId = "F8006AA5-6E21-4BD1-AC52-9C52C7F343AA";
shapes = (
{
closed = 1;
nodes = (
(307,0,ls),
(517,0,o),
(637,128,o),
(637,346,cs),
(637,563,o),
(517,690,o),
(303,690,cs),
(75,690,l),
(75,0,l)
);
},
{
closed = 1;
nodes = (
(172,633,l),
(144,605,l),
(301,605,ls),
(458,605,o),
(540,514,o),
(540,346,cs),
(540,179,o),
(458,85,o),
(302,85,cs),
(144,85,l),
(172,57,l)
);
}
);
width = 699;
}
);
metricLeft = "nunavuth-canadian";
metricRight = "to-canadian";
note = uni15DE;
unicode = 5598;
},
{
color = 9;
glyphname = "thaCarrier-canadian";
lastChange = "2023-01-13 15:53:22 +0000";
layers = (
{
layerId = "F8006AA5-6E21-4BD1-AC52-9C52C7F343AA";
shapes = (
{
closed = 1;
nodes = (
(622,0,l),
(622,690,l),
(393,690,ls),
(182,690,o),
(62,562,o),
(62,345,cs),
(62,128,o),
(182,0,o),
(392,0,cs)
);
},
{
closed = 1;
nodes = (
(157,512,o),
(241,605,o),
(396,605,cs),
(554,605,l),
(526,633,l),
(526,57,l),
(554,85,l),
(396,85,ls),
(241,85,o),
(157,177,o),
(157,345,cs)
);
}
);
width = 697;
}
);
metricLeft = "=|theCarrier-canadian";
metricRight = "nunavuth-canadian";
note = uni15E1;
unicode = 5601;
},
{
color = 9;
glyphname = "ttuCarrier-canadian";
lastChange = "2023-01-13 15:53:22 +0000";
layers = (
{
layerId = "F8006AA5-6E21-4BD1-AC52-9C52C7F343AA";
shapes = (
{
closed = 1;
nodes = (
(536,-13,o),
(644,102,o),
(644,302,cs),
(644,690,l),
(611,690,l),
(344,507,l),
(370,507,l),
(104,690,l),
(69,690,l),
(69,299,ls),
(69,101,o),
(178,-13,o),
(356,-13,cs)
);
},
{
closed = 1;
nodes = (
(237,75,o),
(164,154,o),
(164,300,cs),
(164,614,l),
(80,611,l),
(346,430,l),
(367,430,l),
(634,611,l),
(549,614,l),
(549,300,ls),
(549,152,o),
(479,75,o),
(356,75,cs)
);
}
);
width = 713;
}
);
metricLeft = "te-canadian";
metricRight = "te-canadian";
note = uni15E2;
unicode = 5602;
},
{
color = 9;
glyphname = "ttoCarrier-canadian";
lastChange = "2023-01-13 15:53:22 +0000";
layers = (
{
layerId = "F8006AA5-6E21-4BD1-AC52-9C52C7F343AA";
shapes = (
{
closed = 1;
nodes = (
(102,0,l),
(369,183,l),
(343,183,l),
(609,0,l),
(644,0,l),
(644,390,ls),
(644,588,o),
(534,702,o),
(355,702,cs),
(177,702,o),
(69,587,o),
(69,387,cs),
(69,0,l)
);
},
{
closed = 1;
nodes = (
(476,614,o),
(549,536,o),
(549,389,cs),
(549,75,l),
(633,78,l),
(366,260,l),
(346,260,l),
(79,78,l),
(164,75,l),
(164,389,ls),
(164,538,o),
(234,614,o),
(356,614,cs)
);
}
);
width = 713;
}
);
metricLeft = "te-canadian";
metricRight = "te-canadian";
note = uni15E3;
unicode = 5603;
},
{
color = 9;
glyphname = "tteCarrier-canadian";
lastChange = "2023-01-13 15:53:22 +0000";
layers = (
{
anchors = (
{
name = middle_center_can;
pos = (399,345);
}
);
layerId = "F8006AA5-6E21-4BD1-AC52-9C52C7F343AA";
shapes = (
{
closed = 1;
nodes = (
(317,0,ls),
(526,0,o),
(646,128,o),
(646,346,cs),
(646,563,o),
(526,690,o),
(313,690,cs),
(68,690,l),
(68,664,l),
(193,331,l),
(193,358,l),
(68,26,l),
(68,0,l)
);
},
{
closed = 1;
nodes = (
(279,334,l),
(279,353,l),
(156,683,l),
(155,605,l),
(311,605,ls),
(468,605,o),
(551,514,o),
(551,346,cs),
(551,179,o),
(468,85,o),
(312,85,cs),
(155,85,l),
(156,5,l)
);
}
);
width = 708;
}
);
metricRight = "theCarrier-canadian";
note = uni15E4;
unicode = 5604;
},
{
color = 9;
glyphname = "ttaCarrier-canadian";
lastChange = "2023-01-13 15:53:22 +0000";
layers = (
{
layerId = "F8006AA5-6E21-4BD1-AC52-9C52C7F343AA";
shapes = (
{
closed = 1;
nodes = (
(640,0,l),
(640,26,l),
(515,358,l),
(515,331,l),
(640,664,l),
(640,690,l),
(393,690,ls),
(182,690,o),
(62,562,o),
(62,345,cs),
(62,128,o),
(182,0,o),
(392,0,cs)
);
},
{
closed = 1;
nodes = (
(554,85,l),
(396,85,ls),
(241,85,o),
(157,177,o),
(157,345,cs),
(157,512,o),
(241,605,o),
(396,605,cs),
(554,605,l),
(553,685,l),
(428,355,l),
(428,337,l),
(553,8,l)
);
}
);
width = 708;
}
);
metricLeft = "=|theCarrier-canadian";
metricRight = "=|tteCarrier-canadian";
note = uni15E7;
unicode = 5607;
},
{
color = 9;
glyphname = "puCarrier-canadian";
lastChange = "2023-01-13 15:53:22 +0000";
layers = (
{
layerId = "F8006AA5-6E21-4BD1-AC52-9C52C7F343AA";
shapes = (
{
closed = 1;
nodes = (
(536,-13,o),
(644,102,o),
(644,302,cs),
(644,690,l),
(549,690,l),
(549,530,l),
(164,530,l),
(164,690,l),
(69,690,l),
(69,299,ls),
(69,101,o),
(178,-13,o),
(356,-13,cs)
);
},
{
closed = 1;
nodes = (
(237,75,o),
(164,154,o),
(164,300,cs),
(164,446,l),
(549,446,l),
(549,300,ls),
(549,152,o),
(479,75,o),
(356,75,cs)
);
}
);
width = 713;
}
);
metricLeft = "te-canadian";
metricRight = "te-canadian";
note = uni15E8;
unicode = 5608;
},
{
color = 9;
glyphname = "poCarrier-canadian";
lastChange = "2023-01-13 15:53:22 +0000";
layers = (
{
layerId = "F8006AA5-6E21-4BD1-AC52-9C52C7F343AA";
shapes = (
{
closed = 1;
nodes = (
(164,0,l),
(164,159,l),
(549,159,l),
(549,0,l),
(644,0,l),
(644,390,ls),
(644,588,o),
(535,702,o),
(359,702,cs),
(180,702,o),
(69,588,o),
(69,387,cs),
(69,0,l)
);
},
{
closed = 1;
nodes = (
(164,389,ls),
(164,536,o),
(237,614,o),
(358,614,cs),
(477,614,o),
(549,536,o),
(549,389,cs),
(549,243,l),
(164,243,l)
);
}
);
width = 713;
}
);
metricLeft = "te-canadian";
metricRight = "te-canadian";
note = uni15E9;
unicode = 5609;
},
{
color = 9;
glyphname = "peCarrier-canadian";
lastChange = "2023-01-13 15:53:22 +0000";
layers = (
{
anchors = (
{
name = middle_center_can;
pos = (387,345);
}
);
layerId = "F8006AA5-6E21-4BD1-AC52-9C52C7F343AA";
shapes = (
{
closed = 1;
nodes = (
(312,0,ls),
(522,0,o),
(641,128,o),
(641,346,cs),
(641,563,o),
(522,690,o),
(309,690,cs),
(64,690,l),
(64,605,l),
(152,605,l),
(152,85,l),
(64,85,l),
(64,0,l)
);
},
{
closed = 1;
nodes = (
(246,633,l),
(215,605,l),
(307,605,ls),
(464,605,o),
(546,514,o),
(546,346,cs),
(546,179,o),
(464,85,o),
(308,85,cs),
(215,85,l),
(246,57,l)
);
}
);
width = 703;
}
);
metricRight = "theCarrier-canadian";
note = uni15EA;
unicode = 5610;
},
{
color = 9;
glyphname = "paCarrier-canadian";
lastChange = "2023-01-13 15:53:22 +0000";
layers = (
{
layerId = "F8006AA5-6E21-4BD1-AC52-9C52C7F343AA";
shapes = (
{
closed = 1;
nodes = (
(640,0,l),
(640,85,l),
(552,85,l),
(552,605,l),
(640,605,l),
(640,690,l),
(394,690,ls),
(182,690,o),
(62,563,o),
(62,346,cs),
(62,128,o),
(182,0,o),
(391,0,cs)
);
},
{
closed = 1;
nodes = (
(488,85,l),
(395,85,ls),
(241,85,o),
(157,179,o),
(157,346,cs),
(157,514,o),
(241,605,o),
(397,605,cs),
(488,605,l),
(457,633,l),
(457,57,l)
);
}
);
width = 704;
}
);
metricLeft = "=|theCarrier-canadian";
metricRight = "=|peCarrier-canadian";
note = uni15ED;
unicode = 5613;
},
{
color = 6;
glyphname = "pCarrier-canadian";
lastChange = "2023-01-13 15:53:52 +0000";
layers = (
{
layerId = "F8006AA5-6E21-4BD1-AC52-9C52C7F343AA";
shapes = (
{
closed = 1;
nodes = (
(384,183,l),
(384,247,l),
(257,247,l),
(257,527,l),
(189,527,l),
(189,247,l),
(62,247,l),
(62,183,l)
);
}
);
width = 446;
}
);
metricLeft = "shorthorizontalstrokeFinal-canadian";
metricRight = "shorthorizontalstrokeFinal-canadian";
note = uni15EE;
unicode = 5614;
},
{
color = 9;
glyphname = "guCarrier-canadian";
lastChange = "2023-01-13 15:53:22 +0000";
layers = (
{
anchors = (
{
name = top_center_can;
pos = (430,690);
}
);
layerId = "F8006AA5-6E21-4BD1-AC52-9C52C7F343AA";
shapes = (
{
closed = 1;
nodes = (
(360,-13,o),
(424,39,o),
(450,133,c),
(410,133,l),
(440,37,o),
(502,-13,o),
(590,-13,cs),
(713,-13,o),
(785,72,o),
(785,213,cs),
(785,690,l),
(693,690,l),
(693,214,ls),
(693,123,o),
(655,72,o),
(585,72,cs),
(517,72,o),
(475,124,o),
(475,213,cs),
(475,690,l),
(384,690,l),
(384,213,ls),
(384,122,o),
(344,72,o),
(274,72,cs),
(204,72,o),
(163,122,o),
(163,214,cs),
(163,690,l),
(71,690,l),
(71,214,ls),
(71,71,o),
(147,-13,o),
(269,-13,cs)
);
}
);
width = 856;
}
);
metricRight = "=|";
note = uni15EF;
unicode = 5615;
},
{
color = 9;
glyphname = "goCarrier-canadian";
lastChange = "2023-01-13 15:53:22 +0000";
layers = (
{
layerId = "F8006AA5-6E21-4BD1-AC52-9C52C7F343AA";
shapes = (
{
closed = 1;
nodes = (
(163,0,l),
(163,475,ls),
(163,567,o),
(202,617,o),
(272,617,cs),
(341,617,o),
(383,567,o),
(383,476,cs),
(383,0,l),
(473,0,l),
(473,476,ls),
(473,566,o),
(515,617,o),
(582,617,cs),
(653,617,o),
(693,567,o),
(693,475,cs),
(693,0,l),
(785,0,l),
(785,475,ls),
(785,618,o),
(709,702,o),
(589,702,cs),
(498,702,o),
(435,651,o),
(409,556,c),
(449,556,l),
(419,653,o),
(356,702,o),
(267,702,cs),
(144,702,o),
(71,618,o),
(71,475,cs),
(71,0,l)
);
}
);
width = 856;
}
);
metricLeft = "guCarrier-canadian";
metricRight = "guCarrier-canadian";
note = uni15F0;
unicode = 5616;
},
{
color = 9;
glyphname = "geCarrier-canadian";
lastChange = "2023-01-13 15:53:22 +0000";
layers = (
{
anchors = (
{
name = top_center_can;
pos = (356,690);
}
);
layerId = "F8006AA5-6E21-4BD1-AC52-9C52C7F343AA";
shapes = (
{
closed = 1;
nodes = (
(421,0,ls),
(563,0,o),
(637,68,o),
(637,186,cs),
(637,269,o),
(586,333,o),
(507,360,c),
(507,329,l),
(588,353,o),
(637,414,o),
(637,501,cs),
(637,620,o),
(561,690,o),
(421,690,cs),
(75,690,l),
(75,611,l),
(405,611,ls),
(497,611,o),
(540,572,o),
(540,498,cs),
(540,424,o),
(494,384,o),
(407,384,cs),
(75,384,l),
(75,306,l),
(408,306,ls),
(494,306,o),
(540,265,o),
(540,190,cs),
(540,118,o),
(497,79,o),
(405,79,cs),
(75,79,l),
(75,0,l)
);
}
);
width = 708;
}
);
metricLeft = "nunavuth-canadian";
note = uni15F1;
unicode = 5617;
},
{
color = 9;
glyphname = "geeCarrier-canadian";
lastChange = "2023-01-13 15:53:22 +0000";
layers = (
{
layerId = "F8006AA5-6E21-4BD1-AC52-9C52C7F343AA";
shapes = (
{
closed = 1;
nodes = (
(421,0,ls),
(563,0,o),
(637,68,o),
(637,186,cs),
(637,269,o),
(586,333,o),
(507,360,c),
(507,329,l),
(588,353,o),
(637,414,o),
(637,501,cs),
(637,620,o),
(561,690,o),
(421,690,cs),
(75,690,l),
(75,611,l),
(405,611,ls),
(497,611,o),
(540,572,o),
(540,498,cs),
(540,424,o),
(494,384,o),
(407,384,cs),
(341,384,l),
(341,467,l),
(284,467,l),
(284,384,l),
(75,384,l),
(75,307,l),
(284,307,l),
(284,224,l),
(341,224,l),
(341,307,l),
(408,307,ls),
(494,307,o),
(540,265,o),
(540,190,cs),
(540,118,o),
(497,79,o),
(405,79,cs),
(75,79,l),
(75,0,l)
);
}
);
width = 708;
}
);
metricLeft = "geCarrier-canadian";
metricRight = "geCarrier-canadian";
note = uni15F2;
unicode = 5618;
},
{
color = 9;
glyphname = "giCarrier-canadian";
lastChange = "2023-01-13 15:53:22 +0000";
layers = (
{
layerId = "F8006AA5-6E21-4BD1-AC52-9C52C7F343AA";
shapes = (
{
closed = 1;
nodes = (
(421,0,ls),
(563,0,o),
(637,68,o),
(637,186,cs),
(637,269,o),
(586,332,o),
(508,356,c),
(507,332,l),
(588,355,o),
(637,415,o),
(637,501,cs),
(637,620,o),
(561,690,o),
(421,690,cs),
(75,690,l),
(75,611,l),
(405,611,ls),
(497,611,o),
(540,572,o),
(540,498,cs),
(540,424,o),
(494,384,o),
(410,384,cs),
(362,384,l),
(394,371,l),
(384,405,o),
(354,428,o),
(317,428,cs),
(286,428,o),
(259,410,o),
(246,384,c),
(75,384,l),
(75,307,l),
(246,307,l),
(259,281,o),
(286,263,o),
(318,263,cs),
(354,263,o),
(383,287,o),
(394,320,c),
(362,307,l),
(411,307,ls),
(494,307,o),
(540,265,o),
(540,190,cs),
(540,118,o),
(497,79,o),
(405,79,cs),
(75,79,l),
(75,0,l)
);
}
);
width = 708;
}
);
metricLeft = "geCarrier-canadian";
metricRight = "geCarrier-canadian";
note = uni15F3;
unicode = 5619;
},
{
color = 9;
glyphname = "gaCarrier-canadian";
lastChange = "2023-01-13 15:53:22 +0000";
layers = (
{
anchors = (
{
name = top_center_can;
pos = (370,690);
}
);
layerId = "F8006AA5-6E21-4BD1-AC52-9C52C7F343AA";
shapes = (
{
closed = 1;
nodes = (
(633,0,l),
(633,79,l),
(303,79,ls),
(211,79,o),
(168,118,o),
(168,190,cs),
(168,265,o),
(214,306,o),
(300,306,cs),
(633,306,l),
(633,384,l),
(301,384,ls),
(214,384,o),
(168,424,o),
(168,498,cs),
(168,572,o),
(211,611,o),
(303,611,cs),
(633,611,l),
(633,690,l),
(287,690,ls),
(147,690,o),
(71,620,o),
(71,501,cs),
(71,414,o),
(120,355,o),
(201,330,c),
(201,361,l),
(122,334,o),
(71,269,o),
(71,186,cs),
(71,68,o),
(145,0,o),
(287,0,cs)
);
}
);
width = 708;
}
);
metricLeft = "=|geCarrier-canadian";
metricRight = "=|geCarrier-canadian";
note = uni15F4;
unicode = 5620;
},
{
color = 9;
glyphname = "khuCarrier-canadian";
lastChange = "2023-01-13 15:53:22 +0000";
layers = (
{
layerId = "F8006AA5-6E21-4BD1-AC52-9C52C7F343AA";
shapes = (
{
closed = 1;
nodes = (
(360,-13,o),
(424,39,o),
(450,133,c),
(410,133,l),
(440,37,o),
(502,-13,o),
(590,-13,cs),
(713,-13,o),
(785,72,o),
(785,213,cs),
(785,690,l),
(71,690,l),
(71,214,ls),
(71,71,o),
(147,-13,o),
(269,-13,cs)
);
},
{
closed = 1;
nodes = (
(204,72,o),
(163,122,o),
(163,214,cs),
(163,607,l),
(384,607,l),
(384,213,ls),
(384,122,o),
(344,72,o),
(274,72,cs)
);
},
{
closed = 1;
nodes = (
(517,72,o),
(475,124,o),
(475,213,cs),
(475,607,l),
(693,607,l),
(693,214,ls),
(693,123,o),
(655,72,o),
(585,72,cs)
);
}
);
width = 856;
}
);
metricLeft = "guCarrier-canadian";
metricRight = "guCarrier-canadian";
note = uni15F5;
unicode = 5621;
},
{
color = 9;
glyphname = "khoCarrier-canadian";
lastChange = "2023-01-13 15:53:22 +0000";
layers = (
{
layerId = "F8006AA5-6E21-4BD1-AC52-9C52C7F343AA";
shapes = (
{
closed = 1;
nodes = (
(785,0,l),
(785,475,ls),
(785,617,o),
(712,702,o),
(590,702,cs),
(501,702,o),
(438,653,o),
(409,556,c),
(449,556,l),
(422,651,o),
(359,702,o),
(268,702,cs),
(147,702,o),
(71,619,o),
(71,475,cs),
(71,0,l)
);
},
{
closed = 1;
nodes = (
(163,475,ls),
(163,568,o),
(204,617,o),
(274,617,cs),
(343,617,o),
(384,567,o),
(384,476,cs),
(384,83,l),
(163,83,l)
);
},
{
closed = 1;
nodes = (
(474,476,ls),
(474,566,o),
(516,617,o),
(584,617,cs),
(655,617,o),
(693,567,o),
(693,475,cs),
(693,83,l),
(474,83,l)
);
}
);
width = 856;
}
);
metricLeft = "guCarrier-canadian";
metricRight = "guCarrier-canadian";
note = uni15F6;
unicode = 5622;
},
{
color = 9;
glyphname = "kheCarrier-canadian";
lastChange = "2023-01-13 15:53:52 +0000";
layers = (
{
layerId = "F8006AA5-6E21-4BD1-AC52-9C52C7F343AA";
shapes = (
{
closed = 1;
nodes = (
(425,0,ls),
(567,0,o),
(640,68,o),
(640,186,cs),
(640,269,o),
(590,333,o),
(511,360,c),
(511,329,l),
(592,353,o),
(640,414,o),
(640,501,cs),
(640,620,o),
(566,690,o),
(425,690,cs),
(75,690,l),
(75,0,l)
);
},
{
closed = 1;
nodes = (
(172,307,l),
(412,307,ls),
(497,307,o),
(545,265,o),
(545,190,cs),
(545,118,o),
(501,78,o),
(409,78,cs),
(172,78,l)
);
},
{
closed = 1;
nodes = (
(172,611,l),
(409,611,ls),
(501,611,o),
(545,572,o),
(545,498,cs),
(545,424,o),
(497,384,o),
(411,384,cs),
(172,384,l)
);
}
);
width = 711;
}
);
metricLeft = "nunavuth-canadian";
metricRight = "geCarrier-canadian";
note = uni15F7;
unicode = 5623;
},
{
color = 9;
glyphname = "kheeCarrier-canadian";
lastChange = "2023-01-13 15:53:52 +0000";
layers = (
{
layerId = "F8006AA5-6E21-4BD1-AC52-9C52C7F343AA";
shapes = (
{
closed = 1;
nodes = (
(425,0,ls),
(567,0,o),
(640,68,o),
(640,186,cs),
(640,269,o),
(590,333,o),
(510,358,c),
(510,330,l),
(592,353,o),
(640,414,o),
(640,501,cs),
(640,620,o),
(566,690,o),
(425,690,cs),
(75,690,l),
(75,0,l)
);
},
{
closed = 1;
nodes = (
(172,308,l),
(312,308,l),
(312,222,l),
(376,222,l),
(376,329,l),
(350,308,l),
(414,308,ls),
(499,308,o),
(545,266,o),
(545,191,cs),
(545,118,o),
(501,78,o),
(409,78,cs),
(172,78,l)
);
},
{
closed = 1;
nodes = (
(376,469,l),
(312,469,l),
(312,384,l),
(172,384,l),
(172,611,l),
(409,611,ls),
(501,611,o),
(545,572,o),
(545,498,cs),
(545,423,o),
(498,384,o),
(413,384,cs),
(350,384,l),
(376,361,l)
);
}
);
width = 711;
}
);
metricLeft = "nunavuth-canadian";
metricRight = "geCarrier-canadian";
note = uni15F8;
unicode = 5624;
},
{
color = 9;
glyphname = "khiCarrier-canadian";
lastChange = "2023-01-13 15:53:52 +0000";
layers = (
{
layerId = "F8006AA5-6E21-4BD1-AC52-9C52C7F343AA";
shapes = (
{
closed = 1;
nodes = (
(425,0,ls),
(567,0,o),
(640,68,o),
(640,186,cs),
(640,269,o),
(592,331,o),
(514,358,c),
(513,330,l),
(593,354,o),
(640,415,o),
(640,501,cs),
(640,620,o),
(566,690,o),
(425,690,cs),
(75,690,l),
(75,0,l)
);
},
{
closed = 1;
nodes = (
(172,309,l),
(270,309,l),
(283,282,o),
(310,263,o),
(342,263,cs),
(384,263,o),
(417,296,o),
(422,336,c),
(370,309,l),
(415,309,ls),
(499,309,o),
(545,267,o),
(545,191,cs),
(545,117,o),
(501,78,o),
(409,78,cs),
(172,78,l)
);
},
{
closed = 1;
nodes = (
(409,611,ls),
(501,611,o),
(545,572,o),
(545,497,cs),
(545,422,o),
(498,382,o),
(414,382,cs),
(371,382,l),
(423,354,l),
(418,396,o),
(384,428,o),
(342,428,cs),
(299,428,o),
(266,396,o),
(262,355,c),
(295,382,l),
(172,382,l),
(172,611,l)
);
}
);
width = 711;
}
);
metricLeft = "nunavuth-canadian";
metricRight = "geCarrier-canadian";
note = uni15F9;
unicode = 5625;
},
{
color = 9;
glyphname = "khaCarrier-canadian";
lastChange = "2023-01-13 15:53:22 +0000";
layers = (
{
layerId = "F8006AA5-6E21-4BD1-AC52-9C52C7F343AA";
shapes = (
{
closed = 1;
nodes = (
(637,0,l),
(637,690,l),
(287,690,ls),
(147,690,o),
(71,620,o),
(71,501,cs),
(71,415,o),
(119,355,o),
(200,332,c),
(198,359,l),
(121,333,o),
(71,269,o),
(71,186,cs),
(71,68,o),
(145,0,o),
(287,0,cs)
);
},
{
closed = 1;
nodes = (
(211,78,o),
(168,118,o),
(168,190,cs),
(168,265,o),
(214,307,o),
(300,307,cs),
(541,307,l),
(541,78,l),
(303,78,ls)
);
},
{
closed = 1;
nodes = (
(214,384,o),
(168,424,o),
(168,498,cs),
(168,572,o),
(211,611,o),
(303,611,cs),
(541,611,l),
(541,384,l),
(301,384,ls)
);
}
);
width = 712;
}
);
metricLeft = "=|geCarrier-canadian";
metricRight = "nunavuth-canadian";
note = uni15FA;
unicode = 5626;
},
{
color = 9;
glyphname = "kkuCarrier-canadian";
lastChange = "2023-01-13 15:53:22 +0000";
layers = (
{
layerId = "F8006AA5-6E21-4BD1-AC52-9C52C7F343AA";
shapes = (
{
closed = 1;
nodes = (
(363,-13,o),
(428,43,o),
(451,143,c),
(408,143,l),
(435,41,o),
(499,-13,o),
(590,-13,cs),
(713,-13,o),
(785,72,o),
(785,213,cs),
(785,690,l),
(751,690,l),
(459,529,l),
(459,440,l),
(755,600,l),
(693,606,l),
(693,214,ls),
(693,123,o),
(655,72,o),
(585,72,cs),
(517,72,o),
(475,124,o),
(475,213,cs),
(475,690,l),
(384,690,l),
(384,213,ls),
(384,122,o),
(344,72,o),
(274,72,cs),
(204,72,o),
(163,122,o),
(163,214,cs),
(163,606,l),
(101,600,l),
(398,440,l),
(398,529,l),
(106,690,l),
(71,690,l),
(71,214,ls),
(71,71,o),
(147,-13,o),
(269,-13,cs)
);
}
);
width = 856;
}
);
metricLeft = "guCarrier-canadian";
metricRight = "guCarrier-canadian";
note = uni15FB;
unicode = 5627;
},
{
color = 9;
glyphname = "kkoCarrier-canadian";
lastChange = "2023-01-13 15:53:22 +0000";
layers = (
{
layerId = "F8006AA5-6E21-4BD1-AC52-9C52C7F343AA";
shapes = (
{
closed = 1;
nodes = (
(105,0,l),
(398,160,l),
(398,250,l),
(100,90,l),
(163,84,l),
(163,475,ls),
(163,567,o),
(202,617,o),
(271,617,cs),
(340,617,o),
(382,566,o),
(382,476,cs),
(382,0,l),
(471,0,l),
(471,476,ls),
(471,568,o),
(513,617,o),
(582,617,cs),
(653,617,o),
(693,568,o),
(693,475,cs),
(693,84,l),
(754,90,l),
(458,250,l),
(458,160,l),
(750,0,l),
(785,0,l),
(785,475,ls),
(785,619,o),
(709,702,o),
(588,702,cs),
(493,702,o),
(428,647,o),
(405,547,c),
(449,547,l),
(421,649,o),
(356,702,o),
(266,702,cs),
(144,702,o),
(71,617,o),
(71,476,cs),
(71,0,l)
);
}
);
width = 856;
}
);
metricLeft = "guCarrier-canadian";
metricRight = "guCarrier-canadian";
note = uni15FC;
unicode = 5628;
},
{
color = 9;
glyphname = "kkeCarrier-canadian";
lastChange = "2023-01-13 15:53:22 +0000";
layers = (
{
layerId = "F8006AA5-6E21-4BD1-AC52-9C52C7F343AA";
shapes = (
{
closed = 1;
nodes = (
(440,0,ls),
(582,0,o),
(655,68,o),
(655,186,cs),
(655,269,o),
(605,332,o),
(528,358,c),
(527,330,l),
(608,354,o),
(655,415,o),
(655,501,cs),
(655,620,o),
(580,690,o),
(440,690,cs),
(71,690,l),
(71,664,l),
(177,384,l),
(82,384,l),
(82,306,l),
(177,306,l),
(71,26,l),
(71,0,l)
);
},
{
closed = 1;
nodes = (
(273,306,l),
(426,306,ls),
(512,306,o),
(558,265,o),
(558,190,cs),
(558,118,o),
(516,79,o),
(423,79,cs),
(146,79,l),
(173,39,l)
);
},
{
closed = 1;
nodes = (
(172,651,l),
(144,611,l),
(423,611,ls),
(516,611,o),
(558,572,o),
(558,498,cs),
(558,424,o),
(511,384,o),
(425,384,cs),
(272,384,l)
);
}
);
width = 726;
}
);
metricRight = "geCarrier-canadian";
note = uni15FD;
unicode = 5629;
},
{
color = 9;
glyphname = "kkeeCarrier-canadian";
lastChange = "2023-01-13 15:53:22 +0000";
layers = (
{
layerId = "F8006AA5-6E21-4BD1-AC52-9C52C7F343AA";
shapes = (
{
closed = 1;
nodes = (
(440,0,ls),
(582,0,o),
(655,68,o),
(655,186,cs),
(655,269,o),
(605,332,o),
(528,358,c),
(527,330,l),
(608,354,o),
(655,415,o),
(655,501,cs),
(655,620,o),
(580,690,o),
(440,690,cs),
(71,690,l),
(71,664,l),
(177,384,l),
(82,384,l),
(82,306,l),
(177,306,l),
(71,26,l),
(71,0,l)
);
},
{
closed = 1;
nodes = (
(273,308,l),
(347,308,l),
(347,224,l),
(411,224,l),
(411,327,l),
(386,308,l),
(431,308,ls),
(513,308,o),
(558,267,o),
(558,191,cs),
(558,118,o),
(516,79,o),
(423,79,cs),
(145,79,l),
(173,39,l)
);
},
{
closed = 1;
nodes = (
(411,467,l),
(347,467,l),
(347,383,l),
(272,383,l),
(171,651,l),
(144,611,l),
(423,611,ls),
(516,611,o),
(558,572,o),
(558,497,cs),
(558,422,o),
(513,383,o),
(431,383,cs),
(386,383,l),
(411,365,l)
);
}
);
width = 726;
}
);
metricLeft = "kkeCarrier-canadian";
metricRight = "geCarrier-canadian";
note = uni15FE;
unicode = 5630;
},
{
color = 9;
glyphname = "kkiCarrier-canadian";
lastChange = "2023-01-13 15:53:22 +0000";
layers = (
{
layerId = "F8006AA5-6E21-4BD1-AC52-9C52C7F343AA";
shapes = (
{
closed = 1;
nodes = (
(440,0,ls),
(582,0,o),
(655,68,o),
(655,186,cs),
(655,269,o),
(605,332,o),
(528,358,c),
(527,330,l),
(608,354,o),
(655,415,o),
(655,501,cs),
(655,620,o),
(580,690,o),
(440,690,cs),
(71,690,l),
(71,664,l),
(177,384,l),
(82,384,l),
(82,306,l),
(177,306,l),
(71,26,l),
(71,0,l)
);
},
{
closed = 1;
nodes = (
(273,310,l),
(304,310,l),
(316,282,o),
(343,263,o),
(376,263,cs),
(418,263,o),
(450,297,o),
(454,335,c),
(406,310,l),
(431,310,ls),
(513,310,o),
(558,267,o),
(558,191,cs),
(558,118,o),
(516,79,o),
(423,79,cs),
(145,79,l),
(173,39,l)
);
},
{
closed = 1;
nodes = (
(451,396,o),
(419,428,o),
(376,428,cs),
(343,428,o),
(316,409,o),
(304,382,c),
(272,382,l),
(171,651,l),
(144,611,l),
(423,611,ls),
(516,611,o),
(558,572,o),
(558,497,cs),
(558,422,o),
(513,382,o),
(431,382,cs),
(407,382,l),
(455,355,l)
);
}
);
width = 726;
}
);
metricLeft = "kkeCarrier-canadian";
metricRight = "geCarrier-canadian";
note = uni15FF;
unicode = 5631;
},
{
color = 9;
glyphname = "kkaCarrier-canadian";
lastChange = "2023-01-13 15:53:22 +0000";
layers = (
{
layerId = "F8006AA5-6E21-4BD1-AC52-9C52C7F343AA";
shapes = (
{
closed = 1;
nodes = (
(654,0,l),
(654,26,l),
(550,306,l),
(637,306,l),
(637,384,l),
(550,384,l),
(654,664,l),
(654,690,l),
(287,690,ls),
(147,690,o),
(71,620,o),
(71,501,cs),
(71,415,o),
(119,355,o),
(200,332,c),
(198,359,l),
(121,333,o),
(71,269,o),
(71,186,cs),
(71,68,o),
(145,0,o),
(287,0,cs)
);
},
{
closed = 1;
nodes = (
(582,79,l),
(303,79,ls),
(211,79,o),
(168,118,o),
(168,190,cs),
(168,265,o),
(214,306,o),
(300,306,cs),
(453,306,l),
(554,39,l)
);
},
{
closed = 1;
nodes = (
(214,384,o),
(168,424,o),
(168,498,cs),
(168,572,o),
(211,611,o),
(303,611,cs),
(581,611,l),
(554,651,l),
(453,384,l),
(301,384,ls)
);
}
);
width = 725;
}
);
metricLeft = "=|geCarrier-canadian";
metricRight = "=|kkeCarrier-canadian";
note = uni1600;
unicode = 5632;
},
{
color = 6;
glyphname = "kkCarrier-canadian";
lastChange = "2023-01-13 15:53:22 +0000";
layers = (
{
layerId = "F8006AA5-6E21-4BD1-AC52-9C52C7F343AA";
shapes = (
{
closed = 1;
nodes = (
(221,183,l),
(375,513,l),
(375,527,l),
(309,527,l),
(185,252,l),
(238,252,l),
(115,527,l),
(48,527,l),
(48,513,l),
(202,183,l)
);
}
);
width = 423;
}
);
note = uni1601;
unicode = 5633;
},
{
color = 9;
glyphname = "nuCarrier-canadian";
lastChange = "2023-01-13 15:53:22 +0000";
layers = (
{
layerId = "F8006AA5-6E21-4BD1-AC52-9C52C7F343AA";
shapes = (
{
closed = 1;
nodes = (
(542,-13,o),
(644,94,o),
(644,270,cs),
(644,303,l),
(549,303,l),
(549,267,ls),
(549,140,o),
(479,74,o),
(363,74,cs),
(230,74,o),
(164,148,o),
(164,299,cs),
(164,690,l),
(69,690,l),
(69,295,ls),
(69,95,o),
(174,-13,o),
(361,-13,cs)
);
}
);
width = 707;
}
);
metricLeft = "te-canadian";
note = uni1602;
unicode = 5634;
},
{
color = 9;
glyphname = "noCarrier-canadian";
lastChange = "2023-01-13 15:53:22 +0000";
layers = (
{
layerId = "F8006AA5-6E21-4BD1-AC52-9C52C7F343AA";
shapes = (
{
closed = 1;
nodes = (
(639,0,l),
(639,395,ls),
(639,595,o),
(534,702,o),
(346,702,cs),
(166,702,o),
(63,596,o),
(63,419,cs),
(63,386,l),
(158,386,l),
(158,423,ls),
(158,550,o),
(229,615,o),
(345,615,cs),
(477,615,o),
(543,542,o),
(543,390,cs),
(543,0,l)
);
}
);
width = 708;
}
);
metricLeft = "=|nuCarrier-canadian";
metricRight = "te-canadian";
note = uni1603;
unicode = 5635;
},
{
color = 9;
glyphname = "neCarrier-canadian";
lastChange = "2023-01-13 15:53:52 +0000";
layers = (
{
anchors = (
{
name = middle_center_can;
pos = (316,344);
}
);
layerId = "F8006AA5-6E21-4BD1-AC52-9C52C7F343AA";
shapes = (
{
closed = 1;
nodes = (
(310,0,ls),
(518,0,o),
(639,128,o),
(639,346,cs),
(639,563,o),
(519,690,o),
(305,690,cs),
(51,690,l),
(51,603,l),
(303,603,ls),
(458,603,o),
(543,512,o),
(543,345,cs),
(543,179,o),
(458,86,o),
(306,86,cs),
(286,86,l),
(286,0,l)
);
}
);
width = 701;
}
);
metricRight = "theCarrier-canadian";
note = uni1604;
unicode = 5636;
},
{
color = 9;
glyphname = "naCarrier-canadian";
lastChange = "2023-01-13 15:53:22 +0000";
layers = (
{
layerId = "F8006AA5-6E21-4BD1-AC52-9C52C7F343AA";
shapes = (
{
closed = 1;
nodes = (
(649,0,l),
(649,87,l),
(396,87,ls),
(242,87,o),
(157,179,o),
(157,345,cs),
(157,512,o),
(242,604,o),
(393,604,cs),
(414,604,l),
(414,690,l),
(389,690,ls),
(182,690,o),
(62,562,o),
(62,345,cs),
(62,128,o),
(182,0,o),
(392,0,cs)
);
}
);
width = 700;
}
);
metricLeft = "=|theCarrier-canadian";
metricRight = "=|neCarrier-canadian";
note = uni1607;
unicode = 5639;
},
{
color = 9;
glyphname = "muCarrier-canadian";
lastChange = "2023-01-13 15:53:22 +0000";
layers = (
{
layerId = "F8006AA5-6E21-4BD1-AC52-9C52C7F343AA";
shapes = (
{
closed = 1;
nodes = (
(360,-13,o),
(424,39,o),
(450,133,c),
(410,133,l),
(440,37,o),
(502,-13,o),
(590,-13,cs),
(713,-13,o),
(785,72,o),
(785,213,cs),
(785,390,l),
(693,390,l),
(693,214,ls),
(693,123,o),
(655,72,o),
(585,72,cs),
(517,72,o),
(475,124,o),
(475,213,cs),
(475,390,l),
(384,390,l),
(384,213,ls),
(384,122,o),
(344,72,o),
(274,72,cs),
(204,72,o),
(163,122,o),
(163,214,cs),
(163,690,l),
(71,690,l),
(71,214,ls),
(71,71,o),
(147,-13,o),
(269,-13,cs)
);
}
);
width = 856;
}
);
metricLeft = "guCarrier-canadian";
metricRight = "=|";
note = uni1608;
unicode = 5640;
},
{
color = 9;
glyphname = "moCarrier-canadian";
lastChange = "2023-01-13 15:53:22 +0000";
layers = (
{
layerId = "F8006AA5-6E21-4BD1-AC52-9C52C7F343AA";
shapes = (
{
closed = 1;
nodes = (
(785,0,l),
(785,475,ls),
(785,618,o),
(709,702,o),
(589,702,cs),
(498,702,o),
(435,651,o),
(409,556,c),
(449,556,l),
(419,653,o),
(356,702,o),
(267,702,cs),
(144,702,o),
(71,618,o),
(71,476,cs),
(71,299,l),
(163,299,l),
(163,475,ls),
(163,567,o),
(202,617,o),
(272,617,cs),
(341,617,o),
(383,566,o),
(383,476,cs),
(383,299,l),
(473,299,l),
(473,476,ls),
(473,566,o),
(515,617,o),
(582,617,cs),
(653,617,o),
(693,567,o),
(693,475,cs),
(693,0,l)
);
}
);
width = 856;
}
);
metricLeft = "=|muCarrier-canadian";
metricRight = "guCarrier-canadian";
note = uni1609;
unicode = 5641;
},
{
color = 9;
glyphname = "meCarrier-canadian";
lastChange = "2023-01-13 15:53:22 +0000";
layers = (
{
layerId = "F8006AA5-6E21-4BD1-AC52-9C52C7F343AA";
shapes = (
{
closed = 1;
nodes = (
(423,0,ls),
(565,0,o),
(639,68,o),
(639,186,cs),
(639,269,o),
(588,333,o),
(508,360,c),
(508,329,l),
(590,353,o),
(639,414,o),
(639,501,cs),
(639,620,o),
(563,690,o),
(423,690,cs),
(51,690,l),
(51,611,l),
(407,611,ls),
(499,611,o),
(542,572,o),
(542,498,cs),
(542,424,o),
(495,384,o),
(409,384,cs),
(286,384,l),
(286,306,l),
(410,306,ls),
(496,306,o),
(542,265,o),
(542,190,cs),
(542,118,o),
(499,79,o),
(407,79,cs),
(286,79,l),
(286,0,l)
);
}
);
width = 710;
}
);
metricLeft = "neCarrier-canadian";
metricRight = "geCarrier-canadian";
note = uni160A;
unicode = 5642;
},
{
color = 9;
glyphname = "meeCarrier-canadian";
lastChange = "2023-01-13 15:53:22 +0000";
layers = (
{
layerId = "F8006AA5-6E21-4BD1-AC52-9C52C7F343AA";
shapes = (
{
closed = 1;
nodes = (
(423,0,ls),
(565,0,o),
(639,68,o),
(639,186,cs),
(639,269,o),
(588,332,o),
(512,358,c),
(510,330,l),
(591,354,o),
(639,415,o),
(639,501,cs),
(639,620,o),
(563,690,o),
(423,690,cs),
(51,690,l),
(51,611,l),
(407,611,ls),
(499,611,o),
(542,572,o),
(542,497,cs),
(542,422,o),
(496,383,o),
(411,383,cs),
(351,383,l),
(351,465,l),
(286,465,l),
(286,226,l),
(351,226,l),
(351,308,l),
(412,308,ls),
(497,308,o),
(542,267,o),
(542,191,cs),
(542,118,o),
(499,79,o),
(407,79,cs),
(286,79,l),
(286,0,l)
);
}
);
width = 710;
}
);
metricLeft = "neCarrier-canadian";
metricRight = "geCarrier-canadian";
note = uni160B;
unicode = 5643;
},
{
color = 9;
glyphname = "miCarrier-canadian";
lastChange = "2023-01-13 15:53:22 +0000";
layers = (
{
layerId = "F8006AA5-6E21-4BD1-AC52-9C52C7F343AA";
shapes = (
{
closed = 1;
nodes = (
(423,0,ls),
(565,0,o),
(639,68,o),
(639,186,cs),
(639,269,o),
(588,332,o),
(512,358,c),
(510,330,l),
(591,354,o),
(639,415,o),
(639,501,cs),
(639,620,o),
(563,690,o),
(423,690,cs),
(51,690,l),
(51,611,l),
(407,611,ls),
(499,611,o),
(542,572,o),
(542,497,cs),
(542,422,o),
(496,383,o),
(415,383,cs),
(347,383,l),
(399,355,l),
(394,397,o),
(360,428,o),
(318,428,cs),
(271,428,o),
(237,391,o),
(237,346,cs),
(237,300,o),
(272,263,o),
(318,263,cs),
(360,263,o),
(393,296,o),
(398,335,c),
(346,308,l),
(415,308,ls),
(497,308,o),
(542,267,o),
(542,191,cs),
(542,118,o),
(499,79,o),
(407,79,cs),
(286,79,l),
(286,0,l)
);
}
);
width = 710;
}
);
metricLeft = "neCarrier-canadian";
metricRight = "geCarrier-canadian";
note = uni160C;
unicode = 5644;
},
{
color = 9;
glyphname = "maCarrier-canadian";
lastChange = "2023-01-13 15:53:22 +0000";
layers = (
{
layerId = "F8006AA5-6E21-4BD1-AC52-9C52C7F343AA";
shapes = (
{
closed = 1;
nodes = (
(659,0,l),
(659,79,l),
(303,79,ls),
(211,79,o),
(168,117,o),
(168,190,cs),
(168,265,o),
(214,306,o),
(300,306,cs),
(424,306,l),
(424,384,l),
(301,384,ls),
(215,384,o),
(168,424,o),
(168,498,cs),
(168,572,o),
(211,611,o),
(303,611,cs),
(424,611,l),
(424,690,l),
(287,690,ls),
(146,690,o),
(71,620,o),
(71,502,cs),
(71,415,o),
(121,355,o),
(201,331,c),
(201,361,l),
(121,335,o),
(71,270,o),
(71,186,cs),
(71,69,o),
(145,0,o),
(287,0,cs)
);
}
);
width = 710;
}
);
metricLeft = "=|geCarrier-canadian";
metricRight = "=|neCarrier-canadian";
note = uni160D;
unicode = 5645;
},
{
color = 9;
glyphname = "yuCarrier-canadian";
lastChange = "2023-01-13 15:53:52 +0000";
layers = (
{
layerId = "F8006AA5-6E21-4BD1-AC52-9C52C7F343AA";
shapes = (
{
closed = 1;
nodes = (
(571,-13,o),
(686,127,o),
(686,389,cs),
(686,601,o),
(611,702,o),
(489,702,cs),
(385,702,o),
(313,627,o),
(313,501,cs),
(313,380,o),
(382,304,o),
(485,304,cs),
(499,304,o),
(518,307,o),
(529,311,c),
(529,387,l),
(521,385,o),
(511,384,o),
(495,384,cs),
(430,384,o),
(398,426,o),
(398,504,cs),
(398,580,o),
(430,623,o),
(486,623,cs),
(555,623,o),
(594,562,o),
(594,392,cs),
(594,165,o),
(513,74,o),
(374,74,cs),
(242,74,o),
(164,152,o),
(164,314,cs),
(164,690,l),
(69,690,l),
(69,309,ls),
(69,100,o),
(187,-13,o),
(370,-13,cs)
);
}
);
width = 755;
}
);
metricLeft = "te-canadian";
metricRight = "te-canadian";
note = uni160E;
unicode = 5646;
},
{
color = 9;
glyphname = "yoCarrier-canadian";
lastChange = "2023-01-13 15:53:52 +0000";
layers = (
{
layerId = "F8006AA5-6E21-4BD1-AC52-9C52C7F343AA";
shapes = (
{
closed = 1;
nodes = (
(369,-13,o),
(441,63,o),
(441,188,cs),
(441,310,o),
(373,385,o),
(270,385,cs),
(255,385,o),
(237,383,o),
(225,379,c),
(225,302,l),
(234,304,o),
(243,306,o),
(260,306,cs),
(325,306,o),
(356,264,o),
(356,185,cs),
(356,110,o),
(325,67,o),
(269,67,cs),
(199,67,o),
(160,128,o),
(160,298,cs),
(160,525,o),
(242,615,o),
(381,615,cs),
(513,615,o),
(590,538,o),
(590,376,cs),
(590,0,l),
(686,0,l),
(686,381,ls),
(686,589,o),
(567,702,o),
(384,702,cs),
(184,702,o),
(69,563,o),
(69,300,cs),
(69,89,o),
(144,-13,o),
(266,-13,cs)
);
}
);
width = 755;
}
);
metricLeft = "te-canadian";
metricRight = "te-canadian";
note = uni160F;
unicode = 5647;
},
{
color = 9;
glyphname = "yeCarrier-canadian";
lastChange = "2023-01-13 15:53:52 +0000";
layers = (
{
layerId = "F8006AA5-6E21-4BD1-AC52-9C52C7F343AA";
shapes = (
{
closed = 1;
nodes = (
(523,-13,o),
(639,127,o),
(639,342,cs),
(639,565,o),
(516,690,o),
(289,690,cs),
(77,690,l),
(77,603,l),
(293,603,ls),
(460,603,o),
(543,513,o),
(543,339,cs),
(543,168,o),
(473,70,o),
(319,70,cs),
(196,70,o),
(147,132,o),
(147,213,cs),
(147,289,o),
(182,330,o),
(236,330,cs),
(292,330,o),
(324,287,o),
(324,216,cs),
(324,190,o),
(322,175,o),
(319,158,c),
(396,158,l),
(401,182,o),
(403,197,o),
(403,224,cs),
(403,331,o),
(341,408,o),
(237,408,cs),
(130,408,o),
(62,329,o),
(62,212,cs),
(62,88,o),
(150,-13,o),
(319,-13,cs)
);
}
);
width = 701;
}
);
metricRight = "theCarrier-canadian";
note = uni1610;
unicode = 5648;
},
{
color = 9;
glyphname = "yeeCarrier-canadian";
lastChange = "2023-01-13 15:53:52 +0000";
layers = (
{
layerId = "F8006AA5-6E21-4BD1-AC52-9C52C7F343AA";
shapes = (
{
closed = 1;
nodes = (
(523,-13,o),
(639,127,o),
(639,342,cs),
(639,565,o),
(516,690,o),
(289,690,cs),
(77,690,l),
(77,603,l),
(293,603,ls),
(460,603,o),
(543,513,o),
(543,339,cs),
(543,168,o),
(473,70,o),
(319,70,cs),
(196,70,o),
(147,130,o),
(147,217,cs),
(147,288,o),
(181,330,o),
(230,330,cs),
(282,330,o),
(313,290,o),
(313,221,cs),
(313,180,l),
(370,180,l),
(370,496,l),
(313,496,l),
(313,300,l),
(325,300,l),
(317,369,o),
(275,408,o),
(210,408,cs),
(124,408,o),
(62,331,o),
(62,216,cs),
(62,86,o),
(149,-13,o),
(319,-13,cs)
);
}
);
width = 701;
}
);
metricRight = "theCarrier-canadian";
metricWidth = "yeCarrier-canadian";
note = uni1611;
unicode = 5649;
},
{
color = 9;
glyphname = "yiCarrier-canadian";
lastChange = "2023-01-13 15:53:52 +0000";
layers = (
{
layerId = "F8006AA5-6E21-4BD1-AC52-9C52C7F343AA";
shapes = (
{
closed = 1;
nodes = (
(523,-13,o),
(639,127,o),
(639,342,cs),
(639,565,o),
(516,690,o),
(289,690,cs),
(77,690,l),
(77,603,l),
(293,603,ls),
(460,603,o),
(543,513,o),
(543,339,cs),
(543,168,o),
(473,70,o),
(323,70,cs),
(197,70,o),
(147,129,o),
(147,204,cs),
(147,281,o),
(187,318,o),
(260,315,c),
(217,339,l),
(221,303,o),
(251,273,o),
(291,273,cs),
(332,273,o),
(362,306,o),
(362,346,cs),
(362,386,o),
(331,416,o),
(290,416,cs),
(263,416,o),
(241,403,o),
(229,383,c),
(124,377,o),
(62,305,o),
(62,199,cs),
(62,84,o),
(150,-13,o),
(319,-13,cs)
);
}
);
width = 701;
}
);
metricRight = "theCarrier-canadian";
metricWidth = "yeCarrier-canadian";
note = uni1612;
unicode = 5650;
},
{
color = 9;
glyphname = "yaCarrier-canadian";
lastChange = "2023-01-13 15:53:52 +0000";
layers = (
{
layerId = "F8006AA5-6E21-4BD1-AC52-9C52C7F343AA";
shapes = (
{
closed = 1;
nodes = (
(622,0,l),
(622,87,l),
(408,87,ls),
(240,87,o),
(157,177,o),
(157,351,cs),
(157,522,o),
(227,620,o),
(383,620,cs),
(503,620,o),
(554,557,o),
(554,477,cs),
(554,401,o),
(518,359,o),
(464,359,cs),
(408,359,o),
(377,403,o),
(377,473,cs),
(377,499,o),
(379,515,o),
(382,531,c),
(304,531,l),
(299,509,o),
(298,493,o),
(298,466,cs),
(298,358,o),
(359,282,o),
(464,282,cs),
(570,282,o),
(638,360,o),
(638,478,cs),
(638,602,o),
(551,702,o),
(383,702,cs),
(178,702,o),
(62,563,o),
(62,348,cs),
(62,125,o),
(185,0,o),
(412,0,cs)
);
}
);
width = 700;
}
);
metricLeft = "=|theCarrier-canadian";
metricRight = "=|yeCarrier-canadian";
note = uni1613;
unicode = 5651;
},
{
color = 9;
glyphname = "juCarrier-canadian";
lastChange = "2023-01-13 15:53:22 +0000";
layers = (
{
layerId = "F8006AA5-6E21-4BD1-AC52-9C52C7F343AA";
shapes = (
{
closed = 1;
nodes = (
(558,-13,o),
(656,80,o),
(656,220,cs),
(656,329,o),
(589,408,o),
(483,408,cs),
(380,408,o),
(316,331,o),
(316,224,cs),
(316,197,o),
(318,181,o),
(323,158,c),
(400,158,l),
(397,175,o),
(395,191,o),
(395,216,cs),
(395,287,o),
(429,330,o),
(483,330,cs),
(538,330,o),
(572,288,o),
(572,221,cs),
(572,126,o),
(513,70,o),
(392,70,cs),
(243,70,o),
(167,152,o),
(167,306,cs),
(167,511,o),
(300,603,o),
(530,603,cs),
(640,603,l),
(640,690,l),
(64,690,l),
(64,607,l),
(377,607,l),
(461,642,l),
(212,642,o),
(72,515,o),
(72,302,cs),
(72,110,o),
(194,-13,o),
(389,-13,cs)
);
}
);
width = 718;
}
);
metricRight = "=|yeCarrier-canadian";
note = uni1614;
unicode = 5652;
},
{
color = 9;
glyphname = "juSayisi-canadian";
lastChange = "2023-01-13 15:53:22 +0000";
layers = (
{
anchors = (
{
name = top_center_can;
pos = (365,690);
}
);
layerId = "F8006AA5-6E21-4BD1-AC52-9C52C7F343AA";
shapes = (
{
closed = 1;
nodes = (
(525,-13,o),
(646,110,o),
(646,302,cs),
(646,515,o),
(507,642,o),
(258,642,c),
(342,607,l),
(655,607,l),
(655,690,l),
(77,690,l),
(77,603,l),
(188,603,ls),
(418,603,o),
(551,511,o),
(551,306,cs),
(551,152,o),
(474,70,o),
(326,70,cs),
(206,70,o),
(147,126,o),
(147,221,cs),
(147,288,o),
(181,330,o),
(235,330,cs),
(290,330,o),
(324,287,o),
(324,216,cs),
(324,191,o),
(322,175,o),
(319,158,c),
(396,158,l),
(401,181,o),
(403,197,o),
(403,224,cs),
(403,331,o),
(338,408,o),
(236,408,cs),
(129,408,o),
(62,329,o),
(62,220,cs),
(62,80,o),
(159,-13,o),
(329,-13,cs)
);
}
);
width = 719;
}
);
metricLeft = "yeCarrier-canadian";
metricRight = "=|juCarrier-canadian";
note = uni1615;
unicode = 5653;
},
{
color = 9;
glyphname = "joCarrier-canadian";
lastChange = "2023-01-13 15:53:22 +0000";
layers = (
{
layerId = "F8006AA5-6E21-4BD1-AC52-9C52C7F343AA";
shapes = (
{
closed = 1;
nodes = (
(655,0,l),
(655,83,l),
(342,83,l),
(258,47,l),
(507,47,o),
(646,175,o),
(646,387,cs),
(646,580,o),
(525,702,o),
(329,702,cs),
(159,702,o),
(62,610,o),
(62,469,cs),
(62,360,o),
(129,282,o),
(236,282,cs),
(338,282,o),
(403,358,o),
(403,466,cs),
(403,493,o),
(401,509,o),
(396,531,c),
(319,531,l),
(322,515,o),
(324,498,o),
(324,473,cs),
(324,403,o),
(290,359,o),
(235,359,cs),
(181,359,o),
(147,402,o),
(147,469,cs),
(147,564,o),
(206,620,o),
(326,620,cs),
(474,620,o),
(551,538,o),
(551,384,cs),
(551,179,o),
(418,87,o),
(188,87,cs),
(77,87,l),
(77,0,l)
);
}
);
width = 719;
}
);
metricLeft = "yeCarrier-canadian";
metricRight = "=|juCarrier-canadian";
note = uni1616;
unicode = 5654;
},
{
color = 9;
glyphname = "jeCarrier-canadian";
lastChange = "2023-01-13 15:53:52 +0000";
layers = (
{
layerId = "F8006AA5-6E21-4BD1-AC52-9C52C7F343AA";
shapes = (
{
closed = 1;
nodes = (
(618,-13,o),
(694,89,o),
(694,300,cs),
(694,566,o),
(578,702,o),
(407,702,cs),
(250,702,o),
(157,598,o),
(150,392,c),
(171,412,l),
(171,690,l),
(75,690,l),
(75,0,l),
(172,0,l),
(172,269,ls),
(172,511,o),
(248,615,o),
(393,615,cs),
(521,615,o),
(601,521,o),
(601,298,cs),
(601,128,o),
(563,67,o),
(495,67,cs),
(439,67,o),
(406,110,o),
(406,185,cs),
(406,264,o),
(438,306,o),
(503,306,cs),
(518,306,o),
(528,304,o),
(537,302,c),
(537,379,l),
(525,383,o),
(507,385,o),
(493,385,cs),
(389,385,o),
(321,310,o),
(321,188,cs),
(321,63,o),
(393,-13,o),
(497,-13,cs)
);
}
);
width = 763;
}
);
metricLeft = "nunavuth-canadian";
metricRight = "te-canadian";
note = uni1617;
unicode = 5655;
},
{
color = 9;
glyphname = "jeeCarrier-canadian";
lastChange = "2023-01-13 15:53:52 +0000";
layers = (
{
layerId = "F8006AA5-6E21-4BD1-AC52-9C52C7F343AA";
shapes = (
{
closed = 1;
nodes = (
(618,-13,o),
(694,89,o),
(694,300,cs),
(694,566,o),
(578,702,o),
(407,702,cs),
(278,702,o),
(190,634,o),
(159,495,c),
(171,482,l),
(171,690,l),
(75,690,l),
(75,0,l),
(172,0,l),
(172,269,ls),
(172,511,o),
(248,615,o),
(393,615,cs),
(521,615,o),
(601,521,o),
(601,298,cs),
(601,137,o),
(562,67,o),
(480,67,cs),
(413,67,o),
(377,115,o),
(377,194,cs),
(377,265,o),
(403,303,o),
(448,318,c),
(448,232,l),
(501,232,l),
(501,457,l),
(448,457,l),
(448,375,l),
(374,357,o),
(321,294,o),
(321,185,cs),
(321,62,o),
(390,-13,o),
(494,-13,cs)
);
}
);
width = 763;
}
);
metricLeft = "nunavuth-canadian";
metricRight = "jeCarrier-canadian";
note = uni1618;
unicode = 5656;
},
{
color = 9;
glyphname = "jiCarrier-canadian";
lastChange = "2023-01-13 15:53:52 +0000";
layers = (
{
layerId = "F8006AA5-6E21-4BD1-AC52-9C52C7F343AA";
shapes = (
{
closed = 1;
nodes = (
(618,-13,o),
(694,89,o),
(694,300,cs),
(694,566,o),
(578,702,o),
(407,702,cs),
(278,702,o),
(190,634,o),
(159,495,c),
(171,482,l),
(171,690,l),
(75,690,l),
(75,0,l),
(172,0,l),
(172,269,ls),
(172,511,o),
(248,615,o),
(393,615,cs),
(521,615,o),
(601,521,o),
(601,298,cs),
(601,137,o),
(562,67,o),
(480,67,cs),
(413,67,o),
(377,115,o),
(377,194,cs),
(377,243,o),
(390,273,o),
(414,291,c),
(423,280,o),
(437,273,o),
(451,273,cs),
(493,273,o),
(522,306,o),
(522,346,cs),
(522,385,o),
(492,416,o),
(451,416,cs),
(405,416,o),
(376,376,o),
(382,335,c),
(345,306,o),
(321,257,o),
(321,185,cs),
(321,62,o),
(390,-13,o),
(494,-13,cs)
);
}
);
width = 763;
}
);
metricLeft = "nunavuth-canadian";
metricRight = "jeCarrier-canadian";
note = uni1619;
unicode = 5657;
},
{
color = 9;
glyphname = "jiSayisi-canadian";
lastChange = "2023-01-13 15:53:52 +0000";
layers = (
{
layerId = "F8006AA5-6E21-4BD1-AC52-9C52C7F343AA";
shapes = (
{
closed = 1;
nodes = (
(578,-13,o),
(694,124,o),
(694,389,cs),
(694,601,o),
(618,702,o),
(497,702,cs),
(393,702,o),
(321,627,o),
(321,501,cs),
(321,380,o),
(389,304,o),
(493,304,cs),
(507,304,o),
(525,307,o),
(537,311,c),
(537,387,l),
(528,385,o),
(518,384,o),
(503,384,cs),
(438,384,o),
(406,426,o),
(406,504,cs),
(406,580,o),
(438,623,o),
(493,623,cs),
(563,623,o),
(601,562,o),
(601,391,cs),
(601,169,o),
(521,74,o),
(393,74,cs),
(248,74,o),
(172,179,o),
(172,421,cs),
(172,690,l),
(75,690,l),
(75,0,l),
(171,0,l),
(171,278,l),
(150,298,l),
(157,92,o),
(250,-13,o),
(407,-13,cs)
);
}
);
width = 763;
}
);
metricLeft = "nunavuth-canadian";
metricRight = "jeCarrier-canadian";
note = uni161A;
unicode = 5658;
},
{
color = 9;
glyphname = "jaCarrier-canadian";
lastChange = "2023-01-13 15:53:22 +0000";
layers = (
{
anchors = (
{
name = top_center_can;
pos = (374,690);
}
);
layerId = "F8006AA5-6E21-4BD1-AC52-9C52C7F343AA";
shapes = (
{
closed = 1;
nodes = (
(512,-13,o),
(605,92,o),
(612,298,c),
(591,278,l),
(591,0,l),
(686,0,l),
(686,690,l),
(590,690,l),
(590,421,ls),
(590,179,o),
(513,74,o),
(369,74,cs),
(242,74,o),
(160,169,o),
(160,391,cs),
(160,562,o),
(199,623,o),
(269,623,cs),
(325,623,o),
(356,580,o),
(356,504,cs),
(356,426,o),
(325,384,o),
(259,384,cs),
(244,384,o),
(234,385,o),
(225,387,c),
(225,311,l),
(237,307,o),
(255,304,o),
(269,304,cs),
(373,304,o),
(441,380,o),
(441,501,cs),
(441,627,o),
(369,702,o),
(266,702,cs),
(144,702,o),
(69,601,o),
(69,389,cs),
(69,124,o),
(185,-13,o),
(355,-13,cs)
);
}
);
width = 761;
}
);
metricLeft = "=|jeCarrier-canadian";
metricRight = "nunavuth-canadian";
note = uni161B;
unicode = 5659;
},
{
color = 9;
glyphname = "jjuCarrier-canadian";
lastChange = "2023-01-13 15:53:22 +0000";
layers = (
{
layerId = "F8006AA5-6E21-4BD1-AC52-9C52C7F343AA";
shapes = (
{
closed = 1;
nodes = (
(555,-13,o),
(644,88,o),
(644,212,cs),
(644,329,o),
(576,408,o),
(469,408,cs),
(364,408,o),
(301,331,o),
(301,224,cs),
(301,197,o),
(303,181,o),
(309,158,c),
(386,158,l),
(384,175,o),
(381,192,o),
(381,216,cs),
(381,287,o),
(412,330,o),
(469,330,cs),
(522,330,o),
(557,288,o),
(557,213,cs),
(557,132,o),
(503,69,o),
(386,69,cs),
(233,69,o),
(163,163,o),
(163,313,cs),
(163,499,o),
(270,603,o),
(486,603,cs),
(629,603,l),
(629,690,l),
(481,690,ls),
(355,690,o),
(255,656,o),
(187,595,c),
(80,702,l),
(17,640,l),
(128,530,l),
(88,473,o),
(68,400,o),
(68,316,cs),
(68,122,o),
(183,-13,o),
(385,-13,cs)
);
}
);
width = 706;
}
);
metricRight = "=|yeCarrier-canadian";
note = uni161C;
unicode = 5660;
},
{
color = 9;
glyphname = "jjoCarrier-canadian";
lastChange = "2023-01-13 15:53:22 +0000";
layers = (
{
layerId = "F8006AA5-6E21-4BD1-AC52-9C52C7F343AA";
shapes = (
{
closed = 1;
nodes = (
(689,49,l),
(579,159,l),
(618,216,o),
(639,290,o),
(639,374,cs),
(639,568,o),
(524,702,o),
(324,702,cs),
(154,702,o),
(62,602,o),
(62,477,cs),
(62,360,o),
(129,282,o),
(237,282,cs),
(342,282,o),
(405,358,o),
(405,466,cs),
(405,493,o),
(403,509,o),
(397,531,c),
(320,531,l),
(323,515,o),
(325,497,o),
(325,473,cs),
(325,403,o),
(294,359,o),
(238,359,cs),
(184,359,o),
(149,402,o),
(149,476,cs),
(149,557,o),
(200,621,o),
(323,621,cs),
(473,621,o),
(543,526,o),
(543,377,cs),
(543,190,o),
(436,87,o),
(219,87,cs),
(77,87,l),
(77,0,l),
(225,0,ls),
(352,0,o),
(451,34,o),
(519,95,c),
(626,-13,l)
);
}
);
width = 706;
}
);
metricLeft = "yeCarrier-canadian";
metricRight = "=|jjuCarrier-canadian";
note = uni161D;
unicode = 5661;
},
{
color = 9;
glyphname = "jjeCarrier-canadian";
lastChange = "2023-01-13 15:53:22 +0000";
layers = (
{
layerId = "F8006AA5-6E21-4BD1-AC52-9C52C7F343AA";
shapes = (
{
closed = 1;
nodes = (
(626,-13,o),
(701,89,o),
(701,300,cs),
(701,563,o),
(590,702,o),
(393,702,cs),
(305,702,o),
(232,671,o),
(178,612,c),
(86,702,l),
(25,639,l),
(128,538,l),
(99,483,o),
(83,412,o),
(83,328,cs),
(83,0,l),
(180,0,l),
(180,327,ls),
(180,519,o),
(256,615,o),
(393,615,cs),
(527,615,o),
(609,525,o),
(609,298,cs),
(609,128,o),
(571,67,o),
(501,67,cs),
(445,67,o),
(412,110,o),
(412,185,cs),
(412,264,o),
(445,306,o),
(510,306,cs),
(526,306,o),
(536,304,o),
(545,302,c),
(545,379,l),
(532,383,o),
(515,385,o),
(500,385,cs),
(397,385,o),
(328,310,o),
(328,188,cs),
(328,63,o),
(401,-13,o),
(504,-13,cs)
);
}
);
width = 770;
}
);
metricRight = "jeCarrier-canadian";
note = uni161E;
unicode = 5662;
},
{
color = 9;
glyphname = "jjeeCarrier-canadian";
lastChange = "2023-01-13 15:53:22 +0000";
layers = (
{
layerId = "F8006AA5-6E21-4BD1-AC52-9C52C7F343AA";
shapes = (
{
closed = 1;
nodes = (
(626,-13,o),
(701,89,o),
(701,300,cs),
(701,563,o),
(590,702,o),
(393,702,cs),
(305,702,o),
(232,671,o),
(178,612,c),
(86,702,l),
(25,639,l),
(128,538,l),
(99,483,o),
(83,412,o),
(83,328,cs),
(83,0,l),
(180,0,l),
(180,327,ls),
(180,519,o),
(256,615,o),
(393,615,cs),
(527,615,o),
(609,525,o),
(609,298,cs),
(609,137,o),
(570,67,o),
(487,67,cs),
(420,67,o),
(384,115,o),
(384,194,cs),
(384,264,o),
(411,302,o),
(452,316,c),
(452,232,l),
(505,232,l),
(505,456,l),
(452,456,l),
(452,374,l),
(380,357,o),
(328,292,o),
(328,185,cs),
(328,62,o),
(398,-13,o),
(500,-13,cs)
);
}
);
width = 770;
}
);
metricLeft = "jjeCarrier-canadian";
metricRight = "jeCarrier-canadian";
note = uni161F;
unicode = 5663;
},
{
color = 9;
glyphname = "jjiCarrier-canadian";
lastChange = "2023-01-13 15:53:22 +0000";
layers = (
{
layerId = "F8006AA5-6E21-4BD1-AC52-9C52C7F343AA";
shapes = (
{
closed = 1;
nodes = (
(626,-13,o),
(701,89,o),
(701,300,cs),
(701,563,o),
(590,702,o),
(393,702,cs),
(305,702,o),
(232,671,o),
(178,612,c),
(86,702,l),
(25,639,l),
(128,538,l),
(99,483,o),
(83,412,o),
(83,328,cs),
(83,0,l),
(180,0,l),
(180,327,ls),
(180,519,o),
(256,615,o),
(393,615,cs),
(527,615,o),
(609,525,o),
(609,298,cs),
(609,137,o),
(570,67,o),
(487,67,cs),
(420,67,o),
(384,115,o),
(384,194,cs),
(384,246,o),
(400,278,o),
(426,294,c),
(436,282,o),
(451,273,o),
(469,273,cs),
(510,273,o),
(539,306,o),
(539,346,cs),
(539,385,o),
(509,416,o),
(469,416,cs),
(426,416,o),
(397,382,o),
(399,344,c),
(355,316,o),
(328,263,o),
(328,185,cs),
(328,62,o),
(398,-13,o),
(500,-13,cs)
);
}
);
width = 770;
}
);
metricLeft = "jjeCarrier-canadian";
metricRight = "jeCarrier-canadian";
note = uni1620;
unicode = 5664;
},
{
color = 9;
glyphname = "jjaCarrier-canadian";
lastChange = "2023-01-13 15:53:22 +0000";
layers = (
{
layerId = "F8006AA5-6E21-4BD1-AC52-9C52C7F343AA";
shapes = (
{
closed = 1;
nodes = (
(464,-13,o),
(538,18,o),
(591,77,c),
(683,-13,l),
(745,51,l),
(642,152,l),
(670,207,o),
(686,277,o),
(686,361,cs),
(686,690,l),
(590,690,l),
(590,363,ls),
(590,171,o),
(513,74,o),
(377,74,cs),
(242,74,o),
(160,165,o),
(160,392,cs),
(160,562,o),
(199,623,o),
(269,623,cs),
(325,623,o),
(356,580,o),
(356,504,cs),
(356,426,o),
(325,384,o),
(260,384,cs),
(244,384,o),
(234,385,o),
(225,387,c),
(225,311,l),
(237,307,o),
(255,304,o),
(270,304,cs),
(373,304,o),
(441,380,o),
(441,501,cs),
(441,627,o),
(369,702,o),
(266,702,cs),
(144,702,o),
(69,601,o),
(69,389,cs),
(69,127,o),
(179,-13,o),
(376,-13,cs)
);
}
);
width = 770;
}
);
metricLeft = "=|jeCarrier-canadian";
metricRight = "=|jjeCarrier-canadian";
note = uni1621;
unicode = 5665;
},
{
color = 9;
glyphname = "luCarrier-canadian";
lastChange = "2023-01-13 15:53:22 +0000";
layers = (
{
layerId = "F8006AA5-6E21-4BD1-AC52-9C52C7F343AA";
shapes = (
{
closed = 1;
nodes = (
(538,-13,o),
(646,95,o),
(646,294,cs),
(646,690,l),
(550,690,l),
(550,293,ls),
(550,145,o),
(479,74,o),
(365,74,cs),
(234,74,o),
(165,164,o),
(165,325,cs),
(165,503,o),
(240,604,o),
(386,612,c),
(386,690,l),
(61,690,l),
(61,610,l),
(273,610,l),
(339,643,l),
(173,628,o),
(70,524,o),
(70,311,cs),
(70,111,o),
(176,-13,o),
(361,-13,cs)
);
}
);
width = 715;
}
);
metricRight = "te-canadian";
note = uni1622;
unicode = 5666;
},
{
color = 9;
glyphname = "loCarrier-canadian";
lastChange = "2023-01-13 15:53:22 +0000";
layers = (
{
layerId = "F8006AA5-6E21-4BD1-AC52-9C52C7F343AA";
shapes = (
{
closed = 1;
nodes = (
(164,0,l),
(164,397,ls),
(164,545,o),
(235,615,o),
(353,615,cs),
(480,615,o),
(549,526,o),
(549,365,cs),
(549,186,o),
(475,86,o),
(327,77,c),
(327,0,l),
(653,0,l),
(653,80,l),
(440,80,l),
(375,46,l),
(541,62,o),
(644,166,o),
(644,379,cs),
(644,579,o),
(538,702,o),
(353,702,cs),
(176,702,o),
(69,595,o),
(69,396,cs),
(69,0,l)
);
}
);
width = 714;
}
);
metricLeft = "te-canadian";
metricRight = "=|luCarrier-canadian";
note = uni1623;
unicode = 5667;
},
{
color = 9;
glyphname = "leCarrier-canadian";
lastChange = "2023-01-13 15:53:22 +0000";
layers = (
{
anchors = (
{
name = middle_center_can;
pos = (345,348);
}
);
layerId = "F8006AA5-6E21-4BD1-AC52-9C52C7F343AA";
shapes = (
{
closed = 1;
nodes = (
(297,0,ls),
(514,0,o),
(633,128,o),
(633,357,cs),
(633,579,o),
(521,702,o),
(367,702,cs),
(248,702,o),
(169,627,o),
(149,523,c),
(157,523,l),
(157,690,l),
(71,690,l),
(71,382,l),
(153,382,l),
(158,526,o),
(230,615,o),
(345,615,cs),
(459,615,o),
(537,529,o),
(537,355,cs),
(537,179,o),
(455,87,o),
(295,87,cs),
(71,87,l),
(71,0,l)
);
}
);
width = 695;
}
);
metricRight = "theCarrier-canadian";
note = uni1624;
unicode = 5668;
},
{
color = 9;
glyphname = "laCarrier-canadian";
lastChange = "2023-01-13 15:53:52 +0000";
layers = (
{
layerId = "F8006AA5-6E21-4BD1-AC52-9C52C7F343AA";
shapes = (
{
closed = 1;
nodes = (
(622,0,l),
(622,87,l),
(399,87,ls),
(239,87,o),
(157,179,o),
(157,355,cs),
(157,529,o),
(236,615,o),
(351,615,cs),
(465,615,o),
(535,526,o),
(541,382,c),
(622,382,l),
(622,690,l),
(536,690,l),
(536,523,l),
(545,523,l),
(525,627,o),
(447,702,o),
(328,702,cs),
(174,702,o),
(62,579,o),
(62,357,cs),
(62,128,o),
(181,0,o),
(397,0,cs)
);
}
);
width = 693;
}
);
metricLeft = "=|theCarrier-canadian";
metricRight = "=|leCarrier-canadian";
note = uni1627;
unicode = 5671;
},
{
color = 1;
glyphname = "dluCarrier-canadian";
lastChange = "2023-01-13 15:53:22 +0000";
layers = (
{
layerId = "F8006AA5-6E21-4BD1-AC52-9C52C7F343AA";
shapes = (
{
closed = 1;
nodes = (
(538,-13,o),
(644,111,o),
(644,311,cs),
(644,492,o),
(571,592,o),
(456,628,c),
(439,616,l),
(639,616,l),
(639,535,l),
(710,535,l),
(710,771,l),
(639,771,l),
(639,690,l),
(327,690,l),
(327,611,l),
(475,604,o),
(549,503,o),
(549,325,cs),
(549,164,o),
(480,74,o),
(355,74,cs),
(235,74,o),
(164,147,o),
(164,295,cs),
(164,690,l),
(69,690,l),
(69,296,ls),
(69,97,o),
(176,-13,o),
(355,-13,cs)
);
}
);
width = 760;
}
);
metricLeft = "te-canadian";
note = uni1628;
unicode = 5672;
},
{
color = 9;
glyphname = "dloCarrier-canadian";
lastChange = "2023-01-13 15:53:22 +0000";
layers = (
{
layerId = "F8006AA5-6E21-4BD1-AC52-9C52C7F343AA";
shapes = (
{
closed = 1;
nodes = (
(710,-81,l),
(710,155,l),
(639,155,l),
(639,73,l),
(439,73,l),
(456,62,l),
(571,98,o),
(644,198,o),
(644,379,cs),
(644,579,o),
(538,702,o),
(357,702,cs),
(173,702,o),
(69,593,o),
(69,394,cs),
(69,0,l),
(164,0,l),
(164,395,ls),
(164,543,o),
(235,615,o),
(355,615,cs),
(480,615,o),
(549,526,o),
(549,365,cs),
(549,186,o),
(475,86,o),
(327,78,c),
(327,0,l),
(639,0,l),
(639,-81,l)
);
}
);
width = 760;
}
);
metricLeft = "te-canadian";
metricRight = "dluCarrier-canadian";
note = uni1629;
unicode = 5673;
},
{
color = 9;
glyphname = "dleCarrier-canadian";
lastChange = "2023-01-13 15:53:22 +0000";
layers = (
{
anchors = (
{
name = middle_center_can;
pos = (356,348);
}
);
layerId = "F8006AA5-6E21-4BD1-AC52-9C52C7F343AA";
shapes = (
{
closed = 1;
nodes = (
(308,0,ls),
(526,0,o),
(644,128,o),
(644,357,cs),
(644,579,o),
(533,702,o),
(379,702,cs),
(264,702,o),
(177,636,o),
(143,510,c),
(156,499,l),
(156,699,l),
(234,699,l),
(234,769,l),
(6,769,l),
(6,699,l),
(83,699,l),
(83,382,l),
(164,382,l),
(170,526,o),
(242,615,o),
(356,615,cs),
(471,615,o),
(549,529,o),
(549,355,cs),
(549,179,o),
(467,87,o),
(306,87,cs),
(83,87,l),
(83,0,l)
);
}
);
width = 706;
}
);
metricRight = "theCarrier-canadian";
note = uni162A;
unicode = 5674;
},
{
color = 9;
glyphname = "dlaCarrier-canadian";
lastChange = "2023-01-13 15:53:22 +0000";
layers = (
{
layerId = "F8006AA5-6E21-4BD1-AC52-9C52C7F343AA";
shapes = (
{
closed = 1;
nodes = (
(622,0,l),
(622,87,l),
(399,87,ls),
(241,87,o),
(157,177,o),
(157,355,cs),
(157,529,o),
(235,615,o),
(350,615,cs),
(464,615,o),
(535,526,o),
(541,382,c),
(622,382,l),
(622,699,l),
(700,699,l),
(700,769,l),
(472,769,l),
(472,699,l),
(551,699,l),
(551,499,l),
(563,510,l),
(529,636,o),
(442,702,o),
(327,702,cs),
(173,702,o),
(62,579,o),
(62,357,cs),
(62,126,o),
(182,0,o),
(397,0,cs)
);
}
);
width = 706;
}
);
metricLeft = "=|theCarrier-canadian";
metricRight = "=|dleCarrier-canadian";
note = uni162D;
unicode = 5677;
},
{
color = 9;
glyphname = "lhuCarrier-canadian";
lastChange = "2023-01-13 15:53:22 +0000";
layers = (
{
layerId = "F8006AA5-6E21-4BD1-AC52-9C52C7F343AA";
shapes = (
{
closed = 1;
nodes = (
(571,-13,o),
(678,112,o),
(678,316,cs),
(678,516,o),
(582,613,o),
(455,641,c),
(493,608,l),
(687,608,l),
(687,690,l),
(432,690,l),
(432,612,l),
(513,582,o),
(582,495,o),
(582,330,cs),
(582,161,o),
(513,74,o),
(374,74,cs),
(235,74,o),
(166,161,o),
(166,330,cs),
(166,495,o),
(235,582,o),
(316,612,c),
(316,690,l),
(61,690,l),
(61,608,l),
(254,608,l),
(293,641,l),
(165,613,o),
(70,516,o),
(70,316,cs),
(70,112,o),
(177,-13,o),
(374,-13,cs)
);
}
);
width = 748;
}
);
metricLeft = "luCarrier-canadian";
metricRight = "=|";
note = uni162E;
unicode = 5678;
},
{
color = 9;
glyphname = "lhoCarrier-canadian";
lastChange = "2023-01-13 15:53:22 +0000";
layers = (
{
layerId = "F8006AA5-6E21-4BD1-AC52-9C52C7F343AA";
shapes = (
{
closed = 1;
nodes = (
(316,0,l),
(316,77,l),
(235,108,o),
(166,195,o),
(166,359,cs),
(166,528,o),
(235,615,o),
(374,615,cs),
(513,615,o),
(582,528,o),
(582,359,cs),
(582,195,o),
(513,108,o),
(432,77,c),
(432,0,l),
(687,0,l),
(687,82,l),
(494,82,l),
(455,48,l),
(582,76,o),
(678,174,o),
(678,374,cs),
(678,578,o),
(571,702,o),
(374,702,cs),
(177,702,o),
(70,578,o),
(70,374,cs),
(70,174,o),
(165,76,o),
(293,48,c),
(255,82,l),
(61,82,l),
(61,0,l)
);
}
);
width = 748;
}
);
metricLeft = "luCarrier-canadian";
metricRight = "=|";
note = uni162F;
unicode = 5679;
},
{
color = 9;
glyphname = "lheCarrier-canadian";
lastChange = "2023-01-13 15:53:22 +0000";
layers = (
{
anchors = (
{
name = middle_center_can;
pos = (361,345);
}
);
layerId = "F8006AA5-6E21-4BD1-AC52-9C52C7F343AA";
shapes = (
{
closed = 1;
nodes = (
(545,-13,o),
(661,111,o),
(661,345,cs),
(661,579,o),
(545,702,o),
(382,702,cs),
(258,702,o),
(179,628,o),
(156,535,c),
(162,534,l),
(162,690,l),
(75,690,l),
(75,415,l),
(156,415,l),
(171,526,o),
(239,615,o),
(361,615,cs),
(478,615,o),
(565,530,o),
(565,345,cs),
(565,159,o),
(482,74,o),
(361,74,cs),
(239,74,o),
(171,163,o),
(156,274,c),
(75,274,l),
(75,0,l),
(162,0,l),
(162,156,l),
(156,155,l),
(179,62,o),
(258,-13,o),
(382,-13,cs)
);
}
);
width = 723;
}
);
metricLeft = "nunavuth-canadian";
metricRight = "theCarrier-canadian";
note = uni1630;
unicode = 5680;
},
{
color = 9;
glyphname = "lhaCarrier-canadian";
lastChange = "2023-01-13 15:53:52 +0000";
layers = (
{
layerId = "F8006AA5-6E21-4BD1-AC52-9C52C7F343AA";
shapes = (
{
closed = 1;
nodes = (
(465,-13,o),
(544,62,o),
(567,155,c),
(560,156,l),
(560,0,l),
(647,0,l),
(647,274,l),
(566,274,l),
(552,163,o),
(484,74,o),
(361,74,cs),
(244,74,o),
(157,159,o),
(157,345,cs),
(157,530,o),
(241,615,o),
(361,615,cs),
(484,615,o),
(552,526,o),
(566,415,c),
(647,415,l),
(647,690,l),
(560,690,l),
(560,534,l),
(567,535,l),
(544,628,o),
(465,702,o),
(341,702,cs),
(178,702,o),
(62,579,o),
(62,345,cs),
(62,111,o),
(178,-13,o),
(341,-13,cs)
);
}
);
width = 722;
}
);
metricLeft = "=|theCarrier-canadian";
metricRight = "nunavuth-canadian";
note = uni1633;
unicode = 5683;
},
{
color = 9;
glyphname = "tlhuCarrier-canadian";
lastChange = "2023-01-13 15:53:22 +0000";
layers = (
{
layerId = "F8006AA5-6E21-4BD1-AC52-9C52C7F343AA";
shapes = (
{
closed = 1;
nodes = (
(571,-13,o),
(678,112,o),
(678,316,cs),
(678,490,o),
(605,586,o),
(507,627,c),
(486,616,l),
(671,616,l),
(671,535,l),
(744,535,l),
(744,771,l),
(671,771,l),
(671,690,l),
(432,690,l),
(432,612,l),
(514,582,o),
(582,495,o),
(582,330,cs),
(582,161,o),
(513,74,o),
(374,74,cs),
(235,74,o),
(166,161,o),
(166,330,cs),
(166,495,o),
(234,582,o),
(316,612,c),
(316,690,l),
(61,690,l),
(61,608,l),
(249,608,l),
(227,621,l),
(135,578,o),
(70,484,o),
(70,316,cs),
(70,112,o),
(177,-13,o),
(374,-13,cs)
);
}
);
width = 785;
}
);
metricLeft = "lhuCarrier-canadian";
note = uni1634;
unicode = 5684;
},
{
color = 9;
glyphname = "tlhoCarrier-canadian";
lastChange = "2023-01-13 15:53:52 +0000";
layers = (
{
layerId = "F8006AA5-6E21-4BD1-AC52-9C52C7F343AA";
shapes = (
{
closed = 1;
nodes = (
(112,-81,l),
(112,0,l),
(352,0,l),
(352,77,l),
(270,108,o),
(202,195,o),
(202,359,cs),
(202,528,o),
(271,615,o),
(411,615,cs),
(549,615,o),
(618,528,o),
(618,359,cs),
(618,195,o),
(550,108,o),
(468,77,c),
(468,0,l),
(723,0,l),
(723,82,l),
(535,82,l),
(557,69,l),
(648,112,o),
(714,206,o),
(714,374,cs),
(714,578,o),
(608,702,o),
(411,702,cs),
(212,702,o),
(106,578,o),
(106,374,cs),
(106,200,o),
(179,103,o),
(277,63,c),
(297,73,l),
(112,73,l),
(112,155,l),
(41,155,l),
(41,-81,l)
);
}
);
width = 784;
}
);
metricLeft = "=|tlhuCarrier-canadian";
metricRight = "lhuCarrier-canadian";
note = uni1635;
unicode = 5685;
},
{
color = 9;
glyphname = "tlheCarrier-canadian";
lastChange = "2023-01-13 15:53:22 +0000";
layers = (
{
anchors = (
{
name = middle_center_can;
pos = (369,345);
}
);
layerId = "F8006AA5-6E21-4BD1-AC52-9C52C7F343AA";
shapes = (
{
closed = 1;
nodes = (
(553,-13,o),
(668,111,o),
(668,345,cs),
(668,579,o),
(553,702,o),
(390,702,cs),
(268,702,o),
(179,632,o),
(144,517,c),
(156,505,l),
(156,699,l),
(235,699,l),
(235,769,l),
(6,769,l),
(6,699,l),
(83,699,l),
(83,415,l),
(164,415,l),
(179,526,o),
(246,615,o),
(369,615,cs),
(486,615,o),
(573,531,o),
(573,345,cs),
(573,159,o),
(486,74,o),
(369,74,cs),
(246,74,o),
(179,163,o),
(164,274,c),
(83,274,l),
(83,0,l),
(170,0,l),
(170,177,l),
(162,158,l),
(183,66,o),
(265,-13,o),
(390,-13,cs)
);
}
);
width = 730;
}
);
metricLeft = "dleCarrier-canadian";
metricRight = "theCarrier-canadian";
note = uni1636;
unicode = 5686;
},
{
color = 9;
glyphname = "tlhaCarrier-canadian";
lastChange = "2023-01-13 15:53:22 +0000";
layers = (
{
layerId = "F8006AA5-6E21-4BD1-AC52-9C52C7F343AA";
shapes = (
{
closed = 1;
nodes = (
(466,-13,o),
(549,63,o),
(568,159,c),
(560,178,l),
(560,0,l),
(647,0,l),
(647,274,l),
(566,274,l),
(552,163,o),
(484,74,o),
(361,74,cs),
(244,74,o),
(157,159,o),
(157,345,cs),
(157,531,o),
(241,615,o),
(361,615,cs),
(484,615,o),
(552,526,o),
(566,415,c),
(647,415,l),
(647,699,l),
(725,699,l),
(725,769,l),
(496,769,l),
(496,699,l),
(574,699,l),
(574,504,l),
(586,516,l),
(553,635,o),
(463,702,o),
(341,702,cs),
(178,702,o),
(62,579,o),
(62,345,cs),
(62,111,o),
(178,-13,o),
(341,-13,cs)
);
}
);
width = 731;
}
);
metricLeft = "=|theCarrier-canadian";
metricRight = "=|dleCarrier-canadian";
note = uni1639;
unicode = 5689;
},
{
color = 9;
glyphname = "tluCarrier-canadian";
lastChange = "2023-01-13 15:53:22 +0000";
layers = (
{
layerId = "F8006AA5-6E21-4BD1-AC52-9C52C7F343AA";
shapes = (
{
closed = 1;
nodes = (
(359,-13,o),
(420,34,o),
(446,124,c),
(417,124,l),
(444,34,o),
(504,-13,o),
(586,-13,cs),
(719,-13,o),
(794,82,o),
(794,279,cs),
(794,483,o),
(725,588,o),
(616,628,c),
(596,616,l),
(788,616,l),
(788,535,l),
(860,535,l),
(860,771,l),
(788,771,l),
(788,690,l),
(490,690,l),
(490,611,l),
(628,608,o),
(697,502,o),
(697,287,cs),
(697,130,o),
(656,72,o),
(581,72,cs),
(519,72,o),
(478,124,o),
(478,223,cs),
(478,302,l),
(385,302,l),
(385,223,ls),
(385,124,o),
(345,72,o),
(283,72,cs),
(208,72,o),
(166,130,o),
(166,287,cs),
(166,502,o),
(236,608,o),
(374,611,c),
(374,690,l),
(61,690,l),
(61,608,l),
(256,608,l),
(234,621,l),
(133,580,o),
(71,475,o),
(71,279,cs),
(71,82,o),
(145,-13,o),
(277,-13,cs)
);
}
);
width = 901;
}
);
metricRight = "tlhuCarrier-canadian";
note = uni163A;
unicode = 5690;
},
{
color = 1;
glyphname = "tloCarrier-canadian";
lastChange = "2023-01-13 15:53:22 +0000";
layers = (
{
layerId = "F8006AA5-6E21-4BD1-AC52-9C52C7F343AA";
shapes = (
{
closed = 1;
nodes = (
(860,-81,l),
(860,155,l),
(788,155,l),
(788,73,l),
(596,73,l),
(616,62,l),
(725,101,o),
(794,207,o),
(794,411,cs),
(794,608,o),
(719,702,o),
(586,702,cs),
(504,702,o),
(444,656,o),
(417,566,c),
(446,566,l),
(420,656,o),
(359,702,o),
(277,702,cs),
(145,702,o),
(71,608,o),
(71,411,cs),
(71,214,o),
(133,110,o),
(234,69,c),
(256,82,l),
(61,82,l),
(61,0,l),
(374,0,l),
(374,78,l),
(236,82,o),
(166,187,o),
(166,403,cs),
(166,559,o),
(208,617,o),
(283,617,cs),
(345,617,o),
(385,566,o),
(385,467,cs),
(385,387,l),
(478,387,l),
(478,467,ls),
(478,566,o),
(519,617,o),
(581,617,cs),
(656,617,o),
(697,559,o),
(697,403,cs),
(697,187,o),
(628,82,o),
(490,78,c),
(490,0,l),
(788,0,l),
(788,-81,l)
);
}
);
width = 901;
}
);
metricLeft = "tluCarrier-canadian";
metricRight = "tlhuCarrier-canadian";
note = uni163B;
unicode = 5691;
},
{
color = 9;
glyphname = "tleCarrier-canadian";
lastChange = "2023-01-13 15:53:22 +0000";
layers = (
{
anchors = (
{
name = middle_center_can;
pos = (288,345);
}
);
layerId = "F8006AA5-6E21-4BD1-AC52-9C52C7F343AA";
shapes = (
{
closed = 1;
nodes = (
(585,-13,o),
(660,73,o),
(660,185,cs),
(660,270,o),
(610,336,o),
(524,356,c),
(524,334,l),
(611,352,o),
(660,418,o),
(660,504,cs),
(660,616,o),
(585,702,o),
(419,702,cs),
(270,702,o),
(177,636,o),
(145,526,c),
(156,511,l),
(156,699,l),
(234,699,l),
(234,769,l),
(6,769,l),
(6,699,l),
(83,699,l),
(83,415,l),
(164,415,l),
(171,534,o),
(240,616,o),
(399,616,cs),
(515,616,o),
(564,570,o),
(564,495,cs),
(564,424,o),
(516,385,o),
(428,385,cs),
(385,385,l),
(385,305,l),
(428,305,ls),
(520,305,o),
(564,266,o),
(564,195,cs),
(564,120,o),
(511,73,o),
(398,73,cs),
(240,73,o),
(171,156,o),
(164,274,c),
(83,274,l),
(83,0,l),
(170,0,l),
(170,163,l),
(156,147,l),
(191,46,o),
(275,-13,o),
(419,-13,cs)
);
}
);
width = 731;
}
);
metricLeft = "dleCarrier-canadian";
metricRight = "geCarrier-canadian";
note = uni163C;
unicode = 5692;
},
{
color = 9;
glyphname = "tlaCarrier-canadian";
lastChange = "2023-01-13 15:53:22 +0000";
layers = (
{
layerId = "F8006AA5-6E21-4BD1-AC52-9C52C7F343AA";
shapes = (
{
closed = 1;
nodes = (
(456,-13,o),
(540,46,o),
(575,147,c),
(561,163,l),
(561,0,l),
(648,0,l),
(648,274,l),
(567,274,l),
(560,156,o),
(492,73,o),
(333,73,cs),
(220,73,o),
(167,120,o),
(167,195,cs),
(167,266,o),
(212,305,o),
(303,305,cs),
(360,305,l),
(360,385,l),
(303,385,ls),
(215,385,o),
(167,424,o),
(167,495,cs),
(167,570,o),
(216,616,o),
(333,616,cs),
(492,616,o),
(560,534,o),
(567,415,c),
(648,415,l),
(648,699,l),
(726,699,l),
(726,769,l),
(498,769,l),
(498,699,l),
(576,699,l),
(576,511,l),
(586,526,l),
(554,636,o),
(461,702,o),
(312,702,cs),
(147,702,o),
(71,616,o),
(71,504,cs),
(71,418,o),
(121,353,o),
(208,333,c),
(208,356,l),
(122,336,o),
(71,270,o),
(71,185,cs),
(71,73,o),
(147,-13,o),
(312,-13,cs)
);
}
);
width = 732;
}
);
metricLeft = "=|geCarrier-canadian";
metricRight = "=|dleCarrier-canadian";
note = uni163F;
unicode = 5695;
},
{
color = 9;
glyphname = "zuCarrier-canadian";
lastChange = "2023-01-13 15:53:22 +0000";
layers = (
{
layerId = "F8006AA5-6E21-4BD1-AC52-9C52C7F343AA";
shapes = (
{
closed = 1;
nodes = (
(563,-13,o),
(676,88,o),
(676,241,cs),
(676,359,o),
(585,479,o),
(585,547,cs),
(585,581,o),
(602,607,o),
(655,607,cs),
(686,607,l),
(686,690,l),
(635,690,ls),
(534,690,o),
(492,635,o),
(492,560,cs),
(492,469,o),
(580,363,o),
(580,254,cs),
(580,142,o),
(505,74,o),
(372,74,cs),
(239,74,o),
(164,142,o),
(164,254,cs),
(164,363,o),
(252,469,o),
(252,560,cs),
(252,635,o),
(210,690,o),
(109,690,cs),
(59,690,l),
(59,607,l),
(90,607,ls),
(142,607,o),
(158,581,o),
(158,547,cs),
(158,479,o),
(68,359,o),
(68,241,cs),
(68,88,o),
(181,-13,o),
(372,-13,cs)
);
}
);
width = 745;
}
);
metricRight = "=|";
note = uni1640;
unicode = 5696;
},
{
color = 9;
glyphname = "zoCarrier-canadian";
lastChange = "2023-01-13 15:53:22 +0000";
layers = (
{
layerId = "F8006AA5-6E21-4BD1-AC52-9C52C7F343AA";
shapes = (
{
closed = 1;
nodes = (
(109,0,ls),
(210,0,o),
(252,55,o),
(252,129,cs),
(252,221,o),
(164,327,o),
(164,436,cs),
(164,548,o),
(239,615,o),
(372,615,cs),
(506,615,o),
(581,548,o),
(581,436,cs),
(581,327,o),
(492,221,o),
(492,129,cs),
(492,55,o),
(535,0,o),
(635,0,cs),
(686,0,l),
(686,83,l),
(655,83,ls),
(602,83,o),
(585,109,o),
(585,143,cs),
(585,211,o),
(676,330,o),
(676,449,cs),
(676,602,o),
(563,702,o),
(372,702,cs),
(181,702,o),
(69,602,o),
(69,449,cs),
(69,330,o),
(158,211,o),
(158,143,cs),
(158,109,o),
(142,83,o),
(90,83,cs),
(59,83,l),
(59,0,l)
);
}
);
width = 745;
}
);
metricLeft = "zuCarrier-canadian";
metricRight = "zuCarrier-canadian";
note = uni1641;
unicode = 5697;
},
